<svg width="150" height="150" viewBox="0 0 150 150" fill="none" xmlns="http://www.w3.org/2000/svg">
<path d="M75 147.5C34.9594 147.5 2.5 115.041 2.5 75C2.5 34.9594 34.9594 2.5 75 2.5C115.041 2.5 147.5 34.9594 147.5 75C147.5 115.041 115.041 147.5 75 147.5Z" fill="#E7CC3B" stroke="white" stroke-width="5"/>
<path d="M58.4766 36.18C57.8232 35.98 57.2832 35.6 56.8566 35.04C56.4432 34.4667 56.2366 33.7267 56.2366 32.82C56.2366 31.7533 56.5366 30.8267 57.1366 30.04C57.7366 29.24 58.5632 28.6267 59.6166 28.2C60.6699 27.7733 61.8632 27.56 63.1966 27.56C63.8366 27.56 64.4566 27.6067 65.0566 27.7C65.6699 27.78 66.3766 27.9 67.1766 28.06C67.6566 28.1533 68.1366 28.24 68.6166 28.32C69.0966 28.3867 69.5099 28.42 69.8566 28.42C70.4432 28.42 70.9766 28.3267 71.4566 28.14C71.9499 27.94 72.3499 27.6267 72.6566 27.2C72.6032 28.12 72.2966 28.8467 71.7366 29.38C71.1766 29.9 70.3899 30.16 69.3766 30.16C68.7899 30.16 68.1966 30.0867 67.5966 29.94C67.0099 29.78 66.2366 29.5467 65.2766 29.24C64.4766 28.96 63.8032 28.7533 63.2566 28.62C62.7099 28.4733 62.1966 28.4 61.7166 28.4C60.9566 28.4 60.3099 28.5933 59.7766 28.98C59.2432 29.3667 58.8366 29.8733 58.5566 30.5C58.2899 31.1133 58.1566 31.7733 58.1566 32.48C58.1566 33.2667 58.3432 33.9333 58.7166 34.48C59.1032 35.0267 59.7232 35.5067 60.5766 35.92L60.4966 36.02C59.4566 36.02 58.7832 36.0733 58.4766 36.18ZM57.8366 42.3C57.2366 42.3 56.6766 42.24 56.1566 42.12C55.6366 42.0133 55.2099 41.8867 54.8766 41.74C54.7699 41.3267 54.7166 40.8667 54.7166 40.36L54.8366 40.14C55.7032 41.0733 56.7366 41.54 57.9366 41.54C60.1499 41.54 61.6099 40.0067 62.3166 36.94C62.9299 34.3133 63.4032 32.34 63.7366 31.02C64.0032 30.66 64.3232 30.34 64.6966 30.06C65.0832 29.7667 65.4366 29.5533 65.7566 29.42L65.9366 29.48C65.6966 29.9867 65.4766 30.66 65.2766 31.5C65.0766 32.3267 64.8166 33.5133 64.4966 35.06C64.3899 35.6467 64.2632 36.2533 64.1166 36.88C63.6499 38.7733 62.8632 40.1533 61.7566 41.02C60.6632 41.8733 59.3566 42.3 57.8366 42.3ZM78.5102 37.42C78.7368 37.5267 78.8502 37.68 78.8502 37.88C78.8502 38.48 78.4968 39.1133 77.7902 39.78C77.0968 40.4333 76.2302 40.9867 75.1902 41.44C74.1635 41.88 73.2102 42.1 72.3302 42.1C71.6102 42.1 70.9968 41.9533 70.4902 41.66C69.9835 41.3667 69.5968 41.04 69.3302 40.68C69.0768 40.3067 68.9502 40.0333 68.9502 39.86C69.0435 39.5133 69.1302 39.1 69.2102 38.62C69.3035 38.14 69.3702 37.8067 69.4102 37.62C69.4502 37.38 69.4968 37.1 69.5502 36.78C69.6168 36.4467 69.6968 36.0667 69.7902 35.64C69.8435 35.3733 70.0768 35.08 70.4902 34.76C70.9035 34.4267 71.3702 34.1533 71.8902 33.94C72.4235 33.7133 72.8635 33.6 73.2102 33.6C73.5035 33.6 73.8502 33.68 74.2502 33.84C74.6635 34 75.0168 34.2267 75.3102 34.52C75.6035 34.8 75.7502 35.1333 75.7502 35.52C75.7502 36.0133 75.5035 36.4933 75.0102 36.96C74.5302 37.4267 73.9168 37.8133 73.1702 38.12C72.4235 38.4133 71.6902 38.5733 70.9702 38.6L70.8102 39.44C70.8502 39.8533 71.0435 40.2133 71.3902 40.52C71.7368 40.8133 72.2568 40.96 72.9502 40.96C73.6168 40.96 74.3102 40.8067 75.0302 40.5C75.7635 40.1933 76.4368 39.7733 77.0502 39.24C77.6768 38.6933 78.1635 38.0867 78.5102 37.42ZM73.0302 34.44C72.6968 34.44 72.3702 34.6 72.0502 34.92C71.7435 35.24 71.5502 35.56 71.4702 35.88L71.1302 37.7C71.9302 37.6467 72.6102 37.4133 73.1702 37C73.7302 36.5867 74.0102 36.1 74.0102 35.54C74.0102 35.2067 73.9102 34.94 73.7102 34.74C73.5235 34.54 73.2968 34.44 73.0302 34.44ZM86.8695 37.42C87.0962 37.5267 87.2095 37.68 87.2095 37.88C87.2095 38.48 86.8562 39.1133 86.1495 39.78C85.4562 40.4333 84.5895 40.9867 83.5495 41.44C82.5229 41.88 81.5695 42.1 80.6895 42.1C79.9695 42.1 79.3562 41.9533 78.8495 41.66C78.3429 41.3667 77.9562 41.04 77.6895 40.68C77.4362 40.3067 77.3095 40.0333 77.3095 39.86C77.4029 39.5133 77.4895 39.1 77.5695 38.62C77.6629 38.14 77.7295 37.8067 77.7695 37.62C77.8095 37.38 77.8562 37.1 77.9095 36.78C77.9762 36.4467 78.0562 36.0667 78.1495 35.64C78.2029 35.3733 78.4362 35.08 78.8495 34.76C79.2629 34.4267 79.7295 34.1533 80.2495 33.94C80.7829 33.7133 81.2229 33.6 81.5695 33.6C81.8629 33.6 82.2095 33.68 82.6095 33.84C83.0229 34 83.3762 34.2267 83.6695 34.52C83.9629 34.8 84.1095 35.1333 84.1095 35.52C84.1095 36.0133 83.8629 36.4933 83.3695 36.96C82.8895 37.4267 82.2762 37.8133 81.5295 38.12C80.7829 38.4133 80.0495 38.5733 79.3295 38.6L79.1695 39.44C79.2095 39.8533 79.4029 40.2133 79.7495 40.52C80.0962 40.8133 80.6162 40.96 81.3095 40.96C81.9762 40.96 82.6695 40.8067 83.3895 40.5C84.1229 40.1933 84.7962 39.7733 85.4095 39.24C86.0362 38.6933 86.5229 38.0867 86.8695 37.42ZM81.3895 34.44C81.0562 34.44 80.7295 34.6 80.4095 34.92C80.1029 35.24 79.9095 35.56 79.8295 35.88L79.4895 37.7C80.2895 37.6467 80.9695 37.4133 81.5295 37C82.0895 36.5867 82.3695 36.1 82.3695 35.54C82.3695 35.2067 82.2695 34.94 82.0695 34.74C81.8829 34.54 81.6562 34.44 81.3895 34.44ZM105.869 43.42C106.149 43.42 106.369 43.5267 106.529 43.74C106.689 43.9533 106.769 44.24 106.769 44.6C106.769 45.2267 106.529 45.7733 106.049 46.24C105.582 46.72 104.956 47.0867 104.169 47.34C103.396 47.5933 102.569 47.72 101.689 47.72C100.569 47.72 99.4222 47.52 98.2489 47.12C97.0889 46.72 95.9956 46.2333 94.9689 45.66C93.9556 45.1 92.6756 44.34 91.1289 43.38C90.1556 42.7667 89.3556 42.2733 88.7289 41.9C88.3022 41.6467 87.9689 41.52 87.7289 41.52C87.5556 41.52 87.3889 41.5667 87.2289 41.66C87.0822 41.7533 86.8689 41.9267 86.5889 42.18C86.4022 42.18 86.1556 42.1 85.8489 41.94C85.5556 41.7667 85.4089 41.64 85.4089 41.56C86.7556 40.4933 87.8822 39.5267 88.7889 38.66C89.7089 37.78 90.5822 36.8333 91.4089 35.82C90.6356 36.3267 89.8222 36.58 88.9689 36.58C88.2756 36.58 87.7556 36.42 87.4089 36.1C87.0622 35.7667 86.8889 35.36 86.8889 34.88C86.8889 34.4667 87.0156 34.1467 87.2689 33.92C87.5356 33.6933 87.8622 33.58 88.2489 33.58C88.5822 33.58 88.8556 33.66 89.0689 33.82C88.9889 33.94 88.9222 34.0867 88.8689 34.26C88.8156 34.4333 88.7889 34.6 88.7889 34.76C88.7889 35.2933 89.1289 35.56 89.8089 35.56C90.8089 35.56 91.8356 34.9467 92.8889 33.72C93.1022 33.72 93.3222 33.8067 93.5489 33.98C93.7889 34.14 93.9089 34.32 93.9089 34.52C93.9089 34.68 93.8156 34.8733 93.6289 35.1C91.9756 37.2067 90.3956 38.9533 88.8889 40.34C90.7689 41.58 92.4289 42.6133 93.8689 43.44C95.3089 44.2667 96.7089 44.94 98.0689 45.46C99.4422 45.98 100.696 46.24 101.829 46.24C102.922 46.24 103.789 45.9933 104.429 45.5C105.069 45.02 105.549 44.3267 105.869 43.42ZM55.3395 72.56C56.2461 72.7067 57.0128 73.0467 57.6395 73.58C58.2795 74.1 58.5995 74.8533 58.5995 75.84C58.5995 76.7333 58.3328 77.52 57.7995 78.2C57.2661 78.88 56.5395 79.4067 55.6195 79.78C54.6995 80.1533 53.6861 80.34 52.5795 80.34C51.9528 80.34 51.3528 80.28 50.7795 80.16C50.2195 80.04 49.7328 79.8867 49.3195 79.7C49.1595 79.94 48.8261 80.06 48.3195 80.06C48.1061 80.06 47.8728 80.0467 47.6195 80.02C47.3795 79.9933 47.1928 79.9533 47.0595 79.9C47.2328 79.6467 47.3528 79.42 47.4195 79.22C47.4861 79.02 47.5728 78.7067 47.6795 78.28C48.0795 76.6133 48.5528 74.46 49.0995 71.82C49.6595 69.1667 49.9395 67.6333 49.9395 67.22C49.9395 67.0867 49.9061 67 49.8395 66.96C49.7728 66.92 49.6528 66.9 49.4795 66.9C49.1328 66.9 48.6528 66.9467 48.0395 67.04C47.3461 67.12 46.9128 67.16 46.7395 67.16C46.5395 67.16 46.3928 67.1333 46.2995 67.08C46.2061 67.0267 46.1595 66.9267 46.1595 66.78C46.1595 66.66 46.1928 66.48 46.2595 66.24C46.3261 66 46.3928 65.8267 46.4595 65.72C46.4861 65.7333 46.5461 65.7733 46.6395 65.84C46.7461 65.8933 46.8995 65.9333 47.0995 65.96C47.3128 65.9867 47.5928 66 47.9395 66H52.5595C54.4261 66 55.9195 66.2933 57.0395 66.88C58.1595 67.4667 58.7195 68.32 58.7195 69.44C58.7195 70.9867 57.5928 72.0267 55.3395 72.56ZM52.4995 79.28C53.8328 79.28 54.8395 78.9667 55.5195 78.34C56.1995 77.7 56.5395 76.8333 56.5395 75.74C56.5395 74.9 56.3261 74.28 55.8995 73.88C55.4728 73.48 54.7928 73.28 53.8595 73.28C53.2461 73.28 52.7261 73.3067 52.2995 73.36C52.1928 73.2533 52.0995 73.1133 52.0195 72.94C51.9395 72.7667 51.8995 72.5867 51.8995 72.4C51.8995 72.2267 51.9395 72.12 52.0195 72.08C52.1261 72.0933 52.3328 72.1133 52.6395 72.14C52.9595 72.1533 53.2128 72.16 53.3995 72.16C53.9995 72.16 54.5461 72.0333 55.0395 71.78C55.5328 71.5267 55.9261 71.1733 56.2195 70.72C56.5128 70.2667 56.6595 69.7533 56.6595 69.18C56.6595 68.4067 56.3795 67.8333 55.8195 67.46C55.2595 67.0733 54.4461 66.88 53.3795 66.88C52.9128 66.88 52.5595 66.9333 52.3195 67.04C52.0928 67.1333 51.9128 67.32 51.7795 67.6C51.6595 67.88 51.5395 68.32 51.4195 68.92C50.4995 73.5333 49.8995 76.7067 49.6195 78.44C50.3928 79 51.3528 79.28 52.4995 79.28ZM70.6488 75.42C70.8755 75.5267 70.9888 75.68 70.9888 75.88C70.9888 76.48 70.6355 77.1133 69.9288 77.78C69.2355 78.4333 68.3688 78.9867 67.3288 79.44C66.3022 79.88 65.3488 80.1 64.4688 80.1C63.7488 80.1 63.1355 79.9533 62.6288 79.66C62.1222 79.3667 61.7355 79.04 61.4688 78.68C61.2155 78.3067 61.0888 78.0333 61.0888 77.86C61.1822 77.5133 61.2688 77.1 61.3488 76.62C61.4422 76.14 61.5088 75.8067 61.5488 75.62C61.5888 75.38 61.6355 75.1 61.6888 74.78C61.7555 74.4467 61.8355 74.0667 61.9288 73.64C61.9822 73.3733 62.2155 73.08 62.6288 72.76C63.0422 72.4267 63.5088 72.1533 64.0288 71.94C64.5622 71.7133 65.0022 71.6 65.3488 71.6C65.6422 71.6 65.9888 71.68 66.3888 71.84C66.8022 72 67.1555 72.2267 67.4488 72.52C67.7422 72.8 67.8888 73.1333 67.8888 73.52C67.8888 74.0133 67.6422 74.4933 67.1488 74.96C66.6688 75.4267 66.0555 75.8133 65.3088 76.12C64.5622 76.4133 63.8288 76.5733 63.1088 76.6L62.9488 77.44C62.9888 77.8533 63.1822 78.2133 63.5288 78.52C63.8755 78.8133 64.3955 78.96 65.0888 78.96C65.7555 78.96 66.4488 78.8067 67.1688 78.5C67.9022 78.1933 68.5755 77.7733 69.1888 77.24C69.8155 76.6933 70.3022 76.0867 70.6488 75.42ZM65.1688 72.44C64.8355 72.44 64.5088 72.6 64.1888 72.92C63.8822 73.24 63.6888 73.56 63.6088 73.88L63.2688 75.7C64.0688 75.6467 64.7488 75.4133 65.3088 75C65.8688 74.5867 66.1488 74.1 66.1488 73.54C66.1488 73.2067 66.0488 72.94 65.8488 72.74C65.6622 72.54 65.4355 72.44 65.1688 72.44ZM81.0282 75.18C81.2682 75.18 81.3882 75.38 81.3882 75.78C81.3882 76.42 81.1282 77.0933 80.6082 77.8C80.1015 78.4933 79.4682 79.0733 78.7082 79.54C77.9482 80.0067 77.2482 80.24 76.6082 80.24C76.1015 80.24 75.6549 80.0933 75.2682 79.8C74.8949 79.5067 74.6282 79.1267 74.4682 78.66C74.1082 79.1133 73.6749 79.48 73.1682 79.76C72.6615 80.0267 72.2082 80.16 71.8082 80.16C71.4615 80.16 71.1149 80.06 70.7682 79.86C70.4215 79.6467 70.1282 79.38 69.8882 79.06C69.6482 78.74 69.5215 78.42 69.5082 78.1C69.8149 76.74 70.0882 75.42 70.3282 74.14C70.3815 73.8733 70.6082 73.54 71.0082 73.14C71.4082 72.7267 71.8882 72.3733 72.4482 72.08C73.0082 71.7867 73.5415 71.64 74.0482 71.64C74.5149 71.64 74.9882 71.78 75.4682 72.06C75.5615 71.8333 75.6349 71.6933 75.6882 71.64C75.7415 71.5733 75.8215 71.5333 75.9282 71.52L77.6682 71.42L77.7282 71.46C77.5682 71.5933 77.4482 71.74 77.3682 71.9C77.2882 72.06 77.2149 72.2467 77.1482 72.46C76.9082 73.2733 76.6615 74.26 76.4082 75.42C76.1549 76.5667 76.0282 77.36 76.0282 77.8C76.0282 78.1733 76.1149 78.5133 76.2882 78.82C76.4749 79.1267 76.7615 79.28 77.1482 79.28C77.5482 79.28 78.0082 79.1067 78.5282 78.76C79.0615 78.4133 79.5549 77.9267 80.0082 77.3C80.4749 76.6733 80.8149 75.9667 81.0282 75.18ZM72.4482 78.96C72.6349 78.96 72.8615 78.8667 73.1282 78.68C73.3949 78.4933 73.6415 78.24 73.8682 77.92C74.1082 77.6 74.2749 77.2467 74.3682 76.86L74.6882 75.36C74.9282 74.1333 75.0949 73.3267 75.1882 72.94C74.8415 72.78 74.4749 72.7 74.0882 72.7C73.4615 72.7 72.9882 72.9 72.6682 73.3C72.3615 73.6867 72.1549 74.1267 72.0482 74.62L71.4282 77.64C71.4549 77.9733 71.5749 78.28 71.7882 78.56C72.0015 78.8267 72.2215 78.96 72.4482 78.96ZM90.7588 75.32C90.9722 75.3733 91.0788 75.4933 91.0788 75.68C91.0788 76 90.8322 76.5267 90.3388 77.26C89.8455 77.9933 89.2388 78.6533 88.5188 79.24C87.8122 79.8133 87.1055 80.1 86.3988 80.1C85.8655 80.1 85.4122 79.9333 85.0388 79.6C84.6655 79.2533 84.4722 78.8133 84.4588 78.28C84.0988 78.7733 83.6855 79.2 83.2188 79.56C82.7522 79.92 82.3122 80.1 81.8988 80.1C81.4855 80.1 81.0522 79.9333 80.5988 79.6C80.1455 79.2667 79.8922 78.92 79.8388 78.56L81.0188 72.08C81.0722 71.8267 81.1588 71.7 81.2788 71.7C81.4388 71.7 81.7255 71.76 82.1388 71.88C82.5655 71.9867 82.7788 72.0933 82.7788 72.2C82.7788 72.24 82.7188 72.5 82.5988 72.98C82.4655 73.54 82.2788 74.4 82.0388 75.56C81.8122 76.72 81.6588 77.5533 81.5788 78.06C81.6055 78.2467 81.6988 78.42 81.8588 78.58C82.0322 78.7267 82.2322 78.8 82.4588 78.8C82.8455 78.8 83.2455 78.5733 83.6588 78.12C84.0855 77.6533 84.4388 76.9333 84.7188 75.96C84.9588 75.1467 85.2655 73.8 85.6388 71.92C85.6655 71.7733 85.7388 71.7 85.8588 71.7C86.0322 71.7 86.3055 71.76 86.6788 71.88C87.0655 71.9867 87.2588 72.1067 87.2588 72.24C86.8722 73.6267 86.5455 74.88 86.2788 76C86.0122 77.12 85.8788 77.8533 85.8788 78.2C85.8788 78.4533 85.9522 78.6667 86.0988 78.84C86.2588 79.0133 86.4855 79.1 86.7788 79.1C87.3388 79.1 87.9788 78.7733 88.6988 78.12C89.4188 77.4533 90.1055 76.52 90.7588 75.32ZM97.1924 76.48C97.2724 76.5867 97.3124 76.7 97.3124 76.82C97.3124 76.9133 97.2858 77.0533 97.2324 77.24C97.0458 77.6667 96.6458 78.1133 96.0324 78.58C95.4191 79.0467 94.7258 79.4333 93.9524 79.74C93.1924 80.0467 92.5258 80.2 91.9524 80.2C91.3124 80.2 90.8124 80.0067 90.4524 79.62C90.1058 79.2333 89.9324 78.7133 89.9324 78.06C89.9324 77.34 90.1991 75.6 90.7324 72.84L88.7524 72.92C88.7391 72.92 88.7124 72.8867 88.6724 72.82C88.6324 72.7533 88.6058 72.7 88.5924 72.66C88.8058 72.2333 88.9791 71.9267 89.1124 71.74H90.9324L91.8524 67.14C92.7058 66.66 93.4924 66.3467 94.2124 66.2C94.2658 66.2 94.3258 66.24 94.3924 66.32C94.4724 66.3867 94.5124 66.4467 94.5124 66.5C93.9791 66.7533 93.6524 67.1667 93.5324 67.74C93.3458 68.5667 93.0724 69.9067 92.7124 71.76L96.4724 71.78C96.4591 71.8333 96.4524 71.9133 96.4524 72.02C96.4658 72.1267 96.4724 72.2067 96.4724 72.26C96.4724 72.38 96.4391 72.4667 96.3724 72.52C96.3058 72.5733 96.2058 72.6 96.0724 72.6L92.5324 72.76C92.0258 75.4133 91.7724 77.0933 91.7724 77.8C91.7724 78.16 91.8658 78.4467 92.0524 78.66C92.2391 78.8733 92.5324 78.98 92.9324 78.98C93.5324 78.98 94.2058 78.7533 94.9524 78.3C95.6991 77.8467 96.4458 77.24 97.1924 76.48ZM102.188 71.64C102.508 71.64 102.881 71.68 103.308 71.76C103.748 71.8267 103.988 71.94 104.028 72.1C103.815 73.14 103.555 74.3467 103.248 75.72C102.941 77.0933 102.668 78.22 102.428 79.1C101.615 82.1667 100.415 84.7933 98.8279 86.98C97.2546 89.1667 95.0679 90.26 92.2679 90.26C91.0146 90.26 90.0812 90.0267 89.4679 89.56C88.8546 89.1067 88.5479 88.54 88.5479 87.86C88.5479 87.4067 88.6879 87 88.9679 86.64C89.3679 87.1467 89.9346 87.5667 90.6679 87.9C91.4012 88.2333 92.2546 88.4 93.2279 88.4C94.3746 88.4 95.3946 88.1133 96.2879 87.54C97.1812 86.9667 98.0012 85.9933 98.7479 84.62C99.4946 83.2467 100.188 81.3733 100.828 79C100.428 79.28 100.021 79.52 99.6079 79.72C99.1946 79.9067 98.8546 80 98.5879 80C98.3212 80 98.0146 79.92 97.6679 79.76C97.3212 79.5867 97.0212 79.3667 96.7679 79.1C96.5279 78.8333 96.4079 78.5533 96.4079 78.26C96.4612 77.9933 96.5679 77.3867 96.7279 76.44C96.9679 74.8267 97.2212 73.4267 97.4879 72.24C97.5679 71.8667 97.8479 71.68 98.3279 71.68C98.4879 71.68 98.6946 71.6933 98.9479 71.72C99.2012 71.7333 99.3679 71.7533 99.4479 71.78C99.2346 72.7533 98.9479 74.2333 98.5879 76.22C98.4679 76.9667 98.3679 77.52 98.2879 77.88C98.2746 78.1733 98.3546 78.42 98.5279 78.62C98.7012 78.8067 98.9012 78.9 99.1279 78.9C99.4079 78.9 99.7546 78.7667 100.168 78.5C100.595 78.22 100.915 77.94 101.128 77.66L101.508 75.5C101.868 73.54 102.095 72.2533 102.188 71.64ZM60.4202 111.26C63.3802 111.26 65.3469 111.093 66.3202 110.76C66.3469 110.813 66.3802 110.96 66.4202 111.2C66.4602 111.44 66.4802 111.613 66.4802 111.72C66.1202 111.813 65.8802 111.92 65.7602 112.04C65.6536 112.147 65.5669 112.347 65.5002 112.64C64.9936 114.947 64.5069 116.887 64.0402 118.46C63.5869 120.047 63.0136 121.4 62.3202 122.52C61.7736 123.4 60.9736 124.247 59.9202 125.06C58.8669 125.873 57.5069 126.28 55.8402 126.28C55.1869 126.28 54.6136 126.207 54.1202 126.06C53.6269 125.927 53.2402 125.76 52.9602 125.56C52.6802 125.373 52.5002 125.207 52.4202 125.06L52.1802 124.58C52.4469 124.753 52.9202 124.907 53.6002 125.04C54.2802 125.173 54.9269 125.24 55.5402 125.24C57.4336 125.24 59.0002 124.513 60.2402 123.06C61.4936 121.62 62.4536 119.433 63.1202 116.5C62.0402 117.78 60.5469 118.42 58.6402 118.42C57.5069 118.42 56.5002 118.2 55.6202 117.76C54.7402 117.307 54.0536 116.64 53.5602 115.76C53.0669 114.867 52.8202 113.787 52.8202 112.52C52.8202 110.947 53.1936 109.493 53.9402 108.16C54.7002 106.813 55.7469 105.74 57.0802 104.94C58.4136 104.14 59.9202 103.74 61.6002 103.74C62.5602 103.74 63.4936 103.873 64.4002 104.14C65.3069 104.407 66.0536 104.767 66.6402 105.22C66.3202 106.1 66.0736 107.1 65.9002 108.22C65.8202 108.22 65.7202 108.233 65.6002 108.26C65.4936 108.273 65.4136 108.293 65.3602 108.32C65.3602 108.253 65.3469 108.047 65.3202 107.7C65.2936 107.34 65.2669 107.073 65.2402 106.9C65.1069 106.153 64.6736 105.627 63.9402 105.32C63.2069 105.013 62.3869 104.86 61.4802 104.86C59.9869 104.86 58.7336 105.233 57.7202 105.98C56.7202 106.727 55.9736 107.687 55.4802 108.86C55.0002 110.02 54.7602 111.247 54.7602 112.54C54.7602 114.047 55.1069 115.22 55.8002 116.06C56.4936 116.9 57.5402 117.32 58.9402 117.32C59.8869 117.32 60.7202 117.133 61.4402 116.76C62.1736 116.387 62.7402 115.88 63.1402 115.24C63.5402 114.587 63.7402 113.873 63.7402 113.1C63.7402 112.7 63.6802 112.44 63.5602 112.32C63.4402 112.187 63.2336 112.12 62.9402 112.12C62.3002 112.12 61.3936 112.207 60.2202 112.38C60.2202 112.22 60.2402 112.02 60.2802 111.78C60.3202 111.54 60.3669 111.367 60.4202 111.26ZM77.3187 113C77.6253 113 77.7787 113.22 77.7787 113.66C77.7787 113.887 77.7387 114.12 77.6587 114.36C77.472 114.947 77.0853 115.533 76.4987 116.12C75.9253 116.707 75.232 117.193 74.4187 117.58C73.6187 117.953 72.792 118.14 71.9387 118.14C70.992 118.14 70.2653 117.9 69.7587 117.42C69.2653 116.927 69.0187 116.253 69.0187 115.4C69.0187 114.667 69.1853 113.36 69.5187 111.48C69.8653 109.6 70.2587 107.653 70.6987 105.64C71.1387 103.613 71.4853 102.147 71.7387 101.24C72.432 98.7467 73.3853 97.5 74.5987 97.5C75.1987 97.5 75.6453 97.7733 75.9387 98.32C76.232 98.8667 76.3787 99.56 76.3787 100.4C76.3787 102.08 75.852 104.093 74.7987 106.44C73.7453 108.773 72.4853 110.98 71.0187 113.06C70.912 113.913 70.8587 114.587 70.8587 115.08C70.8587 115.827 70.972 116.34 71.1987 116.62C71.4387 116.9 71.8053 117.04 72.2987 117.04C72.9653 117.04 73.632 116.847 74.2987 116.46C74.9787 116.073 75.5853 115.573 76.1187 114.96C76.652 114.333 77.052 113.68 77.3187 113ZM73.5387 101.5C73.152 102.927 72.752 104.513 72.3387 106.26C71.9387 107.993 71.6053 109.587 71.3387 111.04C72.3387 109.293 73.2053 107.42 73.9387 105.42C74.672 103.42 75.0387 101.753 75.0387 100.42C75.0387 100.007 74.9987 99.6667 74.9187 99.4C74.8387 99.1333 74.7253 99 74.5787 99C74.4453 99 74.3053 99.1667 74.1587 99.5C74.0253 99.82 73.8187 100.487 73.5387 101.5ZM88.126 110.74C88.2993 110.807 88.386 110.947 88.386 111.16C88.386 111.533 88.206 111.893 87.846 112.24C87.486 112.573 87.0127 112.847 86.426 113.06C85.8527 113.273 85.2593 113.38 84.646 113.38C84.166 113.38 83.6727 113.307 83.166 113.16C83.1527 113.253 83.1327 113.36 83.106 113.48C83.0793 113.587 83.0527 113.72 83.026 113.88C82.986 114.093 82.906 114.487 82.786 115.06C82.6793 115.633 82.6127 116.04 82.586 116.28C82.4793 116.507 82.2527 116.773 81.906 117.08C81.5593 117.373 81.1527 117.627 80.686 117.84C80.2193 118.053 79.7593 118.16 79.306 118.16C78.866 118.16 78.4193 118.053 77.966 117.84C77.5127 117.627 77.1327 117.34 76.826 116.98C76.5327 116.607 76.386 116.207 76.386 115.78C76.5727 115.06 76.7127 114.467 76.806 114C76.8993 113.533 77.0127 112.867 77.146 112C77.1993 111.68 77.4127 111.34 77.786 110.98C78.1727 110.607 78.6393 110.3 79.186 110.06C79.746 109.82 80.2927 109.7 80.826 109.7H81.086C81.126 109.46 81.2193 109.287 81.366 109.18C81.5127 109.06 81.7327 109 82.026 109C82.466 109 82.746 109.087 82.866 109.26C82.7327 109.82 82.666 110.22 82.666 110.46C82.666 111.06 82.8793 111.533 83.306 111.88C83.746 112.227 84.3527 112.4 85.126 112.4C85.7793 112.4 86.3793 112.267 86.926 112C87.4727 111.733 87.8727 111.313 88.126 110.74ZM79.506 117.08C79.7727 117.08 80.046 116.987 80.326 116.8C80.606 116.6 80.7927 116.38 80.886 116.14C81.0193 115.42 81.146 114.807 81.266 114.3C81.306 114.113 81.366 113.813 81.446 113.4C81.5393 112.987 81.6127 112.613 81.666 112.28C81.3327 111.947 81.126 111.547 81.046 111.08C81.046 111.027 81.0327 110.98 81.006 110.94C80.9927 110.9 80.966 110.873 80.926 110.86C80.846 110.833 80.7327 110.82 80.586 110.82C80.1327 110.82 79.7593 110.953 79.466 111.22C79.1727 111.473 78.986 111.807 78.906 112.22C78.626 113.527 78.3727 114.693 78.146 115.72C78.1593 116.133 78.3127 116.467 78.606 116.72C78.8993 116.96 79.1993 117.08 79.506 117.08ZM101.886 110.3C101.993 110.34 102.046 110.46 102.046 110.66C102.046 111.06 101.879 111.42 101.546 111.74C101.226 112.06 100.806 112.313 100.286 112.5C99.7793 112.673 99.266 112.76 98.746 112.76C97.986 112.76 97.3327 112.547 96.786 112.12C96.8927 112.52 96.946 112.947 96.946 113.4C96.946 114.227 96.7727 115 96.426 115.72C96.0793 116.427 95.6193 116.993 95.046 117.42C94.4727 117.833 93.8593 118.04 93.206 118.04C92.1927 118.04 91.486 117.527 91.086 116.5C90.7393 117.033 90.306 117.44 89.786 117.72C89.2793 118 88.806 118.14 88.366 118.14C87.9793 118.14 87.6193 118.033 87.286 117.82C86.9527 117.607 86.686 117.333 86.486 117C86.286 116.653 86.186 116.307 86.186 115.96C86.3193 115.253 86.506 114.44 86.746 113.52C86.9993 112.6 87.2327 111.787 87.446 111.08L87.586 110.62C87.786 109.94 88.206 109.6 88.846 109.6C89.126 109.6 89.386 109.66 89.626 109.78C89.2927 110.647 88.9527 111.693 88.606 112.92C88.2593 114.147 88.0393 115.12 87.946 115.84C87.9327 116.24 87.986 116.547 88.106 116.76C88.226 116.973 88.4527 117.08 88.786 117.08C89.2127 117.08 89.586 116.88 89.906 116.48C90.226 116.08 90.4993 115.453 90.726 114.6C90.9127 113.933 91.166 112.727 91.486 110.98C92.686 110.98 93.2527 111.227 93.186 111.72C93.1593 111.893 93.086 112.193 92.966 112.62C92.7393 113.407 92.5793 114.053 92.486 114.56C92.4327 114.8 92.386 115.087 92.346 115.42C92.306 115.74 92.286 115.987 92.286 116.16C92.3927 116.493 92.5193 116.733 92.666 116.88C92.8127 117.027 92.9993 117.1 93.226 117.1C93.6527 117.1 94.0193 116.887 94.326 116.46C94.6327 116.02 94.866 115.48 95.026 114.84C95.1993 114.187 95.286 113.553 95.286 112.94C95.286 112.473 95.2327 112.073 95.126 111.74C95.0193 111.393 94.8327 110.933 94.566 110.36C94.6193 110.147 94.7927 109.967 95.086 109.82C95.3927 109.673 95.626 109.6 95.786 109.6C95.866 109.6 95.946 109.647 96.026 109.74C96.106 109.82 96.206 109.947 96.326 110.12C96.6327 110.573 96.9727 110.947 97.346 111.24C97.7193 111.52 98.2393 111.66 98.906 111.66C99.4127 111.66 99.946 111.56 100.506 111.36C101.066 111.16 101.526 110.807 101.886 110.3Z" fill="white"/>
</svg>
