<svg width="143" height="99" viewBox="0 0 143 99" fill="none" xmlns="http://www.w3.org/2000/svg">
<path d="M49 2.5H94C119.681 2.5 140.5 23.3188 140.5 49C140.5 74.6812 119.681 95.5 94 95.5H49C23.3188 95.5 2.5 74.6812 2.5 49C2.5 23.3188 23.3188 2.5 49 2.5Z" fill="#D83A56" stroke="#FFB3B3" stroke-width="5"/>
<path d="M26.0703 52.032C24.5023 51.552 23.2063 50.64 22.1823 49.296C21.1903 47.92 20.6943 46.144 20.6943 43.968C20.6943 41.408 21.4143 39.184 22.8543 37.296C24.2943 35.376 26.2783 33.904 28.8063 32.88C31.3343 31.856 34.1983 31.344 37.3983 31.344C38.9343 31.344 40.4223 31.456 41.8623 31.68C43.3343 31.872 45.0303 32.16 46.9503 32.544C48.1023 32.768 49.2543 32.976 50.4063 33.168C51.5583 33.328 52.5503 33.408 53.3823 33.408C54.7903 33.408 56.0703 33.184 57.2223 32.736C58.4063 32.256 59.3663 31.504 60.1023 30.48C59.9743 32.688 59.2383 34.432 57.8943 35.712C56.5503 36.96 54.6623 37.584 52.2303 37.584C50.8223 37.584 49.3983 37.408 47.9583 37.056C46.5503 36.672 44.6943 36.112 42.3903 35.376C40.4703 34.704 38.8543 34.208 37.5423 33.888C36.2303 33.536 34.9983 33.36 33.8463 33.36C32.0223 33.36 30.4703 33.824 29.1903 34.752C27.9103 35.68 26.9343 36.896 26.2623 38.4C25.6223 39.872 25.3023 41.456 25.3023 43.152C25.3023 45.04 25.7503 46.64 26.6463 47.952C27.5743 49.264 29.0623 50.416 31.1103 51.408L30.9183 51.648C28.4223 51.648 26.8063 51.776 26.0703 52.032ZM24.5343 66.72C23.0943 66.72 21.7503 66.576 20.5023 66.288C19.2543 66.032 18.2303 65.728 17.4303 65.376C17.1743 64.384 17.0463 63.28 17.0463 62.064L17.3343 61.536C19.4143 63.776 21.8943 64.896 24.7743 64.896C30.0863 64.896 33.5903 61.216 35.2863 53.856C36.7583 47.552 37.8943 42.816 38.6943 39.648C39.3343 38.784 40.1023 38.016 40.9983 37.344C41.9263 36.64 42.7743 36.128 43.5423 35.808L43.9743 35.952C43.3983 37.168 42.8703 38.784 42.3903 40.8C41.9103 42.784 41.2863 45.632 40.5183 49.344C40.2623 50.752 39.9583 52.208 39.6063 53.712C38.4863 58.256 36.5983 61.568 33.9423 63.648C31.3183 65.696 28.1823 66.72 24.5343 66.72ZM72.4709 48.144C74.6469 48.496 76.4869 49.312 77.9909 50.592C79.5269 51.84 80.2949 53.648 80.2949 56.016C80.2949 58.16 79.6549 60.048 78.3749 61.68C77.0949 63.312 75.3509 64.576 73.1429 65.472C70.9349 66.368 68.5029 66.816 65.8469 66.816C64.3429 66.816 62.9029 66.672 61.5269 66.384C60.1829 66.096 59.0149 65.728 58.0229 65.28C57.6389 65.856 56.8389 66.144 55.6229 66.144C55.1109 66.144 54.5509 66.112 53.9429 66.048C53.3669 65.984 52.9189 65.888 52.5989 65.76C53.0149 65.152 53.3029 64.608 53.4629 64.128C53.6229 63.648 53.8309 62.896 54.0869 61.872C55.0469 57.872 56.1829 52.704 57.4949 46.368C58.8389 40 59.5109 36.32 59.5109 35.328C59.5109 35.008 59.4309 34.8 59.2709 34.704C59.1109 34.608 58.8229 34.56 58.4069 34.56C57.5749 34.56 56.4229 34.672 54.9509 34.896C53.2869 35.088 52.2469 35.184 51.8309 35.184C51.3509 35.184 50.9989 35.12 50.7749 34.992C50.5509 34.864 50.4389 34.624 50.4389 34.272C50.4389 33.984 50.5189 33.552 50.6789 32.976C50.8389 32.4 50.9989 31.984 51.1589 31.728C51.2229 31.76 51.3669 31.856 51.5909 32.016C51.8469 32.144 52.2149 32.24 52.6949 32.304C53.2069 32.368 53.8789 32.4 54.7109 32.4H65.7989C70.2789 32.4 73.8629 33.104 76.5509 34.512C79.2389 35.92 80.5829 37.968 80.5829 40.656C80.5829 44.368 77.8789 46.864 72.4709 48.144ZM65.6549 64.272C68.8549 64.272 71.2709 63.52 72.9029 62.016C74.5349 60.48 75.3509 58.4 75.3509 55.776C75.3509 53.76 74.8389 52.272 73.8149 51.312C72.7909 50.352 71.1589 49.872 68.9189 49.872C67.4469 49.872 66.1989 49.936 65.1749 50.064C64.9189 49.808 64.6949 49.472 64.5029 49.056C64.3109 48.64 64.2149 48.208 64.2149 47.76C64.2149 47.344 64.3109 47.088 64.5029 46.992C64.7589 47.024 65.2549 47.072 65.9909 47.136C66.7589 47.168 67.3669 47.184 67.8149 47.184C69.2549 47.184 70.5669 46.88 71.7509 46.272C72.9349 45.664 73.8789 44.816 74.5829 43.728C75.2869 42.64 75.6389 41.408 75.6389 40.032C75.6389 38.176 74.9669 36.8 73.6229 35.904C72.2789 34.976 70.3269 34.512 67.7669 34.512C66.6469 34.512 65.7989 34.64 65.2229 34.896C64.6789 35.12 64.2469 35.568 63.9269 36.24C63.6389 36.912 63.3509 37.968 63.0629 39.408C60.8549 50.48 59.4149 58.096 58.7429 62.256C60.5989 63.6 62.9029 64.272 65.6549 64.272ZM105.805 49.824C112.909 49.824 117.629 49.424 119.965 48.624C120.029 48.752 120.109 49.104 120.205 49.68C120.301 50.256 120.349 50.672 120.349 50.928C119.485 51.152 118.909 51.408 118.621 51.696C118.365 51.952 118.157 52.432 117.997 53.136C116.781 58.672 115.613 63.328 114.493 67.104C113.405 70.912 112.029 74.16 110.365 76.848C109.053 78.96 107.133 80.992 104.605 82.944C102.077 84.896 98.8134 85.872 94.8134 85.872C93.2454 85.872 91.8694 85.696 90.6854 85.344C89.5014 85.024 88.5734 84.624 87.9014 84.144C87.2294 83.696 86.7974 83.296 86.6054 82.944L86.0294 81.792C86.6694 82.208 87.8054 82.576 89.4374 82.896C91.0694 83.216 92.6214 83.376 94.0934 83.376C98.6374 83.376 102.397 81.632 105.373 78.144C108.381 74.688 110.685 69.44 112.285 62.4C109.693 65.472 106.109 67.008 101.533 67.008C98.8134 67.008 96.3974 66.48 94.2854 65.424C92.1734 64.336 90.5254 62.736 89.3414 60.624C88.1574 58.48 87.5654 55.888 87.5654 52.848C87.5654 49.072 88.4614 45.584 90.2534 42.384C92.0774 39.152 94.5894 36.576 97.7894 34.656C100.989 32.736 104.605 31.776 108.637 31.776C110.941 31.776 113.181 32.096 115.357 32.736C117.533 33.376 119.325 34.24 120.733 35.328C119.965 37.44 119.373 39.84 118.957 42.528C118.765 42.528 118.525 42.56 118.237 42.624C117.981 42.656 117.789 42.704 117.661 42.768C117.661 42.608 117.629 42.112 117.565 41.28C117.501 40.416 117.437 39.776 117.373 39.36C117.053 37.568 116.013 36.304 114.253 35.568C112.493 34.832 110.525 34.464 108.349 34.464C104.765 34.464 101.757 35.36 99.3254 37.152C96.9254 38.944 95.1334 41.248 93.9494 44.064C92.7974 46.848 92.2214 49.792 92.2214 52.896C92.2214 56.512 93.0534 59.328 94.7174 61.344C96.3814 63.36 98.8934 64.368 102.253 64.368C104.525 64.368 106.525 63.92 108.253 63.024C110.013 62.128 111.373 60.912 112.333 59.376C113.293 57.808 113.773 56.096 113.773 54.24C113.773 53.28 113.629 52.656 113.341 52.368C113.053 52.048 112.557 51.888 111.853 51.888C110.317 51.888 108.141 52.096 105.325 52.512C105.325 52.128 105.373 51.648 105.469 51.072C105.565 50.496 105.677 50.08 105.805 49.824Z" fill="white"/>
<path d="M26.0703 52.032L25.7776 52.9882L26.0901 53.0839L26.3988 52.9765L26.0703 52.032ZM22.1823 49.296L21.3711 49.8808L21.3789 49.8915L21.3869 49.902L22.1823 49.296ZM22.8543 37.296L23.6495 37.9025L23.6543 37.896L22.8543 37.296ZM28.8063 32.88L29.1817 33.8068L29.1817 33.8068L28.8063 32.88ZM41.8623 31.68L41.7086 32.6681L41.7208 32.67L41.733 32.6716L41.8623 31.68ZM46.9503 32.544L46.7542 33.5246L46.7594 33.5256L46.9503 32.544ZM50.4063 33.168L50.2419 34.1544L50.2553 34.1566L50.2687 34.1585L50.4063 33.168ZM57.2223 32.736L57.5848 33.668L57.5914 33.6654L57.598 33.6627L57.2223 32.736ZM60.1023 30.48L61.1006 30.5379L61.2999 27.1004L59.2903 29.8964L60.1023 30.48ZM57.8943 35.712L58.5748 36.4448L58.584 36.4361L57.8943 35.712ZM47.9583 37.056L47.6952 38.0208L47.708 38.0242L47.7209 38.0274L47.9583 37.056ZM42.3903 35.376L42.06 36.3199L42.0729 36.3244L42.086 36.3286L42.3903 35.376ZM37.5423 33.888L37.2832 34.8538L37.2942 34.8568L37.3054 34.8595L37.5423 33.888ZM29.1903 34.752L29.7773 35.5616L29.7773 35.5616L29.1903 34.752ZM26.2623 38.4L25.3493 37.992L25.3452 38.0013L26.2623 38.4ZM26.6463 47.952L25.8205 48.516L25.8251 48.5228L25.8299 48.5295L26.6463 47.952ZM31.1103 51.408L31.8912 52.0327L32.6739 51.0542L31.5462 50.508L31.1103 51.408ZM30.9183 51.648V52.648H31.3989L31.6992 52.2727L30.9183 51.648ZM20.5023 66.288L20.7272 65.3136L20.7152 65.3109L20.7033 65.3084L20.5023 66.288ZM17.4303 65.376L16.462 65.6259L16.5833 66.0958L17.0276 66.2913L17.4303 65.376ZM17.0463 62.064L16.1684 61.5851L16.0463 61.809V62.064H17.0463ZM17.3343 61.536L18.0671 60.8555L17.1217 59.8374L16.4564 61.0571L17.3343 61.536ZM35.2863 53.856L34.3125 53.6286L34.3119 53.6314L35.2863 53.856ZM38.6943 39.648L37.8908 39.0528L37.7731 39.2116L37.7247 39.4032L38.6943 39.648ZM40.9983 37.344L41.5983 38.144L41.6027 38.1407L40.9983 37.344ZM43.5423 35.808L43.8585 34.8593L43.5033 34.7409L43.1577 34.8849L43.5423 35.808ZM43.9743 35.952L44.8781 36.3801L45.3612 35.3602L44.2905 35.0033L43.9743 35.952ZM42.3903 40.8L43.3623 41.0352L43.3631 41.0316L42.3903 40.8ZM40.5183 49.344L39.5391 49.1414L39.5366 49.1532L39.5344 49.1651L40.5183 49.344ZM39.6063 53.712L40.5773 53.9513L40.58 53.9399L39.6063 53.712ZM33.9423 63.648L34.5576 64.4363L34.5589 64.4353L33.9423 63.648ZM26.363 51.0758C25.0015 50.659 23.8791 49.8729 22.9777 48.69L21.3869 49.902C22.5336 51.4071 24.0031 52.445 25.7776 52.9882L26.363 51.0758ZM22.9935 48.7112C22.155 47.5481 21.6943 45.9935 21.6943 43.968H19.6943C19.6943 46.2945 20.2257 48.2919 21.3711 49.8808L22.9935 48.7112ZM21.6943 43.968C21.6943 41.6089 22.353 39.6023 23.6494 37.9024L22.0592 36.6895C20.4757 38.7657 19.6943 41.2071 19.6943 43.968H21.6943ZM23.6543 37.896C24.9709 36.1406 26.7989 34.7721 29.1817 33.8068L28.4309 31.9531C25.7578 33.0359 23.6177 34.6114 22.0543 36.696L23.6543 37.896ZM29.1817 33.8068C31.5717 32.8388 34.3051 32.344 37.3983 32.344V30.344C34.0916 30.344 31.0969 30.8732 28.4309 31.9531L29.1817 33.8068ZM37.3983 32.344C38.8856 32.344 40.3221 32.4524 41.7086 32.6681L42.016 30.6919C40.5225 30.4596 38.983 30.344 37.3983 30.344V32.344ZM41.733 32.6716C43.1769 32.8599 44.8498 33.1437 46.7542 33.5246L47.1464 31.5634C45.2108 31.1763 43.4918 30.8841 41.9917 30.6884L41.733 32.6716ZM46.7594 33.5256C47.9202 33.7513 49.081 33.9609 50.2419 34.1544L50.5707 32.1816C49.4276 31.9911 48.2844 31.7847 47.1412 31.5624L46.7594 33.5256ZM50.2687 34.1585C51.4499 34.3225 52.4902 34.408 53.3823 34.408V32.408C52.6104 32.408 51.6667 32.3335 50.5439 32.1775L50.2687 34.1585ZM53.3823 34.408C54.8972 34.408 56.3023 34.1667 57.5848 33.668L56.8599 31.804C55.8383 32.2013 54.6834 32.408 53.3823 32.408V34.408ZM57.598 33.6627C58.9545 33.1128 60.0667 32.243 60.9143 31.0636L59.2903 29.8964C58.666 30.765 57.8581 31.3992 56.8466 31.8093L57.598 33.6627ZM59.104 30.4221C58.9877 32.4285 58.3308 33.9154 57.2047 34.9879L58.584 36.4361C60.1459 34.9486 60.9609 32.9475 61.1006 30.5379L59.104 30.4221ZM57.2139 34.9792C56.1085 36.0056 54.4941 36.584 52.2303 36.584V38.584C54.8305 38.584 56.9922 37.9144 58.5748 36.4448L57.2139 34.9792ZM52.2303 36.584C50.9064 36.584 49.5621 36.4186 48.1958 36.0846L47.7209 38.0274C49.2345 38.3974 50.7382 38.584 52.2303 38.584V36.584ZM48.2214 36.0912C46.8332 35.7126 44.9926 35.1575 42.6946 34.4234L42.086 36.3286C44.3961 37.0665 46.2674 37.6314 47.6952 38.0208L48.2214 36.0912ZM42.7207 34.4321C40.7837 33.7542 39.1343 33.247 37.7793 32.9165L37.3054 34.8595C38.5743 35.169 40.157 35.6538 42.06 36.3199L42.7207 34.4321ZM37.8014 32.9222C36.4196 32.5514 35.0998 32.36 33.8463 32.36V34.36C34.8968 34.36 36.041 34.5206 37.2832 34.8538L37.8014 32.9222ZM33.8463 32.36C31.8451 32.36 30.0794 32.8723 28.6033 33.9424L29.7773 35.5616C30.8613 34.7757 32.1996 34.36 33.8463 34.36V32.36ZM28.6033 33.9424C27.1752 34.9778 26.0897 36.3349 25.3493 37.9921L27.1753 38.8079C27.7789 37.4571 28.6454 36.3822 29.7773 35.5616L28.6033 33.9424ZM25.3452 38.0013C24.6475 39.6061 24.3023 41.3267 24.3023 43.152H26.3023C26.3023 41.5853 26.5972 40.1379 27.1794 38.7987L25.3452 38.0013ZM24.3023 43.152C24.3023 45.2025 24.791 47.0085 25.8205 48.516L27.4721 47.388C26.7096 46.2715 26.3023 44.8774 26.3023 43.152H24.3023ZM25.8299 48.5295C26.8876 50.0249 28.534 51.2712 30.6744 52.308L31.5462 50.508C29.5907 49.5608 28.261 48.5031 27.4627 47.3745L25.8299 48.5295ZM30.3294 50.7833L30.1374 51.0233L31.6992 52.2727L31.8912 52.0327L30.3294 50.7833ZM30.9183 50.648C29.6564 50.648 28.5996 50.6802 27.7554 50.7471C26.9332 50.8122 26.2376 50.9151 25.7418 51.0875L26.3988 52.9765C26.6391 52.8929 27.1194 52.8038 27.9133 52.7409C28.685 52.6797 29.6843 52.648 30.9183 52.648V50.648ZM24.5343 65.72C23.1608 65.72 21.893 65.5826 20.7272 65.3136L20.2775 67.2624C21.6077 67.5694 23.0278 67.72 24.5343 67.72V65.72ZM20.7033 65.3084C19.4961 65.0608 18.5462 64.7745 17.8331 64.4607L17.0276 66.2913C17.9144 66.6815 19.0125 67.0032 20.3014 67.2676L20.7033 65.3084ZM18.3986 65.1261C18.1671 64.2293 18.0463 63.2109 18.0463 62.064H16.0463C16.0463 63.3491 16.1815 64.5387 16.462 65.6259L18.3986 65.1261ZM17.9242 62.5429L18.2122 62.0149L16.4564 61.0571L16.1684 61.5851L17.9242 62.5429ZM16.6015 62.2165C18.8577 64.6462 21.5976 65.896 24.7743 65.896V63.896C22.191 63.896 19.9709 62.9058 18.0671 60.8555L16.6015 62.2165ZM24.7743 65.896C27.6901 65.896 30.1604 64.8737 32.1105 62.8256C34.0321 60.8075 35.3908 57.8561 36.2608 54.0805L34.3119 53.6314C33.4859 57.2159 32.2445 59.7845 30.6621 61.4464C29.1083 63.0783 27.1705 63.896 24.7743 63.896V65.896ZM36.2601 54.0834C37.7318 47.7807 38.8661 43.0518 39.6639 39.8928L37.7247 39.4032C36.9225 42.5802 35.7848 47.3233 34.3125 53.6286L36.2601 54.0834ZM39.4979 40.2432C40.0779 39.4602 40.7765 38.7604 41.5983 38.144L40.3983 36.544C39.4282 37.2716 38.5907 38.1078 37.8908 39.0528L39.4979 40.2432ZM41.6027 38.1407C42.4878 37.4692 43.2615 37.0084 43.9269 36.7311L43.1577 34.8849C42.2872 35.2476 41.3648 35.8108 40.3939 36.5473L41.6027 38.1407ZM43.2261 36.7567L43.6581 36.9007L44.2905 35.0033L43.8585 34.8593L43.2261 36.7567ZM43.0706 35.5239C42.4534 36.8269 41.906 38.5168 41.4175 40.5684L43.3631 41.0316C43.8346 39.0512 44.3433 37.5091 44.8781 36.3801L43.0706 35.5239ZM41.4184 40.5648C40.9344 42.5652 40.3078 45.426 39.5391 49.1414L41.4976 49.5466C42.2649 45.838 42.8862 43.0028 43.3623 41.0351L41.4184 40.5648ZM39.5344 49.1651C39.2817 50.5555 38.9811 51.9951 38.6326 53.4841L40.58 53.9399C40.9355 52.4209 41.243 50.9485 41.5022 49.5229L39.5344 49.1651ZM38.6354 53.4727C37.5485 57.8823 35.7486 60.9633 33.3257 62.8607L34.5589 64.4353C37.448 62.1727 39.4241 58.6297 40.5773 53.9513L38.6354 53.4727ZM33.327 62.8597C30.8959 64.7572 27.9821 65.72 24.5343 65.72V67.72C28.3826 67.72 31.7407 66.6348 34.5576 64.4363L33.327 62.8597ZM72.4709 48.144L72.2406 47.1709L72.3113 49.1312L72.4709 48.144ZM77.9909 50.592L77.3428 51.3535L77.3515 51.3609L77.3603 51.3681L77.9909 50.592ZM78.3749 61.68L77.5881 61.0629L77.5881 61.0629L78.3749 61.68ZM73.1429 65.472L72.7669 64.5454L72.7669 64.5454L73.1429 65.472ZM61.5269 66.384L61.3174 67.3618L61.3221 67.3628L61.5269 66.384ZM58.0229 65.28L58.4345 64.3686L57.6614 64.0195L57.1909 64.7253L58.0229 65.28ZM53.9429 66.048L53.8325 67.0419L53.8383 67.0425L53.9429 66.048ZM52.5989 65.76L51.7736 65.1953L51.0691 66.2251L52.2275 66.6885L52.5989 65.76ZM53.4629 64.128L54.4116 64.4442L54.4116 64.4442L53.4629 64.128ZM54.0869 61.872L55.0571 62.1145L55.0593 62.1054L54.0869 61.872ZM57.4949 46.368L56.5165 46.1615L56.5157 46.1652L57.4949 46.368ZM59.2709 34.704L58.7564 35.5615L58.7564 35.5615L59.2709 34.704ZM54.9509 34.896L55.0656 35.8894L55.0835 35.8873L55.1014 35.8846L54.9509 34.896ZM50.6789 32.976L49.7154 32.7084L49.7154 32.7084L50.6789 32.976ZM51.1589 31.728L51.6061 30.8336L50.7929 30.4269L50.3109 31.198L51.1589 31.728ZM51.5909 32.016L51.0097 32.8297L51.0735 32.8753L51.1437 32.9104L51.5909 32.016ZM52.6949 32.304L52.5628 33.2953L52.5709 33.2963L52.6949 32.304ZM76.5509 34.512L76.0869 35.3978L76.0869 35.3978L76.5509 34.512ZM72.9029 62.016L73.5807 62.7514L73.5883 62.7442L72.9029 62.016ZM73.8149 51.312L73.131 52.0415L73.131 52.0415L73.8149 51.312ZM65.1749 50.064L64.4678 50.7711L64.8137 51.1169L65.299 51.0563L65.1749 50.064ZM64.5029 49.056L65.4109 48.6369L65.4109 48.6369L64.5029 49.056ZM64.5029 46.992L64.627 45.9997L64.3265 45.9622L64.0557 46.0976L64.5029 46.992ZM65.9909 47.136L65.9043 48.1322L65.9268 48.1342L65.9493 48.1351L65.9909 47.136ZM73.6229 35.904L73.0547 36.7269L73.0615 36.7315L73.0682 36.736L73.6229 35.904ZM65.2229 34.896L65.6037 35.8207L65.6165 35.8154L65.6291 35.8098L65.2229 34.896ZM63.9269 36.24L63.0241 35.8101L63.0156 35.8279L63.0078 35.8461L63.9269 36.24ZM63.0629 39.408L62.0824 39.2119L62.0822 39.2124L63.0629 39.408ZM58.7429 62.256L57.7557 62.0965L57.6575 62.7046L58.1564 63.0659L58.7429 62.256ZM72.3113 49.1312C74.3284 49.4575 75.9937 50.2053 77.3428 51.3535L78.6391 49.8305C76.9802 48.4187 74.9655 47.5345 72.6306 47.1568L72.3113 49.1312ZM77.3603 51.3681C78.6161 52.3884 79.2949 53.8835 79.2949 56.016H81.2949C81.2949 53.4125 80.4378 51.2916 78.6215 49.8159L77.3603 51.3681ZM79.2949 56.016C79.2949 57.9444 78.725 59.6132 77.5881 61.0629L79.1618 62.2971C80.5848 60.4828 81.2949 58.3756 81.2949 56.016H79.2949ZM77.5881 61.0629C76.4309 62.5383 74.8377 63.7051 72.7669 64.5454L73.519 66.3986C75.8642 65.4469 77.759 64.0857 79.1618 62.2971L77.5881 61.0629ZM72.7669 64.5454C70.6913 65.3877 68.3888 65.816 65.8469 65.816V67.816C68.6171 67.816 71.1786 67.3483 73.519 66.3986L72.7669 64.5454ZM65.8469 65.816C64.407 65.816 63.0359 65.6782 61.7318 65.4052L61.3221 67.3628C62.77 67.6658 64.2789 67.816 65.8469 67.816V65.816ZM61.7365 65.4062C60.4448 65.1294 59.3474 64.7809 58.4345 64.3686L57.6114 66.1914C58.6824 66.6751 59.9211 67.0626 61.3174 67.3618L61.7365 65.4062ZM57.1909 64.7253C57.0976 64.8652 56.7544 65.144 55.6229 65.144V67.144C56.9235 67.144 58.1803 66.8468 58.855 65.8347L57.1909 64.7253ZM55.6229 65.144C55.1518 65.144 54.6273 65.1145 54.0476 65.0535L53.8383 67.0425C54.4746 67.1095 55.07 67.144 55.6229 67.144V65.144ZM54.0534 65.0541C53.5149 64.9943 53.1691 64.911 52.9703 64.8315L52.2275 66.6885C52.6688 66.865 53.2189 66.9737 53.8325 67.0419L54.0534 65.0541ZM53.4242 66.3247C53.8711 65.6716 54.2122 65.0425 54.4116 64.4442L52.5143 63.8118C52.3937 64.1735 52.1588 64.6324 51.7736 65.1953L53.4242 66.3247ZM54.4116 64.4442C54.5844 63.9258 54.8 63.1428 55.0571 62.1145L53.1168 61.6295C52.8619 62.6492 52.6615 63.3702 52.5143 63.8118L54.4116 64.4442ZM55.0593 62.1054C56.0227 58.0912 57.1611 52.9119 58.4742 46.5708L56.5157 46.1652C55.2048 52.4961 54.0711 57.6528 53.1146 61.6386L55.0593 62.1054ZM58.4734 46.5745C59.1461 43.387 59.6523 40.8648 59.9907 39.0116C60.3212 37.2016 60.5109 35.9342 60.5109 35.328H58.5109C58.5109 35.7138 58.3647 36.7824 58.0232 38.6524C57.6896 40.4792 57.1878 42.9809 56.5165 46.1615L58.4734 46.5745ZM60.5109 35.328C60.5109 34.9123 60.415 34.2243 59.7854 33.8465L58.7564 35.5615C58.6099 35.4736 58.5416 35.3533 58.5176 35.291C58.4988 35.2421 58.5109 35.2417 58.5109 35.328H60.5109ZM59.7854 33.8465C59.3692 33.5968 58.8316 33.56 58.4069 33.56V35.56C58.581 35.56 58.6983 35.5704 58.7705 35.5824C58.7874 35.5852 58.8 35.5878 58.8087 35.5899C58.8175 35.5919 58.8213 35.5932 58.8209 35.593C58.8206 35.5929 58.8146 35.591 58.8041 35.5864C58.7937 35.5818 58.7772 35.5739 58.7564 35.5615L59.7854 33.8465ZM58.4069 33.56C57.5 33.56 56.29 33.6807 54.8005 33.9074L55.1014 35.8846C56.5559 35.6633 57.6499 35.56 58.4069 35.56V33.56ZM54.8363 33.9026C53.1506 34.0971 52.1763 34.184 51.8309 34.184V36.184C52.3175 36.184 53.4232 36.0789 55.0656 35.8894L54.8363 33.9026ZM51.8309 34.184C51.632 34.184 51.4867 34.1705 51.3858 34.1521C51.2814 34.1332 51.2547 34.1144 51.2711 34.1238L50.2788 35.8602C50.735 36.1209 51.3033 36.184 51.8309 36.184V34.184ZM51.2711 34.1238C51.3022 34.1416 51.3358 34.1671 51.3664 34.2007C51.3969 34.2341 51.417 34.2671 51.4291 34.2931C51.4517 34.3416 51.4389 34.3477 51.4389 34.272H49.4389C49.4389 34.835 49.6332 35.4913 50.2788 35.8602L51.2711 34.1238ZM51.4389 34.272C51.4389 34.1273 51.4865 33.805 51.6425 33.2436L49.7154 32.7084C49.5514 33.299 49.4389 33.8407 49.4389 34.272H51.4389ZM51.6425 33.2436C51.7967 32.6883 51.9262 32.3871 52.0069 32.258L50.3109 31.198C50.0716 31.5809 49.8811 32.1117 49.7154 32.7084L51.6425 33.2436ZM50.7117 32.6224C50.6896 32.6113 50.6821 32.6059 50.6978 32.6157C50.7103 32.6233 50.7305 32.6362 50.7602 32.656C50.8197 32.6957 50.902 32.7528 51.0097 32.8297L52.1722 31.2023C51.9705 31.0582 51.7558 30.9084 51.6061 30.8336L50.7117 32.6224ZM51.1437 32.9104C51.5439 33.1105 52.038 33.2253 52.5628 33.2952L52.8271 31.3128C52.3919 31.2547 52.15 31.1775 52.0381 31.1216L51.1437 32.9104ZM52.5709 33.2963C53.1411 33.3676 53.8593 33.4 54.7109 33.4V31.4C53.8986 31.4 53.2727 31.3684 52.819 31.3117L52.5709 33.2963ZM54.7109 33.4H65.7989V31.4H54.7109V33.4ZM65.7989 33.4C70.1885 33.4 73.5941 34.0921 76.0869 35.3978L77.0149 33.6262C74.1318 32.1159 70.3694 31.4 65.7989 31.4V33.4ZM76.0869 35.3978C77.3158 36.0415 78.18 36.801 78.7389 37.6527C79.2936 38.4979 79.5829 39.4872 79.5829 40.656H81.5829C81.5829 39.1368 81.2003 37.7581 80.411 36.5553C79.6259 35.359 78.4741 34.3905 77.0149 33.6262L76.0869 35.3978ZM79.5829 40.656C79.5829 42.2357 79.0215 43.5204 77.8767 44.5772C76.6995 45.6638 74.856 46.5519 72.2406 47.1709L72.7013 49.1171C75.4939 48.4561 77.7064 47.4561 79.2332 46.0468C80.7923 44.6076 81.5829 42.7883 81.5829 40.656H79.5829ZM65.6549 65.272C68.996 65.272 71.6965 64.4877 73.5806 62.7514L72.2253 61.2806C70.8454 62.5523 68.7138 63.272 65.6549 63.272V65.272ZM73.5883 62.7442C75.4556 60.9867 76.3509 58.6244 76.3509 55.776H74.3509C74.3509 58.1756 73.6143 59.9733 72.2176 61.2878L73.5883 62.7442ZM76.3509 55.776C76.3509 53.606 75.7992 51.8015 74.4989 50.5825L73.131 52.0415C73.8787 52.7425 74.3509 53.914 74.3509 55.776H76.3509ZM74.4989 50.5825C73.2058 49.3702 71.2685 48.872 68.9189 48.872V50.872C71.0493 50.872 72.3761 51.3338 73.131 52.0415L74.4989 50.5825ZM68.9189 48.872C67.4214 48.872 66.1293 48.9369 65.0509 49.0717L65.299 51.0563C66.2686 50.9351 67.4725 50.872 68.9189 50.872V48.872ZM65.882 49.3569C65.7283 49.2032 65.566 48.973 65.4109 48.6369L63.595 49.4751C63.8239 49.971 64.1096 50.4128 64.4678 50.7711L65.882 49.3569ZM65.4109 48.6369C65.2781 48.3492 65.2149 48.06 65.2149 47.76H63.2149C63.2149 48.356 63.3438 48.9307 63.595 49.4751L65.4109 48.6369ZM65.2149 47.76C65.2149 47.6932 65.2189 47.6475 65.2229 47.6194C65.227 47.5907 65.2299 47.5894 65.2233 47.6071C65.2164 47.6253 65.1964 47.6716 65.1509 47.7272C65.103 47.7858 65.0357 47.8437 64.9502 47.8864L64.0557 46.0976C63.2965 46.4772 63.2149 47.3166 63.2149 47.76H65.2149ZM64.3789 47.9843C64.6565 48.019 65.1708 48.0685 65.9043 48.1322L66.0776 46.1398C65.3391 46.0755 64.8614 46.029 64.627 45.9997L64.3789 47.9843ZM65.9493 48.1351C66.7229 48.1674 67.3467 48.184 67.8149 48.184V46.184C67.3872 46.184 66.795 46.1686 66.0326 46.1369L65.9493 48.1351ZM67.8149 48.184C69.4005 48.184 70.871 47.848 72.2077 47.1616L71.2941 45.3824C70.2628 45.912 69.1094 46.184 67.8149 46.184V48.184ZM72.2077 47.1616C73.543 46.4759 74.6208 45.5103 75.4225 44.2713L73.7434 43.1847C73.1371 44.1217 72.3268 44.8521 71.2941 45.3824L72.2077 47.1616ZM75.4225 44.2713C76.2378 43.0112 76.6389 41.5883 76.6389 40.032H74.6389C74.6389 41.2277 74.3361 42.2688 73.7434 43.1847L75.4225 44.2713ZM76.6389 40.032C76.6389 37.8997 75.8449 36.1834 74.1776 35.0719L73.0682 36.736C74.089 37.4166 74.6389 38.4523 74.6389 40.032H76.6389ZM74.1911 35.0811C72.6098 33.9893 70.4233 33.512 67.7669 33.512V35.512C70.2305 35.512 71.948 35.9627 73.0547 36.7269L74.1911 35.0811ZM67.7669 33.512C66.5991 33.512 65.5842 33.6411 64.8168 33.9822L65.6291 35.8098C66.0137 35.6389 66.6948 35.512 67.7669 35.512V33.512ZM64.8422 33.9713C64.0127 34.3129 63.4214 34.9757 63.0241 35.8101L64.8298 36.6699C65.0725 36.1603 65.3451 35.9271 65.6037 35.8207L64.8422 33.9713ZM63.0078 35.8461C62.6772 36.6175 62.3732 37.7575 62.0824 39.2119L64.0435 39.6041C64.3287 38.1785 64.6007 37.2065 64.8461 36.6339L63.0078 35.8461ZM62.0822 39.2124C59.8745 50.283 58.4311 57.9159 57.7557 62.0965L59.7301 62.4155C60.3988 58.276 61.8353 50.677 64.0436 39.6036L62.0822 39.2124ZM58.1564 63.0659C60.2151 64.5567 62.7356 65.272 65.6549 65.272V63.272C63.0702 63.272 60.9828 62.6433 59.3294 61.4461L58.1564 63.0659ZM105.805 49.824V48.824H105.187L104.911 49.3768L105.805 49.824ZM119.965 48.624L120.86 48.1768L120.469 47.3946L119.641 47.6779L119.965 48.624ZM120.205 49.68L121.192 49.5156L121.192 49.5156L120.205 49.68ZM120.349 50.928L120.6 51.896L121.349 51.7018V50.928H120.349ZM118.621 51.696L117.914 50.9889L117.914 50.9889L118.621 51.696ZM117.997 53.136L117.022 52.9144L117.021 52.9215L117.997 53.136ZM114.493 67.104L113.535 66.8196L113.532 66.8293L114.493 67.104ZM110.365 76.848L111.215 77.3757L111.216 77.3744L110.365 76.848ZM104.605 82.944L103.994 82.1525L103.994 82.1525L104.605 82.944ZM90.6854 85.344L90.9704 84.3855L90.9584 84.3819L90.9463 84.3786L90.6854 85.344ZM87.9014 84.144L88.4827 83.3303L88.4696 83.3209L88.4561 83.312L87.9014 84.144ZM86.6054 82.944L85.711 83.3912L85.719 83.4072L85.7275 83.4229L86.6054 82.944ZM86.0294 81.792L86.5744 80.9536L83.4896 78.9484L85.135 82.2392L86.0294 81.792ZM89.4374 82.896L89.245 83.8773L89.245 83.8773L89.4374 82.896ZM105.373 78.144L104.619 77.4874L104.613 77.4949L105.373 78.144ZM112.285 62.4L113.261 62.6216L111.521 61.7551L112.285 62.4ZM94.2854 65.424L93.8274 66.313L93.8382 66.3184L94.2854 65.424ZM89.3414 60.624L88.466 61.1074L88.4692 61.113L89.3414 60.624ZM90.2534 42.384L89.3825 41.8925L89.3809 41.8954L90.2534 42.384ZM97.7894 34.656L98.3039 35.5135L98.3039 35.5135L97.7894 34.656ZM115.357 32.736L115.075 33.6954L115.075 33.6954L115.357 32.736ZM120.733 35.328L121.673 35.6697L121.923 34.9833L121.345 34.5367L120.733 35.328ZM118.957 42.528V43.528H119.815L119.946 42.6809L118.957 42.528ZM118.237 42.624L118.361 43.6163L118.408 43.6104L118.454 43.6002L118.237 42.624ZM117.661 42.768H116.661V44.386L118.109 43.6624L117.661 42.768ZM117.565 41.28L116.568 41.3539L116.568 41.3567L117.565 41.28ZM117.373 39.36L118.362 39.2079L118.36 39.1961L118.358 39.1842L117.373 39.36ZM99.3254 37.152L98.7322 36.3469L98.7271 36.3507L99.3254 37.152ZM93.9494 44.064L93.0276 43.6764L93.0254 43.6816L93.9494 44.064ZM94.7174 61.344L95.4887 60.7074L95.4887 60.7074L94.7174 61.344ZM108.253 63.024L107.8 62.1328L107.793 62.1362L108.253 63.024ZM112.333 59.376L113.181 59.906L113.186 59.8982L112.333 59.376ZM113.341 52.368L112.598 53.037L112.616 53.0565L112.634 53.0751L113.341 52.368ZM105.325 52.512H104.325V53.6706L105.472 53.5013L105.325 52.512ZM105.805 50.824C109.373 50.824 112.36 50.7237 114.758 50.5204C117.139 50.3186 119.002 50.0108 120.289 49.5701L119.641 47.6779C118.592 48.0372 116.927 48.3294 114.589 48.5276C112.267 48.7243 109.342 48.824 105.805 48.824V50.824ZM119.071 49.0712C119.049 49.0275 119.047 49.0101 119.059 49.0494C119.068 49.0805 119.081 49.131 119.098 49.2056C119.132 49.3548 119.173 49.5655 119.219 49.8444L121.192 49.5156C121.142 49.2185 121.095 48.9652 121.049 48.7624C121.01 48.5912 120.952 48.3615 120.86 48.1768L119.071 49.0712ZM119.219 49.8444C119.314 50.417 119.349 50.7619 119.349 50.928H121.349C121.349 50.5821 121.288 50.095 121.192 49.5156L119.219 49.8444ZM120.098 49.96C119.222 50.1871 118.409 50.4944 117.914 50.9889L119.329 52.4031C119.41 52.3216 119.749 52.1169 120.6 51.896L120.098 49.96ZM117.914 50.9889C117.447 51.4563 117.19 52.177 117.022 52.9144L118.973 53.3576C119.125 52.687 119.284 52.4477 119.329 52.4031L117.914 50.9889ZM117.021 52.9215C115.808 58.4432 114.646 63.0742 113.535 66.8196L115.452 67.3884C116.581 63.5818 117.755 58.9008 118.974 53.3505L117.021 52.9215ZM113.532 66.8293C112.463 70.57 111.12 73.7288 109.515 76.3216L111.216 77.3744C112.939 74.5912 114.348 71.254 115.455 67.3787L113.532 66.8293ZM109.516 76.3203C108.282 78.3066 106.453 80.2537 103.994 82.1525L105.217 83.7355C107.814 81.7303 109.825 79.6134 111.215 77.3757L109.516 76.3203ZM103.994 82.1525C101.682 83.9383 98.6491 84.872 94.8134 84.872V86.872C98.9778 86.872 102.473 85.8537 105.217 83.7355L103.994 82.1525ZM94.8134 84.872C93.3173 84.872 92.0409 84.7037 90.9704 84.3855L90.4005 86.3025C91.6979 86.6883 93.1736 86.872 94.8134 86.872V84.872ZM90.9463 84.3786C89.8269 84.0761 89.0228 83.7161 88.4827 83.3303L87.3202 84.9577C88.124 85.5319 89.176 85.9719 90.4245 86.3094L90.9463 84.3786ZM88.4561 83.312C87.8085 82.8802 87.5526 82.5921 87.4833 82.4651L85.7275 83.4229C86.0423 83.9999 86.6503 84.5118 87.3467 84.9761L88.4561 83.312ZM87.4999 82.4968L86.9239 81.3448L85.135 82.2392L85.711 83.3912L87.4999 82.4968ZM85.4844 82.6304C86.2982 83.1594 87.6006 83.5549 89.245 83.8773L89.6299 81.9147C88.0102 81.5971 87.0406 81.2566 86.5744 80.9536L85.4844 82.6304ZM89.245 83.8773C90.9324 84.2082 92.5492 84.376 94.0934 84.376V82.376C92.6937 82.376 91.2065 82.2238 89.6299 81.9147L89.245 83.8773ZM94.0934 84.376C98.9332 84.376 102.97 82.5014 106.134 78.7931L104.613 77.4949C101.825 80.7626 98.3417 82.376 94.0934 82.376V84.376ZM106.128 78.8005C109.289 75.1683 111.643 69.739 113.261 62.6216L111.31 62.1784C109.728 69.141 107.474 74.2077 104.619 77.4875L106.128 78.8005ZM111.521 61.7551C109.147 64.5692 105.86 66.008 101.533 66.008V68.008C106.358 68.008 110.24 66.3748 113.05 63.0449L111.521 61.7551ZM101.533 66.008C98.9451 66.008 96.6861 65.5063 94.7327 64.5296L93.8382 66.3184C96.1088 67.4537 98.6818 68.008 101.533 68.008V66.008ZM94.7434 64.535C92.8092 63.5386 91.3038 62.0794 90.2137 60.135L88.4692 61.113C89.7471 63.3926 91.5376 65.1334 93.8275 66.313L94.7434 64.535ZM90.2168 60.1406C89.132 58.1762 88.5654 55.7592 88.5654 52.848H86.5654C86.5654 56.0168 87.1828 58.7838 88.4661 61.1074L90.2168 60.1406ZM88.5654 52.848C88.5654 49.2378 89.4201 45.9188 91.1259 42.8726L89.3809 41.8954C87.5028 45.2492 86.5654 48.9062 86.5654 52.848H88.5654ZM91.1243 42.8755C92.8627 39.7952 95.2515 37.3449 98.3039 35.5135L97.2749 33.7985C93.9273 35.8071 91.2922 38.5088 89.3826 41.8925L91.1243 42.8755ZM98.3039 35.5135C101.336 33.6942 104.772 32.776 108.637 32.776V30.776C104.439 30.776 100.643 31.7778 97.2749 33.7985L98.3039 35.5135ZM108.637 32.776C110.847 32.776 112.992 33.0827 115.075 33.6954L115.64 31.7766C113.371 31.1093 111.035 30.776 108.637 30.776V32.776ZM115.075 33.6954C117.163 34.3095 118.835 35.125 120.122 36.1193L121.345 34.5367C119.816 33.355 117.904 32.4425 115.64 31.7766L115.075 33.6954ZM119.794 34.9863C118.999 37.1706 118.393 39.6356 117.969 42.3751L119.946 42.6809C120.354 40.0444 120.932 37.7094 121.673 35.6697L119.794 34.9863ZM118.957 41.528C118.665 41.528 118.346 41.5755 118.021 41.6478L118.454 43.6002C118.705 43.5445 118.866 43.528 118.957 43.528V41.528ZM118.113 41.6317C117.82 41.6684 117.494 41.7335 117.214 41.8736L118.109 43.6624C118.088 43.6728 118.094 43.6666 118.144 43.6541C118.191 43.6423 118.262 43.6287 118.361 43.6163L118.113 41.6317ZM118.661 42.768C118.661 42.5594 118.625 42.0144 118.562 41.2033L116.568 41.3567C116.634 42.2096 116.661 42.6566 116.661 42.768H118.661ZM118.563 41.2061C118.498 40.3372 118.432 39.6647 118.362 39.2079L116.385 39.5121C116.443 39.8873 116.505 40.4948 116.568 41.3539L118.563 41.2061ZM118.358 39.1842C117.975 37.0389 116.695 35.5049 114.639 34.6454L113.868 36.4906C115.332 37.1031 116.132 38.0971 116.389 39.5358L118.358 39.1842ZM114.639 34.6454C112.741 33.8516 110.639 33.464 108.349 33.464V35.464C110.411 35.464 112.246 35.8124 113.868 36.4906L114.639 34.6454ZM108.349 33.464C104.593 33.464 101.366 34.406 98.7322 36.3469L99.9186 37.9571C102.148 36.314 104.938 35.464 108.349 35.464V33.464ZM98.7271 36.3507C96.1814 38.2515 94.2792 40.6996 93.0276 43.6764L94.8713 44.4516C95.9876 41.7964 97.6695 39.6365 99.9237 37.9533L98.7271 36.3507ZM93.0254 43.6816C91.8217 46.5906 91.2214 49.6649 91.2214 52.896H93.2214C93.2214 49.9191 93.7731 47.1054 94.8735 44.4464L93.0254 43.6816ZM91.2214 52.896C91.2214 56.656 92.0865 59.7274 93.9462 61.9806L95.4887 60.7074C94.0204 58.9286 93.2214 56.368 93.2214 52.896H91.2214ZM93.9462 61.9806C95.8519 64.2893 98.687 65.368 102.253 65.368V63.368C99.0999 63.368 96.911 62.4307 95.4887 60.7074L93.9462 61.9806ZM102.253 65.368C104.659 65.368 106.821 64.8929 108.714 63.9118L107.793 62.1362C106.229 62.9471 104.392 63.368 102.253 63.368V65.368ZM108.707 63.9152C110.614 62.9445 112.117 61.6097 113.181 59.906L111.485 58.846C110.63 60.2143 109.413 61.3115 107.8 62.1328L108.707 63.9152ZM113.186 59.8982C114.243 58.1714 114.773 56.2784 114.773 54.24H112.773C112.773 55.9136 112.343 57.4446 111.481 58.8538L113.186 59.8982ZM114.773 54.24C114.773 53.7179 114.735 53.2396 114.64 52.8271C114.548 52.4282 114.381 51.9929 114.049 51.6609L112.634 53.0751C112.59 53.0311 112.639 53.0518 112.691 53.2769C112.74 53.4884 112.773 53.8021 112.773 54.24H114.773ZM114.085 51.699C113.515 51.0664 112.666 50.888 111.853 50.888V52.888C112.448 52.888 112.591 53.0296 112.598 53.037L114.085 51.699ZM111.853 50.888C110.244 50.888 108.01 51.1045 105.179 51.5227L105.472 53.5013C108.273 53.0875 110.391 52.888 111.853 52.888V50.888ZM106.325 52.512C106.325 52.2036 106.365 51.783 106.456 51.2364L104.483 50.9076C104.382 51.513 104.325 52.0524 104.325 52.512H106.325ZM106.456 51.2364C106.549 50.6787 106.642 50.3867 106.7 50.2712L104.911 49.3768C104.713 49.7733 104.582 50.3133 104.483 50.9076L106.456 51.2364Z" fill="#FFB3B3"/>
</svg>
