<svg width="255" height="150" viewBox="0 0 255 150" fill="none" xmlns="http://www.w3.org/2000/svg">
<path d="M80 2.5H180C220.041 2.5 252.5 34.9594 252.5 75C252.5 115.041 220.041 147.5 180 147.5H80C39.9594 147.5 7.5 115.041 7.5 75C7.5 34.9594 39.9594 2.5 80 2.5Z" fill="#D83A56" stroke="#FFB3B3" stroke-width="5"/>
<path d="M25.5469 73.524C24.3709 73.164 23.3989 72.48 22.6309 71.472C21.8869 70.44 21.5149 69.108 21.5149 67.476C21.5149 65.556 22.0549 63.888 23.1349 62.472C24.2149 61.032 25.7029 59.928 27.5989 59.16C29.4949 58.392 31.6429 58.008 34.0429 58.008C35.1949 58.008 36.3109 58.092 37.3909 58.26C38.4949 58.404 39.7669 58.62 41.2069 58.908C42.0709 59.076 42.9349 59.232 43.7989 59.376C44.6629 59.496 45.4069 59.556 46.0309 59.556C47.0869 59.556 48.0469 59.388 48.9109 59.052C49.7989 58.692 50.5189 58.128 51.0709 57.36C50.9749 59.016 50.4229 60.324 49.4149 61.284C48.4069 62.22 46.9909 62.688 45.1669 62.688C44.1109 62.688 43.0429 62.556 41.9629 62.292C40.9069 62.004 39.5149 61.584 37.7869 61.032C36.3469 60.528 35.1349 60.156 34.1509 59.916C33.1669 59.652 32.2429 59.52 31.3789 59.52C30.0109 59.52 28.8469 59.868 27.8869 60.564C26.9269 61.26 26.1949 62.172 25.6909 63.3C25.2109 64.404 24.9709 65.592 24.9709 66.864C24.9709 68.28 25.3069 69.48 25.9789 70.464C26.6749 71.448 27.7909 72.312 29.3269 73.056L29.1829 73.236C27.3109 73.236 26.0989 73.332 25.5469 73.524ZM24.3949 84.54C23.3149 84.54 22.3069 84.432 21.3709 84.216C20.4349 84.024 19.6669 83.796 19.0669 83.532C18.8749 82.788 18.7789 81.96 18.7789 81.048L18.9949 80.652C20.5549 82.332 22.4149 83.172 24.5749 83.172C28.5589 83.172 31.1869 80.412 32.4589 74.892C33.5629 70.164 34.4149 66.612 35.0149 64.236C35.4949 63.588 36.0709 63.012 36.7429 62.508C37.4389 61.98 38.0749 61.596 38.6509 61.356L38.9749 61.464C38.5429 62.376 38.1469 63.588 37.7869 65.1C37.4269 66.588 36.9589 68.724 36.3829 71.508C36.1909 72.564 35.9629 73.656 35.6989 74.784C34.8589 78.192 33.4429 80.676 31.4509 82.236C29.4829 83.772 27.1309 84.54 24.3949 84.54ZM62.1473 71.148C62.3393 71.268 62.4353 71.424 62.4353 71.616C62.4353 72.144 62.2193 72.672 61.7873 73.2C61.3553 73.728 60.7553 74.16 59.9873 74.496C59.2193 74.832 58.3793 75 57.4673 75C56.1953 75 55.1753 74.676 54.4073 74.028C53.6393 73.38 53.2313 72.552 53.1833 71.544C52.1273 71.64 51.1913 72.072 50.3753 72.84C49.5833 73.608 48.9833 74.544 48.5753 75.648V75.72C48.4793 75.96 48.4193 76.14 48.3953 76.26C48.1793 77.028 47.7113 79.488 46.9913 83.64C46.9673 83.88 46.4513 84 45.4433 84C44.4833 84 44.0033 83.832 44.0033 83.496C44.0033 83.304 44.0753 82.812 44.2193 82.02C44.6513 79.596 45.1193 77.076 45.6233 74.46C46.1273 71.844 46.4393 70.332 46.5593 69.924C46.6553 69.564 46.8233 69.324 47.0633 69.204C47.3273 69.084 47.6753 69.024 48.1073 69.024C48.9233 69.024 49.6193 69.144 50.1953 69.384C50.0033 69.936 49.7393 70.92 49.4033 72.336C50.0753 71.376 50.8313 70.608 51.6713 70.032C52.5353 69.456 53.4113 69.168 54.2993 69.168C54.7073 69.168 55.0553 69.228 55.3433 69.348C55.6313 69.444 55.8113 69.564 55.8833 69.708C55.8833 72.156 56.7833 73.38 58.5833 73.38C60.0233 73.38 61.2113 72.636 62.1473 71.148ZM79.6574 75.324C80.0894 75.324 80.3054 75.684 80.3054 76.404C80.3054 77.556 79.8374 78.768 78.9014 80.04C77.9894 81.288 76.8494 82.332 75.4814 83.172C74.1134 84.012 72.8534 84.432 71.7014 84.432C70.7894 84.432 69.9854 84.168 69.2894 83.64C68.6174 83.112 68.1374 82.428 67.8494 81.588C67.2014 82.404 66.4214 83.064 65.5094 83.568C64.5974 84.048 63.7814 84.288 63.0614 84.288C62.4374 84.288 61.8134 84.108 61.1894 83.748C60.5654 83.364 60.0374 82.884 59.6054 82.308C59.1734 81.732 58.9454 81.156 58.9214 80.58C59.4734 78.132 59.9654 75.756 60.3974 73.452C60.4934 72.972 60.9014 72.372 61.6214 71.652C62.3414 70.908 63.2054 70.272 64.2134 69.744C65.2214 69.216 66.1814 68.952 67.0934 68.952C67.9334 68.952 68.7854 69.204 69.6494 69.708C69.8174 69.3 69.9494 69.048 70.0454 68.952C70.1414 68.832 70.2854 68.76 70.4774 68.736L73.6094 68.556L73.7174 68.628C73.4294 68.868 73.2134 69.132 73.0694 69.42C72.9254 69.708 72.7934 70.044 72.6734 70.428C72.2414 71.892 71.7974 73.668 71.3414 75.756C70.8854 77.82 70.6574 79.248 70.6574 80.04C70.6574 80.712 70.8134 81.324 71.1254 81.876C71.4614 82.428 71.9774 82.704 72.6734 82.704C73.3934 82.704 74.2214 82.392 75.1574 81.768C76.1174 81.144 77.0054 80.268 77.8214 79.14C78.6614 78.012 79.2734 76.74 79.6574 75.324ZM64.2134 82.128C64.5494 82.128 64.9574 81.96 65.4374 81.624C65.9174 81.288 66.3614 80.832 66.7694 80.256C67.2014 79.68 67.5014 79.044 67.6694 78.348L68.2454 75.648C68.6774 73.44 68.9774 71.988 69.1454 71.292C68.5214 71.004 67.8614 70.86 67.1654 70.86C66.0374 70.86 65.1854 71.22 64.6094 71.94C64.0574 72.636 63.6854 73.428 63.4934 74.316L62.3774 79.752C62.4254 80.352 62.6414 80.904 63.0254 81.408C63.4094 81.888 63.8054 82.128 64.2134 82.128ZM83.8885 84.18C82.8325 84.18 81.8365 83.928 80.9005 83.424C79.9885 82.896 79.2565 82.296 78.7045 81.624C78.1525 80.928 77.8765 80.376 77.8765 79.968C78.3565 78.168 78.7045 76.752 78.9205 75.72C79.1605 74.664 79.4005 73.5 79.6405 72.228C79.7125 71.772 80.0845 71.268 80.7565 70.716C81.4285 70.164 82.2205 69.696 83.1325 69.312C84.0685 68.904 84.9205 68.7 85.6885 68.7C86.6245 68.7 87.5365 68.94 88.4245 69.42C89.3125 69.876 89.7565 70.536 89.7565 71.4C89.7565 72.432 89.0605 73.2 87.6685 73.704L87.5245 73.668C87.4765 72.804 87.2245 72.024 86.7685 71.328C86.3365 70.608 85.8445 70.248 85.2925 70.248C84.7645 70.248 84.2005 70.536 83.6005 71.112C83.0245 71.688 82.6885 72.24 82.5925 72.768C82.2085 74.832 81.7525 77.124 81.2245 79.644C81.3445 80.436 81.6445 81.06 82.1245 81.516C82.6285 81.972 83.5045 82.2 84.7525 82.2C86.3125 82.2 87.9325 81.756 89.6125 80.868C91.3165 79.956 92.6725 78.216 93.6805 75.648C94.1605 75.648 94.4005 75.984 94.4005 76.656C94.4005 77.808 93.8005 78.972 92.6005 80.148C91.4245 81.3 89.9965 82.26 88.3165 83.028C86.6365 83.796 85.1605 84.18 83.8885 84.18ZM102.522 68.952C103.098 68.952 103.77 69.024 104.538 69.168C105.33 69.288 105.762 69.492 105.834 69.78C105.45 71.652 104.982 73.824 104.43 76.296C103.878 78.768 103.386 80.796 102.954 82.38C101.49 87.9 99.3302 92.628 96.4742 96.564C93.6422 100.5 89.7062 102.468 84.6662 102.468C82.4102 102.468 80.7302 102.048 79.6262 101.208C78.5222 100.392 77.9702 99.372 77.9702 98.148C77.9702 97.332 78.2222 96.6 78.7262 95.952C79.4462 96.864 80.4662 97.62 81.7862 98.22C83.1062 98.82 84.6422 99.12 86.3942 99.12C88.4582 99.12 90.2942 98.604 91.9022 97.572C93.5102 96.54 94.9862 94.788 96.3302 92.316C97.6742 89.844 98.9222 86.472 100.074 82.2C99.3542 82.704 98.6222 83.136 97.8782 83.496C97.1342 83.832 96.5222 84 96.0422 84C95.5622 84 95.0102 83.856 94.3862 83.568C93.7622 83.256 93.2222 82.86 92.7662 82.38C92.3342 81.9 92.1182 81.396 92.1182 80.868C92.2142 80.388 92.4062 79.296 92.6942 77.592C93.1262 74.688 93.5822 72.168 94.0622 70.032C94.2062 69.36 94.7102 69.024 95.5742 69.024C95.8622 69.024 96.2342 69.048 96.6902 69.096C97.1462 69.12 97.4462 69.156 97.5902 69.204C97.2062 70.956 96.6902 73.62 96.0422 77.196C95.8262 78.54 95.6462 79.536 95.5022 80.184C95.4782 80.712 95.6222 81.156 95.9342 81.516C96.2462 81.852 96.6062 82.02 97.0142 82.02C97.5182 82.02 98.1422 81.78 98.8862 81.3C99.6542 80.796 100.23 80.292 100.614 79.788L101.298 75.9C101.946 72.372 102.354 70.056 102.522 68.952ZM129.106 84.54C125.77 84.54 123.154 83.592 121.258 81.696C119.386 79.776 118.45 77.028 118.45 73.452C118.45 70.524 119.074 67.896 120.322 65.568C121.594 63.24 123.358 61.416 125.614 60.096C127.87 58.776 130.426 58.116 133.282 58.116C136.618 58.116 139.222 59.052 141.094 60.924C142.99 62.772 143.938 65.46 143.938 68.988C143.938 71.868 143.314 74.496 142.066 76.872C140.818 79.248 139.066 81.12 136.81 82.488C134.554 83.856 131.986 84.54 129.106 84.54ZM129.61 82.56C131.866 82.56 133.786 81.948 135.37 80.724C136.978 79.5 138.178 77.88 138.97 75.864C139.786 73.848 140.194 71.664 140.194 69.312C140.194 66.168 139.51 63.828 138.142 62.292C136.774 60.756 134.914 59.988 132.562 59.988C130.426 59.988 128.566 60.6 126.982 61.824C125.398 63.024 124.186 64.656 123.346 66.72C122.506 68.76 122.086 71.016 122.086 73.488C122.086 76.512 122.734 78.78 124.03 80.292C125.326 81.804 127.186 82.56 129.61 82.56ZM166.546 75.936C166.762 75.936 166.93 76.02 167.05 76.188C167.17 76.332 167.23 76.524 167.23 76.764C167.23 77.412 166.822 78.372 166.006 79.644C165.214 80.892 164.146 82.008 162.802 82.992C161.458 83.952 159.97 84.432 158.338 84.432C157.09 84.432 156.118 84.132 155.422 83.532C154.75 82.908 154.414 82.092 154.414 81.084C154.414 80.484 154.522 79.74 154.738 78.852C154.978 77.964 155.302 76.848 155.71 75.504C156.094 74.256 156.406 73.14 156.646 72.156C156.622 72.012 156.526 71.94 156.358 71.94C156.022 71.94 155.374 72.372 154.414 73.236C153.454 74.1 152.506 75.072 151.57 76.152C150.634 77.232 150.058 78.036 149.842 78.564C149.41 80.508 149.146 81.804 149.05 82.452C148.954 83.076 148.894 83.424 148.87 83.496C148.846 83.568 148.822 83.664 148.798 83.784C148.774 83.88 148.738 83.94 148.69 83.964C148.666 83.988 148.618 84 148.546 84C148.186 84 147.622 83.976 146.854 83.928C146.086 83.88 145.702 83.808 145.702 83.712C145.846 82.848 146.218 81.048 146.818 78.312C146.938 77.64 146.998 77.316 146.998 77.34L148.618 69.42C148.642 69.252 148.69 69.156 148.762 69.132C148.858 69.084 149.038 69.06 149.302 69.06C150.43 69.06 151.246 69.24 151.75 69.6C151.726 69.696 151.594 70.296 151.354 71.4C151.114 72.48 150.766 73.86 150.31 75.54C151.654 73.908 153.034 72.432 154.45 71.112C155.866 69.792 156.826 69.132 157.33 69.132C157.594 69.132 158.122 69.264 158.914 69.528C159.73 69.792 160.162 70.008 160.21 70.176L159.562 72.624C158.938 74.856 158.47 76.632 158.158 77.952C157.846 79.272 157.69 80.28 157.69 80.976C157.69 82.08 158.206 82.632 159.238 82.632C160.078 82.632 160.99 82.308 161.974 81.66C162.982 80.988 163.894 80.136 164.71 79.104C165.55 78.048 166.162 76.992 166.546 75.936ZM185.302 75.324C185.734 75.324 185.95 75.684 185.95 76.404C185.95 77.556 185.482 78.768 184.546 80.04C183.634 81.288 182.494 82.332 181.126 83.172C179.758 84.012 178.498 84.432 177.346 84.432C176.434 84.432 175.63 84.168 174.934 83.64C174.262 83.112 173.782 82.428 173.494 81.588C172.846 82.404 172.066 83.064 171.154 83.568C170.242 84.048 169.426 84.288 168.706 84.288C168.082 84.288 167.458 84.108 166.834 83.748C166.21 83.364 165.682 82.884 165.25 82.308C164.818 81.732 164.59 81.156 164.566 80.58C165.118 78.132 165.61 75.756 166.042 73.452C166.138 72.972 166.546 72.372 167.266 71.652C167.986 70.908 168.85 70.272 169.858 69.744C170.866 69.216 171.826 68.952 172.738 68.952C173.578 68.952 174.43 69.204 175.294 69.708C175.462 69.3 175.594 69.048 175.69 68.952C175.786 68.832 175.93 68.76 176.122 68.736L179.254 68.556L179.362 68.628C179.074 68.868 178.858 69.132 178.714 69.42C178.57 69.708 178.438 70.044 178.318 70.428C177.886 71.892 177.442 73.668 176.986 75.756C176.53 77.82 176.302 79.248 176.302 80.04C176.302 80.712 176.458 81.324 176.77 81.876C177.106 82.428 177.622 82.704 178.318 82.704C179.038 82.704 179.866 82.392 180.802 81.768C181.762 81.144 182.65 80.268 183.466 79.14C184.306 78.012 184.918 76.74 185.302 75.324ZM169.858 82.128C170.194 82.128 170.602 81.96 171.082 81.624C171.562 81.288 172.006 80.832 172.414 80.256C172.846 79.68 173.146 79.044 173.314 78.348L173.89 75.648C174.322 73.44 174.622 71.988 174.79 71.292C174.166 71.004 173.506 70.86 172.81 70.86C171.682 70.86 170.83 71.22 170.254 71.94C169.702 72.636 169.33 73.428 169.138 74.316L168.022 79.752C168.07 80.352 168.286 80.904 168.67 81.408C169.054 81.888 169.45 82.128 169.858 82.128ZM187.337 84.252C186.233 84.252 185.357 83.964 184.709 83.388C184.061 82.788 183.737 81.84 183.737 80.544C183.737 80.232 183.749 79.992 183.773 79.824L184.925 74.352C185.405 71.904 185.717 70.404 185.861 69.852C185.981 69.564 186.209 69.336 186.545 69.168C186.881 68.976 187.265 68.88 187.697 68.88C188.081 68.88 188.393 68.964 188.633 69.132C188.897 69.276 189.041 69.444 189.065 69.636C188.561 71.868 187.877 75.168 187.013 79.536C186.989 79.728 186.977 79.98 186.977 80.292C186.977 80.964 187.121 81.444 187.409 81.732C187.697 82.02 188.117 82.164 188.669 82.164C189.629 82.164 190.661 81.828 191.765 81.156C192.869 80.46 193.889 79.608 194.825 78.6C195.785 77.568 196.529 76.548 197.057 75.54C197.417 75.684 197.597 75.924 197.597 76.26C197.597 76.5 197.549 76.752 197.453 77.016C197.357 77.256 197.297 77.412 197.273 77.484C196.817 78.564 196.025 79.632 194.897 80.688C193.793 81.744 192.545 82.608 191.153 83.28C189.785 83.928 188.513 84.252 187.337 84.252ZM188.129 65.136C187.553 65.136 187.109 64.968 186.797 64.632C186.509 64.296 186.365 63.84 186.365 63.264C186.365 62.52 186.581 61.896 187.013 61.392C187.445 60.888 188.033 60.636 188.777 60.636C189.353 60.636 189.797 60.792 190.109 61.104C190.421 61.416 190.577 61.86 190.577 62.436C190.577 63.18 190.349 63.816 189.893 64.344C189.437 64.872 188.849 65.136 188.129 65.136ZM222.6 70.14C222.792 70.212 222.888 70.428 222.888 70.788C222.888 71.508 222.588 72.156 221.988 72.732C221.412 73.308 220.656 73.764 219.72 74.1C218.808 74.412 217.884 74.568 216.948 74.568C215.58 74.568 214.404 74.184 213.42 73.416C213.612 74.136 213.708 74.904 213.708 75.72C213.708 77.208 213.396 78.6 212.772 79.896C212.148 81.168 211.32 82.188 210.288 82.956C209.256 83.7 208.152 84.072 206.976 84.072C205.152 84.072 203.88 83.148 203.16 81.3C202.536 82.26 201.756 82.992 200.82 83.496C199.908 84 199.056 84.252 198.264 84.252C197.568 84.252 196.92 84.06 196.32 83.676C195.72 83.292 195.24 82.8 194.88 82.2C194.52 81.576 194.34 80.952 194.34 80.328C194.58 79.056 194.916 77.592 195.348 75.936C195.804 74.28 196.224 72.816 196.608 71.544L196.86 70.716C197.22 69.492 197.976 68.88 199.128 68.88C199.632 68.88 200.1 68.988 200.532 69.204C199.932 70.764 199.32 72.648 198.696 74.856C198.072 77.064 197.676 78.816 197.508 80.112C197.484 80.832 197.58 81.384 197.796 81.768C198.012 82.152 198.42 82.344 199.02 82.344C199.788 82.344 200.46 81.984 201.036 81.264C201.612 80.544 202.104 79.416 202.512 77.88C202.848 76.68 203.304 74.508 203.88 71.364C206.04 71.364 207.06 71.808 206.94 72.696C206.892 73.008 206.76 73.548 206.544 74.316C206.136 75.732 205.848 76.896 205.68 77.808C205.584 78.24 205.5 78.756 205.428 79.356C205.356 79.932 205.32 80.376 205.32 80.688C205.512 81.288 205.74 81.72 206.004 81.984C206.268 82.248 206.604 82.38 207.012 82.38C207.78 82.38 208.44 81.996 208.992 81.228C209.544 80.436 209.964 79.464 210.252 78.312C210.564 77.136 210.72 75.996 210.72 74.892C210.72 74.052 210.624 73.332 210.432 72.732C210.24 72.108 209.904 71.28 209.424 70.248C209.52 69.864 209.832 69.54 210.36 69.276C210.912 69.012 211.332 68.88 211.62 68.88C211.764 68.88 211.908 68.964 212.052 69.132C212.196 69.276 212.376 69.504 212.592 69.816C213.144 70.632 213.756 71.304 214.428 71.832C215.1 72.336 216.036 72.588 217.236 72.588C218.148 72.588 219.108 72.408 220.116 72.048C221.124 71.688 221.952 71.052 222.6 70.14ZM238.501 75.576C238.885 75.672 239.077 75.888 239.077 76.224C239.077 76.8 238.633 77.748 237.745 79.068C236.857 80.388 235.765 81.576 234.469 82.632C233.197 83.664 231.925 84.18 230.653 84.18C229.693 84.18 228.877 83.88 228.205 83.28C227.533 82.656 227.185 81.864 227.161 80.904C226.513 81.792 225.769 82.56 224.929 83.208C224.089 83.856 223.297 84.18 222.553 84.18C221.809 84.18 221.029 83.88 220.213 83.28C219.397 82.68 218.941 82.056 218.845 81.408L220.969 69.744C221.065 69.288 221.221 69.06 221.437 69.06C221.725 69.06 222.241 69.168 222.985 69.384C223.753 69.576 224.137 69.768 224.137 69.96C224.137 70.032 224.029 70.5 223.813 71.364C223.573 72.372 223.237 73.92 222.805 76.008C222.397 78.096 222.121 79.596 221.977 80.508C222.025 80.844 222.193 81.156 222.481 81.444C222.793 81.708 223.153 81.84 223.561 81.84C224.257 81.84 224.977 81.432 225.721 80.616C226.489 79.776 227.125 78.48 227.629 76.728C228.061 75.264 228.613 72.84 229.285 69.456C229.333 69.192 229.465 69.06 229.681 69.06C229.993 69.06 230.485 69.168 231.157 69.384C231.853 69.576 232.201 69.792 232.201 70.032C231.505 72.528 230.917 74.784 230.437 76.8C229.957 78.816 229.717 80.136 229.717 80.76C229.717 81.216 229.849 81.6 230.113 81.912C230.401 82.224 230.809 82.38 231.337 82.38C232.345 82.38 233.497 81.792 234.793 80.616C236.089 79.416 237.325 77.736 238.501 75.576Z" fill="white"/>
<path d="M25.5469 73.524L25.2542 74.4802L25.5667 74.5759L25.8754 74.4685L25.5469 73.524ZM22.6309 71.472L21.8197 72.0568L21.8274 72.0675L21.8354 72.078L22.6309 71.472ZM23.1349 62.472L23.93 63.0785L23.9349 63.072L23.1349 62.472ZM27.5989 59.16L27.9743 60.0868L27.9743 60.0868L27.5989 59.16ZM37.3909 58.26L37.2372 59.2481L37.2493 59.25L37.2615 59.2516L37.3909 58.26ZM41.2069 58.908L41.0108 59.8886L41.016 59.8896L41.2069 58.908ZM43.7989 59.376L43.6345 60.3624L43.6479 60.3646L43.6613 60.3665L43.7989 59.376ZM48.9109 59.052L49.2733 59.984L49.28 59.9814L49.2866 59.9787L48.9109 59.052ZM51.0709 57.36L52.0692 57.4179L52.2685 53.9804L50.2589 56.7764L51.0709 57.36ZM49.4149 61.284L50.0954 62.0169L50.1045 62.0081L49.4149 61.284ZM41.9629 62.292L41.6998 63.2568L41.7125 63.2602L41.7254 63.2634L41.9629 62.292ZM37.7869 61.032L37.4565 61.9759L37.4695 61.9804L37.4826 61.9846L37.7869 61.032ZM34.1509 59.916L33.8917 60.8818L33.9028 60.8848L33.9139 60.8875L34.1509 59.916ZM27.8869 60.564L28.4738 61.3736L28.4738 61.3736L27.8869 60.564ZM25.6909 63.3L24.7778 62.892L24.7738 62.9013L25.6909 63.3ZM25.9789 70.464L25.1531 71.028L25.1577 71.0348L25.1625 71.0415L25.9789 70.464ZM29.3269 73.056L30.1077 73.6807L30.8905 72.7022L29.7628 72.156L29.3269 73.056ZM29.1829 73.236V74.236H29.6635L29.9637 73.8607L29.1829 73.236ZM21.3709 84.216L21.5957 83.2416L21.5838 83.2389L21.5718 83.2364L21.3709 84.216ZM19.0669 83.532L18.0986 83.7819L18.2199 84.2518L18.6641 84.4473L19.0669 83.532ZM18.7789 81.048L17.901 80.5691L17.7789 80.793V81.048H18.7789ZM18.9949 80.652L19.7277 79.9715L18.7823 78.9534L18.117 80.1731L18.9949 80.652ZM32.4589 74.892L31.4851 74.6646L31.4844 74.6674L32.4589 74.892ZM35.0149 64.236L34.2113 63.6408L34.0937 63.7996L34.0453 63.9912L35.0149 64.236ZM36.7429 62.508L37.3429 63.308L37.3473 63.3047L36.7429 62.508ZM38.6509 61.356L38.9671 60.4073L38.6119 60.2889L38.2663 60.4329L38.6509 61.356ZM38.9749 61.464L39.8786 61.8921L40.3617 60.8722L39.2911 60.5153L38.9749 61.464ZM37.7869 65.1L38.7588 65.3352L38.7597 65.3316L37.7869 65.1ZM36.3829 71.508L35.4036 71.3054L35.4012 71.3172L35.399 71.3291L36.3829 71.508ZM35.6989 74.784L36.6699 75.0233L36.6726 75.0119L35.6989 74.784ZM31.4509 82.236L32.0661 83.0243L32.0674 83.0233L31.4509 82.236ZM25.8396 72.5678C24.8701 72.271 24.0716 71.7129 23.4263 70.866L21.8354 72.078C22.7261 73.2471 23.8717 74.057 25.2542 74.4802L25.8396 72.5678ZM23.4421 70.8872C22.8515 70.0681 22.5149 68.9575 22.5149 67.476H20.5149C20.5149 69.2585 20.9222 70.8119 21.8197 72.0568L23.4421 70.8872ZM22.5149 67.476C22.5149 65.7569 22.9935 64.3063 23.93 63.0784L22.3398 61.8655C21.1162 63.4697 20.5149 65.3551 20.5149 67.476H22.5149ZM23.9349 63.072C24.8914 61.7966 26.2234 60.7961 27.9743 60.0868L27.2234 58.2331C25.1823 59.0599 23.5383 60.2674 22.3349 61.872L23.9349 63.072ZM27.9743 60.0868C29.7323 59.3748 31.7496 59.008 34.0429 59.008V57.008C31.5361 57.008 29.2575 57.4092 27.2234 58.2331L27.9743 60.0868ZM34.0429 59.008C35.1462 59.008 36.2107 59.0884 37.2372 59.2481L37.5446 57.2719C36.4111 57.0956 35.2436 57.008 34.0429 57.008V59.008ZM37.2615 59.2516C38.3374 59.3919 39.5864 59.6037 41.0108 59.8886L41.403 57.9274C39.9474 57.6363 38.6523 57.4161 37.5202 57.2684L37.2615 59.2516ZM41.016 59.8896C41.8888 60.0593 42.7616 60.2169 43.6345 60.3624L43.9633 58.3896C43.1082 58.2471 42.253 58.0927 41.3977 57.9264L41.016 59.8896ZM43.6613 60.3665C44.5545 60.4905 45.3468 60.556 46.0309 60.556V58.556C45.467 58.556 44.7713 58.5015 43.9364 58.3855L43.6613 60.3665ZM46.0309 60.556C47.1938 60.556 48.2788 60.3707 49.2733 59.984L48.5484 58.12C47.8149 58.4053 46.98 58.556 46.0309 58.556V60.556ZM49.2866 59.9787C50.3471 59.5488 51.2192 58.867 51.8829 57.9436L50.2589 56.7764C49.8185 57.389 49.2507 57.8352 48.5352 58.1253L49.2866 59.9787ZM50.0726 57.3021C49.9882 58.7565 49.5153 59.8074 48.7252 60.5599L50.1045 62.0081C51.3304 60.8406 51.9615 59.2755 52.0692 57.4179L50.0726 57.3021ZM48.7344 60.5512C47.965 61.2656 46.8227 61.688 45.1669 61.688V63.688C47.1591 63.688 48.8487 63.1744 50.0953 62.0168L48.7344 60.5512ZM45.1669 61.688C44.195 61.688 43.2067 61.5666 42.2003 61.3206L41.7254 63.2634C42.879 63.5454 44.0268 63.688 45.1669 63.688V61.688ZM42.226 61.3272C41.1898 61.0446 39.8131 60.6295 38.0912 60.0794L37.4826 61.9846C39.2166 62.5385 40.624 62.9634 41.6998 63.2568L42.226 61.3272ZM38.1172 60.0881C36.6602 59.5782 35.4149 59.195 34.3878 58.9445L33.9139 60.8875C34.8549 61.117 36.0335 61.4778 37.4565 61.9759L38.1172 60.0881ZM34.41 58.9502C33.3561 58.6674 32.3443 58.52 31.3789 58.52V60.52C32.1414 60.52 32.9776 60.6366 33.8917 60.8818L34.41 58.9502ZM31.3789 58.52C29.8336 58.52 28.4559 58.9163 27.2999 59.7544L28.4738 61.3736C29.2378 60.8197 30.1881 60.52 31.3789 60.52V58.52ZM27.2999 59.7544C26.1918 60.5578 25.3503 61.6109 24.7779 62.8921L26.6039 63.7079C27.0394 62.7331 27.662 61.9622 28.4738 61.3736L27.2999 59.7544ZM24.7738 62.9013C24.236 64.1381 23.9709 65.4627 23.9709 66.864H25.9709C25.9709 65.7213 26.1857 64.6699 26.6079 63.6987L24.7738 62.9013ZM23.9709 66.864C23.9709 68.4425 24.3476 69.8485 25.1531 71.028L26.8047 69.9C26.2662 69.1115 25.9709 68.1174 25.9709 66.864H23.9709ZM25.1625 71.0415C25.9882 72.2089 27.2625 73.1672 28.8909 73.956L29.7628 72.156C28.3192 71.4568 27.3615 70.6871 26.7953 69.8865L25.1625 71.0415ZM28.546 72.4313L28.402 72.6113L29.9637 73.8607L30.1077 73.6807L28.546 72.4313ZM29.1829 72.236C28.2329 72.236 27.4332 72.2602 26.7909 72.3111C26.1708 72.3602 25.6221 72.4391 25.2184 72.5795L25.8754 74.4685C26.0236 74.4169 26.357 74.3518 26.9488 74.3049C27.5186 74.2597 28.2608 74.236 29.1829 74.236V72.236ZM24.3949 83.54C23.3814 83.54 22.4495 83.4386 21.5957 83.2416L21.146 85.1904C22.1642 85.4254 23.2484 85.54 24.3949 85.54V83.54ZM21.5718 83.2364C20.6767 83.0528 19.9827 82.8425 19.4696 82.6167L18.6641 84.4473C19.351 84.7495 20.193 84.9952 21.1699 85.1956L21.5718 83.2364ZM20.0352 83.2821C19.8677 82.6333 19.7789 81.8909 19.7789 81.048H17.7789C17.7789 82.0291 17.882 82.9427 18.0986 83.7819L20.0352 83.2821ZM19.6568 81.5269L19.8728 81.1309L18.117 80.1731L17.901 80.5691L19.6568 81.5269ZM18.2621 81.3325C19.9983 83.2022 22.1182 84.172 24.5749 84.172V82.172C22.7116 82.172 21.1115 81.4618 19.7277 79.9715L18.2621 81.3325ZM24.5749 84.172C26.8266 84.172 28.7459 83.3797 30.2581 81.7916C31.7417 80.2335 32.7753 77.9721 33.4333 75.1165L31.4844 74.6674C30.8704 77.3319 29.9541 79.2105 28.8097 80.4124C27.6938 81.5843 26.3071 82.172 24.5749 82.172V84.172ZM33.4327 75.1194C34.5364 70.3927 35.3867 66.8478 35.9844 64.4808L34.0453 63.9912C33.443 66.3762 32.5894 69.9353 31.4851 74.6646L33.4327 75.1194ZM35.8184 64.8312C36.2385 64.2642 36.745 63.7564 37.3429 63.308L36.1429 61.708C35.3967 62.2676 34.7513 62.9118 34.2113 63.6408L35.8184 64.8312ZM37.3473 63.3047C38.0004 62.8092 38.562 62.4764 39.0355 62.2791L38.2663 60.4329C37.5877 60.7156 36.8774 61.1508 36.1385 61.7113L37.3473 63.3047ZM38.3347 62.3047L38.6587 62.4127L39.2911 60.5153L38.9671 60.4073L38.3347 62.3047ZM38.0711 61.0359C37.5979 62.0349 37.1825 63.3208 36.8141 64.8684L38.7597 65.3316C39.1112 63.8552 39.4878 62.7171 39.8786 61.8921L38.0711 61.0359ZM36.8149 64.8648C36.451 66.3692 35.9803 68.518 35.4036 71.3054L37.3621 71.7106C37.9374 68.93 38.4028 66.8068 38.7588 65.3352L36.8149 64.8648ZM35.399 71.3291C35.2102 72.3675 34.9857 73.4431 34.7252 74.5561L36.6726 75.0119C36.9401 73.8689 37.1715 72.7605 37.3667 71.6869L35.399 71.3291ZM34.7279 74.5447C33.9211 77.8183 32.5932 80.0713 30.8343 81.4487L32.0674 83.0233C34.2926 81.2807 35.7967 78.5657 36.6698 75.0233L34.7279 74.5447ZM30.8356 81.4477C29.0605 82.8332 26.9306 83.54 24.3949 83.54V85.54C27.3311 85.54 29.9053 84.7108 32.0661 83.0243L30.8356 81.4477ZM62.1473 71.148L62.6773 70.3L61.8318 69.7715L61.3009 70.6155L62.1473 71.148ZM61.7873 73.2L62.5613 73.8332L62.5613 73.8332L61.7873 73.2ZM59.9873 74.496L60.3882 75.4122L60.3882 75.4122L59.9873 74.496ZM53.1833 71.544L54.1822 71.4964L54.1326 70.4536L53.0928 70.5481L53.1833 71.544ZM50.3753 72.84L49.69 72.1118L49.6846 72.1169L49.6792 72.1221L50.3753 72.84ZM48.5753 75.648L47.6373 75.3013L47.5753 75.4691V75.648H48.5753ZM48.5753 75.72L49.5038 76.0914L49.5753 75.9126V75.72H48.5753ZM48.3953 76.26L49.358 76.5307L49.3684 76.4938L49.3759 76.4561L48.3953 76.26ZM46.9913 83.64L46.006 83.4691L45.9999 83.5046L45.9963 83.5405L46.9913 83.64ZM44.2193 82.02L45.2032 82.1989L45.2038 82.1955L44.2193 82.02ZM45.6233 74.46L44.6414 74.2708L44.6414 74.2708L45.6233 74.46ZM46.5593 69.924L47.5187 70.2062L47.5223 70.194L47.5256 70.1817L46.5593 69.924ZM47.0633 69.204L46.6495 68.2936L46.6327 68.3013L46.6161 68.3096L47.0633 69.204ZM50.1953 69.384L51.1398 69.7125L51.4492 68.8231L50.58 68.4609L50.1953 69.384ZM49.4033 72.336L48.4304 72.1051L50.2226 72.9095L49.4033 72.336ZM51.6713 70.032L51.1166 69.1999L51.1058 69.2073L51.6713 70.032ZM55.3433 69.348L54.9587 70.2711L54.9925 70.2851L55.0271 70.2967L55.3433 69.348ZM55.8833 69.708H56.8833V69.4719L56.7778 69.2608L55.8833 69.708ZM61.6173 71.996C61.6128 71.9932 61.5613 71.9598 61.5117 71.8791C61.4579 71.7917 61.4353 71.6957 61.4353 71.616H63.4353C63.4353 71.0126 63.1004 70.5644 62.6773 70.3L61.6173 71.996ZM61.4353 71.616C61.4353 71.8529 61.3425 72.1645 61.0134 72.5668L62.5613 73.8332C63.0962 73.1795 63.4353 72.4351 63.4353 71.616H61.4353ZM61.0134 72.5668C60.702 72.9474 60.2422 73.293 59.5865 73.5798L60.3882 75.4122C61.2685 75.027 62.0087 74.5086 62.5613 73.8332L61.0134 72.5668ZM59.5865 73.5798C58.9557 73.8558 58.2536 74 57.4673 74V76C58.5051 76 59.483 75.8082 60.3882 75.4122L59.5865 73.5798ZM57.4673 74C56.367 74 55.5961 73.7226 55.0522 73.2637L53.7625 74.7923C54.7546 75.6294 56.0237 76 57.4673 76V74ZM55.0522 73.2637C54.4978 72.7959 54.2171 72.2281 54.1822 71.4964L52.1845 71.5916C52.2456 72.8759 52.7809 73.9641 53.7625 74.7923L55.0522 73.2637ZM53.0928 70.5481C51.801 70.6655 50.6588 71.1999 49.69 72.1118L51.0607 73.5682C51.7238 72.9441 52.4537 72.6145 53.2739 72.5399L53.0928 70.5481ZM49.6792 72.1221C48.7727 73.0011 48.0937 74.0666 47.6373 75.3013L49.5133 75.9946C49.873 75.0213 50.3939 74.2149 51.0715 73.5579L49.6792 72.1221ZM47.5753 75.648V75.72H49.5753V75.648H47.5753ZM47.6469 75.3486C47.5474 75.5973 47.4578 75.8486 47.4148 76.0639L49.3759 76.4561C49.3759 76.4564 49.3776 76.4478 49.3831 76.4284C49.3884 76.4095 49.3961 76.384 49.407 76.3512C49.4291 76.2851 49.4607 76.1992 49.5038 76.0914L47.6469 75.3486ZM47.4327 75.9893C47.1991 76.8197 46.7212 79.3451 46.006 83.4691L47.9766 83.8109C48.7015 79.6309 49.1596 77.2363 49.358 76.5307L47.4327 75.9893ZM45.9963 83.5405C46.0295 83.2083 46.2364 83.0255 46.3264 82.9654C46.4022 82.9149 46.4363 82.9182 46.3598 82.936C46.2155 82.9696 45.9264 83 45.4433 83V85C45.9683 85 46.4412 84.9704 46.8129 84.884C46.9944 84.8418 47.225 84.7701 47.4358 84.6296C47.6608 84.4795 47.9412 84.1917 47.9864 83.7395L45.9963 83.5405ZM45.4433 83C45.2305 83 45.0607 82.9906 44.9292 82.9752C44.7942 82.9595 44.7218 82.94 44.6937 82.9301C44.6593 82.9181 44.7295 82.9345 44.8175 83.0268C44.8653 83.0771 44.9152 83.1468 44.9517 83.2362C44.9885 83.3263 45.0033 83.4161 45.0033 83.496H43.0033C43.0033 83.8468 43.1391 84.1646 43.3692 84.4062C43.5772 84.6245 43.8274 84.7459 44.033 84.8179C44.4355 84.9587 44.9323 85 45.4433 85V83ZM45.0033 83.496C45.0033 83.5 45.0036 83.4737 45.0113 83.4004C45.0185 83.3328 45.03 83.2428 45.0468 83.1278C45.0804 82.8979 45.1322 82.5895 45.2032 82.1989L43.2355 81.8411C43.0981 82.5968 43.0033 83.1927 43.0033 83.496H45.0033ZM45.2038 82.1955C45.635 79.7764 46.1021 77.261 46.6053 74.6492L44.6414 74.2708C44.1366 76.891 43.6677 79.4156 43.2349 81.8445L45.2038 82.1955ZM46.6053 74.6492C47.1152 72.0026 47.416 70.5552 47.5187 70.2062L45.6 69.6418C45.4626 70.1088 45.1395 71.6854 44.6414 74.2708L46.6053 74.6492ZM47.5256 70.1817C47.5513 70.0854 47.5751 70.0495 47.5766 70.0475C47.5767 70.0473 47.5711 70.0551 47.5585 70.0663C47.5455 70.0778 47.5291 70.0892 47.5106 70.0984L46.6161 68.3096C46.0321 68.6016 45.7331 69.1412 45.5931 69.6663L47.5256 70.1817ZM47.4771 70.1144C47.5635 70.0751 47.7543 70.024 48.1073 70.024V68.024C47.5964 68.024 47.0912 68.0929 46.6495 68.2936L47.4771 70.1144ZM48.1073 70.024C48.83 70.024 49.3878 70.1309 49.8107 70.3071L50.58 68.4609C49.8509 68.1571 49.0167 68.024 48.1073 68.024V70.024ZM49.2508 69.0555C49.0402 69.6611 48.7661 70.6904 48.4304 72.1051L50.3763 72.5669C50.7126 71.1496 50.9665 70.2109 51.1398 69.7125L49.2508 69.0555ZM50.2226 72.9095C50.836 72.0332 51.5095 71.3555 52.2369 70.8567L51.1058 69.2073C50.1532 69.8605 49.3147 70.7188 48.5841 71.7625L50.2226 72.9095ZM52.226 70.864C52.9542 70.3786 53.6404 70.168 54.2993 70.168V68.168C53.1823 68.168 52.1164 68.5334 51.1166 69.1999L52.226 70.864ZM54.2993 70.168C54.614 70.168 54.8238 70.2149 54.9587 70.2711L55.728 68.4249C55.2869 68.2411 54.8007 68.168 54.2993 68.168V70.168ZM55.0271 70.2967C55.0701 70.311 55.1003 70.3233 55.12 70.3325C55.14 70.3417 55.1451 70.3457 55.1396 70.3421C55.1328 70.3375 55.053 70.2834 54.9889 70.1552L56.7778 69.2608C56.5182 68.7417 56.0001 68.5128 55.6596 68.3993L55.0271 70.2967ZM54.8833 69.708C54.8833 71.0251 55.1202 72.1942 55.7527 73.0544C56.4274 73.972 57.4318 74.38 58.5833 74.38V72.38C57.9349 72.38 57.5893 72.176 57.364 71.8696C57.0965 71.5058 56.8833 70.8389 56.8833 69.708H54.8833ZM58.5833 74.38C60.4465 74.38 61.9214 73.3852 62.9938 71.6804L61.3009 70.6155C60.5012 71.8868 59.6002 72.38 58.5833 72.38V74.38ZM79.6574 75.324V74.324H78.8925L78.6923 75.0623L79.6574 75.324ZM78.9014 80.04L78.096 79.4473L78.094 79.45L78.9014 80.04ZM75.4814 83.172L76.0047 84.0242L76.0047 84.0242L75.4814 83.172ZM69.2894 83.64L68.6716 84.4263L68.6783 84.4316L68.685 84.4367L69.2894 83.64ZM67.8494 81.588L68.7954 81.2637L68.2027 79.5351L67.0663 80.9661L67.8494 81.588ZM65.5094 83.568L65.9752 84.4529L65.9842 84.4482L65.9931 84.4432L65.5094 83.568ZM61.1894 83.748L60.6653 84.5997L60.6774 84.6071L60.6897 84.6142L61.1894 83.748ZM59.6054 82.308L58.8054 82.908L58.8054 82.908L59.6054 82.308ZM58.9214 80.58L57.9459 80.36L57.9168 80.4893L57.9223 80.6216L58.9214 80.58ZM60.3974 73.452L59.4168 73.2559L59.4145 73.2677L60.3974 73.452ZM61.6214 71.652L62.3285 72.3591L62.3343 72.3533L62.34 72.3474L61.6214 71.652ZM64.2134 69.744L63.7494 68.8582L63.7494 68.8582L64.2134 69.744ZM69.6494 69.708L69.1455 70.5718L70.137 71.1502L70.5741 70.0887L69.6494 69.708ZM70.0454 68.952L70.7525 69.6591L70.7917 69.6199L70.8263 69.5767L70.0454 68.952ZM70.4774 68.736L70.42 67.7376L70.3866 67.7396L70.3534 67.7437L70.4774 68.736ZM73.6094 68.556L74.1641 67.724L73.8859 67.5385L73.552 67.5576L73.6094 68.556ZM73.7174 68.628L74.3576 69.3962L75.3864 68.5388L74.2721 67.796L73.7174 68.628ZM73.0694 69.42L72.175 68.9728L72.175 68.9728L73.0694 69.42ZM72.6734 70.428L71.7189 70.1297L71.7165 70.1373L71.7143 70.145L72.6734 70.428ZM71.3414 75.756L72.3179 75.9717L72.3184 75.9694L71.3414 75.756ZM71.1254 81.876L70.2548 82.3681L70.2628 82.3821L70.2712 82.3959L71.1254 81.876ZM75.1574 81.768L74.6124 80.9295L74.6027 80.9359L75.1574 81.768ZM77.8214 79.14L77.0193 78.5427L77.0112 78.5539L77.8214 79.14ZM65.4374 81.624L66.0109 82.4432L66.0109 82.4432L65.4374 81.624ZM66.7694 80.256L65.9694 79.656L65.9612 79.6669L65.9534 79.678L66.7694 80.256ZM67.6694 78.348L68.6415 78.5826L68.6446 78.5697L68.6474 78.5566L67.6694 78.348ZM68.2454 75.648L69.2234 75.8566L69.2252 75.8483L69.2268 75.84L68.2454 75.648ZM69.1454 71.292L70.1175 71.5266L70.3102 70.7282L69.5645 70.384L69.1454 71.292ZM64.6094 71.94L63.8285 71.3153L63.8259 71.3186L64.6094 71.94ZM63.4934 74.316L62.5159 74.1047L62.5138 74.1149L63.4934 74.316ZM62.3774 79.752L61.3978 79.5509L61.3693 79.6901L61.3806 79.8317L62.3774 79.752ZM63.0254 81.408L62.23 82.014L62.2371 82.0235L62.2445 82.0327L63.0254 81.408ZM79.6574 76.324C79.6238 76.324 79.5458 76.3159 79.4553 76.2657C79.3634 76.2146 79.31 76.1486 79.2859 76.1085C79.2658 76.0749 79.2732 76.0719 79.2843 76.1276C79.2952 76.1819 79.3054 76.271 79.3054 76.404H81.3054C81.3054 75.9766 81.2471 75.4899 81.0009 75.0795C80.7058 74.5877 80.2122 74.324 79.6574 74.324V76.324ZM79.3054 76.404C79.3054 77.2764 78.9516 78.2846 78.096 79.4473L79.7068 80.6327C80.7232 79.2514 81.3054 77.8356 81.3054 76.404H79.3054ZM78.094 79.45C77.2617 80.5889 76.2196 81.5452 74.9581 82.3198L76.0047 84.0242C77.4792 83.1188 78.7171 81.9871 79.7088 80.63L78.094 79.45ZM74.9581 82.3198C73.6883 83.0996 72.6097 83.432 71.7014 83.432V85.432C73.0971 85.432 74.5385 84.9244 76.0047 84.0242L74.9581 82.3198ZM71.7014 83.432C70.9974 83.432 70.4079 83.2333 69.8938 82.8433L68.685 84.4367C69.5629 85.1027 70.5814 85.432 71.7014 85.432V83.432ZM69.9072 82.8537C69.393 82.4496 69.0234 81.9288 68.7954 81.2637L66.9035 81.9123C67.2514 82.9272 67.8418 83.7744 68.6716 84.4263L69.9072 82.8537ZM67.0663 80.9661C66.5004 81.6787 65.8222 82.2526 65.0257 82.6928L65.9931 84.4432C67.0206 83.8754 67.9024 83.1293 68.6325 82.2099L67.0663 80.9661ZM65.0437 82.6831C64.2173 83.118 63.5643 83.288 63.0614 83.288V85.288C63.9985 85.288 64.9775 84.978 65.9752 84.4529L65.0437 82.6831ZM63.0614 83.288C62.6384 83.288 62.185 83.1679 61.6891 82.8818L60.6897 84.6142C61.4419 85.0481 62.2364 85.288 63.0614 85.288V83.288ZM61.7135 82.8963C61.1945 82.577 60.7607 82.1817 60.4054 81.708L58.8054 82.908C59.3141 83.5863 59.9363 84.151 60.6653 84.5997L61.7135 82.8963ZM60.4054 81.708C60.0643 81.2533 59.9342 80.8672 59.9205 80.5384L57.9223 80.6216C57.9566 81.4448 58.2825 82.2107 58.8054 82.908L60.4054 81.708ZM59.8969 80.8C60.4514 78.3409 60.9459 75.953 61.3803 73.6363L59.4145 73.2677C58.9849 75.559 58.4954 77.9231 57.9459 80.36L59.8969 80.8ZM61.378 73.6481C61.4115 73.4807 61.6259 73.0617 62.3285 72.3591L60.9143 70.9449C60.1769 71.6823 59.5753 72.4633 59.4168 73.2559L61.378 73.6481ZM62.34 72.3474C62.9789 71.6873 63.7546 71.1132 64.6774 70.6298L63.7494 68.8582C62.6562 69.4308 61.7039 70.1287 60.9028 70.9566L62.34 72.3474ZM64.6774 70.6298C65.577 70.1586 66.3782 69.952 67.0934 69.952V67.952C65.9846 67.952 64.8658 68.2734 63.7494 68.8582L64.6774 70.6298ZM67.0934 69.952C67.7253 69.952 68.4052 70.1399 69.1455 70.5718L70.1533 68.8442C69.1656 68.2681 68.1416 67.952 67.0934 67.952V69.952ZM70.5741 70.0887C70.652 69.8995 70.7139 69.7654 70.7602 69.677C70.7832 69.6331 70.7975 69.6098 70.8031 69.6013C70.8116 69.5883 70.7953 69.6163 70.7525 69.6591L69.3383 68.2449C69.1764 68.4068 69.0618 68.6092 68.9886 68.749C68.9029 68.9126 68.8148 69.1085 68.7247 69.3273L70.5741 70.0887ZM70.8263 69.5767C70.7796 69.6351 70.7237 69.6769 70.6726 69.7024C70.6251 69.7262 70.5959 69.729 70.6014 69.7283L70.3534 67.7437C69.9732 67.7912 69.5627 67.9546 69.2645 68.3273L70.8263 69.5767ZM70.5348 69.7344L73.6668 69.5544L73.552 67.5576L70.42 67.7376L70.5348 69.7344ZM73.0547 69.388L73.1627 69.46L74.2721 67.796L74.1641 67.724L73.0547 69.388ZM73.0772 67.8598C72.7005 68.1737 72.39 68.5428 72.175 68.9728L73.9638 69.8672C74.0368 69.7212 74.1583 69.5623 74.3576 69.3962L73.0772 67.8598ZM72.175 68.9728C72.002 69.3188 71.8512 69.7066 71.7189 70.1297L73.6279 70.7263C73.7357 70.3814 73.8489 70.0972 73.9638 69.8672L72.175 68.9728ZM71.7143 70.145C71.2734 71.639 70.8237 73.4397 70.3644 75.5426L72.3184 75.9694C72.7711 73.8963 73.2094 72.145 73.6325 70.711L71.7143 70.145ZM70.365 75.5403C69.9109 77.5954 69.6574 79.1241 69.6574 80.04H71.6574C71.6574 79.3719 71.8599 78.0446 72.3179 75.9717L70.365 75.5403ZM69.6574 80.04C69.6574 80.8738 69.8529 81.6569 70.2548 82.3681L71.996 81.3839C71.7739 80.9911 71.6574 80.5502 71.6574 80.04H69.6574ZM70.2712 82.3959C70.8049 83.2728 71.6609 83.704 72.6734 83.704V81.704C72.2939 81.704 72.1179 81.5832 71.9796 81.3561L70.2712 82.3959ZM72.6734 83.704C73.6731 83.704 74.6971 83.2767 75.7121 82.6001L74.6027 80.9359C73.7457 81.5073 73.1137 81.704 72.6734 81.704V83.704ZM75.7024 82.6064C76.7852 81.9026 77.7586 80.9329 78.6316 79.7261L77.0112 78.5539C76.2522 79.6031 75.4496 80.3854 74.6124 80.9296L75.7024 82.6064ZM78.6235 79.7373C79.5416 78.5043 80.2072 77.1175 80.6225 75.5857L78.6923 75.0623C78.3397 76.3625 77.7812 77.5197 77.0194 78.5427L78.6235 79.7373ZM64.2134 83.128C64.8575 83.128 65.4735 82.8194 66.0109 82.4432L64.8639 80.8048C64.4413 81.1006 64.2413 81.128 64.2134 81.128V83.128ZM66.0109 82.4432C66.602 82.0294 67.1242 81.4851 67.5854 80.834L65.9534 79.678C65.5986 80.1789 65.2328 80.5466 64.8639 80.8048L66.0109 82.4432ZM67.5694 80.856C68.0825 80.1718 68.4414 79.4116 68.6415 78.5826L66.6973 78.1134C66.5614 78.6764 66.3203 79.1882 65.9694 79.656L67.5694 80.856ZM68.6474 78.5566L69.2234 75.8566L67.2674 75.4394L66.6914 78.1394L68.6474 78.5566ZM69.2268 75.84C69.6596 73.6277 69.9555 72.1977 70.1175 71.5266L68.1733 71.0574C67.9993 71.7783 67.6952 73.2523 67.264 75.456L69.2268 75.84ZM69.5645 70.384C68.8074 70.0346 68.0042 69.86 67.1654 69.86V71.86C67.7186 71.86 68.2354 71.9734 68.7263 72.2L69.5645 70.384ZM67.1654 69.86C65.8086 69.86 64.6366 70.3052 63.8285 71.3153L65.3903 72.5647C65.7342 72.1348 66.2663 71.86 67.1654 71.86V69.86ZM63.8259 71.3186C63.1765 72.1374 62.7396 73.0705 62.516 74.1047L64.4708 74.5273C64.6312 73.7855 64.9383 73.1346 65.3929 72.5614L63.8259 71.3186ZM62.5138 74.1149L61.3978 79.5509L63.357 79.9531L64.473 74.5171L62.5138 74.1149ZM61.3806 79.8317C61.4447 80.6332 61.7362 81.366 62.23 82.014L63.8208 80.802C63.5466 80.442 63.4061 80.0708 63.3742 79.6723L61.3806 79.8317ZM62.2445 82.0327C62.72 82.627 63.373 83.128 64.2134 83.128V81.128C64.211 81.128 64.206 81.1279 64.1957 81.1248C64.1846 81.1215 64.1624 81.1132 64.1287 81.0928C64.0579 81.0499 63.9476 80.9599 63.8063 80.7833L62.2445 82.0327ZM80.9005 83.424L80.3995 84.2894L80.4128 84.2972L80.4264 84.3045L80.9005 83.424ZM78.7045 81.624L77.921 82.2454L77.9264 82.2521L77.9318 82.2587L78.7045 81.624ZM77.8765 79.968L76.9103 79.7103L76.8765 79.837V79.968H77.8765ZM78.9205 75.72L77.9454 75.4984L77.9435 75.5067L77.9417 75.5151L78.9205 75.72ZM79.6405 72.228L80.6232 72.4134L80.626 72.3987L80.6283 72.384L79.6405 72.228ZM83.1325 69.312L83.5206 70.2337L83.5321 70.2287L83.1325 69.312ZM88.4245 69.42L87.949 70.2997L87.9583 70.3047L87.9677 70.3096L88.4245 69.42ZM87.6685 73.704L87.426 74.6741L87.722 74.7482L88.009 74.6443L87.6685 73.704ZM87.5245 73.668L86.5261 73.7235L86.567 74.4594L87.282 74.6381L87.5245 73.668ZM86.7685 71.328L85.911 71.8425L85.9212 71.8595L85.9321 71.876L86.7685 71.328ZM83.6005 71.112L82.908 70.3906L82.9006 70.3977L82.8934 70.4049L83.6005 71.112ZM82.5925 72.768L83.5757 72.9509L83.5764 72.9469L82.5925 72.768ZM81.2245 79.644L80.2458 79.4389L80.2088 79.6155L80.2358 79.7938L81.2245 79.644ZM82.1245 81.516L81.4358 82.241L81.4446 82.2494L81.4536 82.2575L82.1245 81.516ZM89.6125 80.868L90.0798 81.7521L90.0844 81.7497L89.6125 80.868ZM93.6805 75.648V74.648H92.9988L92.7497 75.2826L93.6805 75.648ZM92.6005 80.148L93.3003 80.8624L93.3005 80.8622L92.6005 80.148ZM88.3165 83.028L88.7323 83.9375L88.7323 83.9375L88.3165 83.028ZM83.8885 83.18C82.9992 83.18 82.1659 82.9696 81.3746 82.5435L80.4264 84.3045C81.5071 84.8864 82.6659 85.18 83.8885 85.18V83.18ZM81.4016 82.5586C80.5719 82.0782 79.939 81.5514 79.4773 80.9893L77.9318 82.2587C78.574 83.0406 79.4052 83.7138 80.3995 84.2894L81.4016 82.5586ZM79.488 81.0026C79.2379 80.6873 79.0749 80.4347 78.978 80.2408C78.8769 80.0387 78.8765 79.9576 78.8765 79.968H76.8765C76.8765 80.3864 77.0142 80.7853 77.1891 81.1352C77.3682 81.4933 77.6191 81.8647 77.921 82.2454L79.488 81.0026ZM78.8428 80.2257C79.3245 78.4192 79.6778 76.983 79.8993 75.9249L77.9417 75.5151C77.7312 76.521 77.3886 77.9168 76.9103 79.7103L78.8428 80.2257ZM79.8957 75.9416C80.1389 74.8716 80.3813 73.6953 80.6232 72.4134L78.6579 72.0426C78.4197 73.3047 78.1822 74.4564 77.9454 75.4984L79.8957 75.9416ZM80.6283 72.384C80.6403 72.308 80.7615 72.0061 81.3913 71.4887L80.1218 69.9433C79.4076 70.5299 78.7848 71.236 78.6528 72.072L80.6283 72.384ZM81.3913 71.4887C81.9792 71.0058 82.6855 70.5852 83.5206 70.2336L82.7445 68.3904C81.7555 68.8068 80.8779 69.3222 80.1218 69.9433L81.3913 71.4887ZM83.5321 70.2287C84.3815 69.8585 85.0953 69.7 85.6885 69.7V67.7C84.7457 67.7 83.7556 67.9495 82.7329 68.3953L83.5321 70.2287ZM85.6885 69.7C86.4456 69.7 87.1953 69.8923 87.949 70.2997L88.9 68.5403C87.8778 67.9877 86.8034 67.7 85.6885 67.7V69.7ZM87.9677 70.3096C88.2991 70.4797 88.4872 70.6567 88.5938 70.8152C88.6952 70.9659 88.7565 71.1489 88.7565 71.4H90.7565C90.7565 70.7871 90.5959 70.2081 90.2533 69.6988C89.9158 69.1973 89.438 68.8163 88.8813 68.5304L87.9677 70.3096ZM88.7565 71.4C88.7565 71.6666 88.6757 71.8775 88.4935 72.0785C88.292 72.3009 87.9322 72.545 87.3281 72.7637L88.009 74.6443C88.7969 74.359 89.4811 73.9671 89.9755 73.4215C90.4894 72.8545 90.7565 72.1654 90.7565 71.4H88.7565ZM87.9111 72.7339L87.7671 72.6979L87.282 74.6381L87.426 74.6741L87.9111 72.7339ZM88.523 73.6125C88.4656 72.5803 88.1613 71.6291 87.605 70.78L85.9321 71.876C86.2878 72.4189 86.4874 73.0277 86.5261 73.7235L88.523 73.6125ZM87.626 70.8135C87.1144 69.9607 86.3556 69.248 85.2925 69.248V71.248C85.3335 71.248 85.5587 71.2552 85.911 71.8425L87.626 70.8135ZM85.2925 69.248C84.3921 69.248 83.5911 69.7348 82.908 70.3906L84.2931 71.8334C84.81 71.3372 85.137 71.248 85.2925 71.248V69.248ZM82.8934 70.4049C82.2434 71.0549 81.7554 71.7819 81.6087 72.5891L83.5764 72.9469C83.6216 72.6981 83.8056 72.3211 84.3076 71.8191L82.8934 70.4049ZM81.6094 72.5851C81.227 74.6403 80.7726 76.9247 80.2458 79.4389L82.2033 79.8491C82.7325 77.3233 83.19 75.0237 83.5757 72.9509L81.6094 72.5851ZM80.2358 79.7938C80.3819 80.758 80.763 81.6018 81.4358 82.241L82.8133 80.791C82.5261 80.5182 82.3072 80.114 82.2132 79.4942L80.2358 79.7938ZM81.4536 82.2575C82.2435 82.9722 83.4415 83.2 84.7525 83.2V81.2C83.5675 81.2 83.0136 80.9718 82.7954 80.7745L81.4536 82.2575ZM84.7525 83.2C86.5073 83.2 88.2869 82.6998 90.0798 81.7521L89.1452 79.9839C87.5782 80.8122 86.1178 81.2 84.7525 81.2V83.2ZM90.0844 81.7497C92.0718 80.686 93.5531 78.7095 94.6114 76.0134L92.7497 75.2826C91.792 77.7225 90.5613 79.226 89.1407 79.9863L90.0844 81.7497ZM93.6805 76.648C93.6843 76.648 93.6397 76.6485 93.5726 76.6172C93.5003 76.5834 93.4428 76.5317 93.4068 76.4812C93.3752 76.437 93.3753 76.4155 93.3827 76.4466C93.3902 76.4782 93.4005 76.5443 93.4005 76.656H95.4005C95.4005 76.2312 95.3301 75.7329 95.0343 75.3188C94.6941 74.8426 94.1834 74.648 93.6805 74.648V76.648ZM93.4005 76.656C93.4005 77.4368 92.9969 78.3594 91.9006 79.4338L93.3005 80.8622C94.6042 79.5846 95.4005 78.1792 95.4005 76.656H93.4005ZM91.9008 79.4336C90.8169 80.4954 89.4883 81.3928 87.9008 82.1185L88.7323 83.9375C90.5048 83.1272 92.0322 82.1046 93.3003 80.8624L91.9008 79.4336ZM87.9008 82.1185C86.2969 82.8517 84.9674 83.18 83.8885 83.18V85.18C85.3537 85.18 86.9762 84.7403 88.7323 83.9375L87.9008 82.1185ZM102.522 68.952V67.952H101.663L101.534 68.8016L102.522 68.952ZM104.538 69.168L104.354 70.1509L104.371 70.1541L104.388 70.1567L104.538 69.168ZM105.834 69.78L106.814 69.9809L106.859 69.7581L106.804 69.5375L105.834 69.78ZM104.43 76.296L103.454 76.0781L103.454 76.0781L104.43 76.296ZM102.954 82.38L101.989 82.1169L101.988 82.1236L102.954 82.38ZM96.4742 96.564L95.6648 95.9767L95.6625 95.98L96.4742 96.564ZM79.6262 101.208L80.2318 100.412L80.2206 100.404L79.6262 101.208ZM78.7262 95.952L79.5111 95.3324L78.7203 94.3307L77.9368 95.3381L78.7262 95.952ZM91.9022 97.572L91.3621 96.7304L91.3621 96.7304L91.9022 97.572ZM96.3302 92.316L97.2087 92.7937L97.2087 92.7937L96.3302 92.316ZM100.074 82.2L101.04 82.4604L101.757 79.8016L99.5007 81.3808L100.074 82.2ZM97.8782 83.496L98.2898 84.4074L98.3018 84.4019L98.3137 84.3962L97.8782 83.496ZM94.3862 83.568L93.939 84.4624L93.9529 84.4694L93.9671 84.476L94.3862 83.568ZM92.7662 82.38L92.0229 83.049L92.0319 83.059L92.0412 83.0687L92.7662 82.38ZM92.1182 80.868L91.1376 80.6719L91.1182 80.769V80.868H92.1182ZM92.6942 77.592L93.6802 77.7587L93.6818 77.7489L93.6833 77.7391L92.6942 77.592ZM94.0622 70.032L95.0379 70.2513L95.04 70.2415L94.0622 70.032ZM96.6902 69.096L96.5855 70.0905L96.6115 70.0932L96.6376 70.0946L96.6902 69.096ZM97.5902 69.204L98.567 69.4181L98.7595 68.5397L97.9064 68.2553L97.5902 69.204ZM96.0422 77.196L95.0582 77.0177L95.0564 77.0275L95.0549 77.0373L96.0422 77.196ZM95.5022 80.184L94.526 79.9671L94.5072 80.0518L94.5032 80.1386L95.5022 80.184ZM95.9342 81.516L95.1785 82.1709L95.1897 82.1839L95.2014 82.1965L95.9342 81.516ZM98.8862 81.3L99.4283 82.1403L99.4348 82.136L98.8862 81.3ZM100.614 79.788L101.41 80.394L101.557 80.2007L101.599 79.9613L100.614 79.788ZM101.298 75.9L100.315 75.7193L100.313 75.7267L101.298 75.9ZM102.522 69.952C103.019 69.952 103.627 70.0145 104.354 70.1509L104.722 68.1851C103.914 68.0335 103.177 67.952 102.522 67.952V69.952ZM104.388 70.1567C104.744 70.2106 104.94 70.2733 105.029 70.3152C105.07 70.3346 105.053 70.3335 105.014 70.2953C104.969 70.2517 104.899 70.1614 104.864 70.0225L106.804 69.5375C106.661 68.9636 106.207 68.6594 105.883 68.5068C105.54 68.3447 105.124 68.2454 104.688 68.1793L104.388 70.1567ZM104.855 69.5791C104.472 71.4439 104.005 73.61 103.454 76.0781L105.406 76.5139C105.959 74.038 106.428 71.8601 106.814 69.9809L104.855 69.5791ZM103.454 76.0781C102.904 78.5421 102.416 80.5536 101.989 82.1169L103.919 82.6431C104.357 81.0384 104.852 78.9939 105.406 76.5139L103.454 76.0781ZM101.988 82.1236C100.55 87.545 98.4371 92.1561 95.6648 95.9767L97.2836 97.1513C100.223 93.0999 102.431 88.255 103.921 82.6364L101.988 82.1236ZM95.6625 95.98C93.027 99.6429 89.3994 101.468 84.6662 101.468V103.468C90.0129 103.468 94.2574 101.357 97.2859 97.148L95.6625 95.98ZM84.6662 101.468C82.5027 101.468 81.0826 101.06 80.2317 100.412L79.0207 102.004C80.3778 103.036 82.3176 103.468 84.6662 103.468V101.468ZM80.2206 100.404C79.336 99.75 78.9702 99.0129 78.9702 98.148H76.9702C76.9702 99.7311 77.7084 101.034 79.0318 102.012L80.2206 100.404ZM78.9702 98.148C78.9702 97.5558 79.1472 97.0396 79.5155 96.5659L77.9368 95.3381C77.2972 96.1604 76.9702 97.1082 76.9702 98.148H78.9702ZM77.9413 96.5716C78.7815 97.6359 79.9425 98.4804 81.3724 99.1304L82.2 97.3096C80.9899 96.7596 80.1108 96.0921 79.5111 95.3324L77.9413 96.5716ZM81.3724 99.1304C82.8465 99.8004 84.5286 100.12 86.3942 100.12V98.12C84.7558 98.12 83.3659 97.8396 82.2 97.3096L81.3724 99.1304ZM86.3942 100.12C88.6337 100.12 90.6602 99.5573 92.4423 98.4136L91.3621 96.7304C89.9282 97.6507 88.2827 98.12 86.3942 98.12V100.12ZM92.4423 98.4136C94.2433 97.2578 95.8196 95.3486 97.2087 92.7937L95.4516 91.8383C94.1528 94.2274 92.7771 95.8222 91.3621 96.7304L92.4423 98.4136ZM97.2087 92.7937C98.6051 90.2254 99.8775 86.7702 101.04 82.4604L99.1087 81.9396C97.9669 86.1738 96.7433 89.4626 95.4516 91.8383L97.2087 92.7937ZM99.5007 81.3808C98.8217 81.8561 98.1357 82.2605 97.4426 82.5958L98.3137 84.3962C99.1087 84.0115 99.8867 83.5519 100.648 83.0192L99.5007 81.3808ZM97.4666 82.5846C96.7736 82.8976 96.314 83 96.0422 83V85C96.7303 85 97.4948 84.7664 98.2898 84.4074L97.4666 82.5846ZM96.0422 83C95.7554 83 95.3505 82.9117 94.8052 82.66L93.9671 84.476C94.6699 84.8003 95.369 85 96.0422 85V83ZM94.8334 82.6736C94.3076 82.4107 93.863 82.0826 93.4912 81.6913L92.0412 83.0687C92.5814 83.6374 93.2168 84.1013 93.939 84.4624L94.8334 82.6736ZM93.5095 81.711C93.2041 81.3718 93.1182 81.0968 93.1182 80.868H91.1182C91.1182 81.6952 91.4642 82.4282 92.0229 83.049L93.5095 81.711ZM93.0988 81.0641C93.1983 80.5664 93.3929 79.4584 93.6802 77.7587L91.7082 77.4253C91.4195 79.1336 91.2301 80.2096 91.1376 80.6719L93.0988 81.0641ZM93.6833 77.7391C94.1128 74.8518 94.5647 72.3569 95.0379 70.2513L93.0865 69.8127C92.5997 71.9791 92.1395 74.5242 91.7051 77.4449L93.6833 77.7391ZM95.04 70.2415C95.0544 70.1742 95.0718 70.1427 95.0789 70.1318C95.0846 70.1228 95.0901 70.1166 95.1029 70.108C95.1344 70.087 95.2591 70.024 95.5742 70.024V68.024C95.0253 68.024 94.4659 68.129 93.9935 68.4439C93.4951 68.7762 93.203 69.2689 93.0844 69.8225L95.04 70.2415ZM95.5742 70.024C95.813 70.024 96.1465 70.0443 96.5855 70.0905L96.7949 68.1015C96.3218 68.0517 95.9113 68.024 95.5742 68.024V70.024ZM96.6376 70.0946C96.8534 70.106 97.0183 70.1195 97.138 70.1339C97.2731 70.1501 97.3016 70.1619 97.274 70.1527L97.9064 68.2553C97.6124 68.1573 97.1748 68.1201 96.7427 68.0974L96.6376 70.0946ZM96.6134 68.9899C96.2253 70.7605 95.7067 73.4392 95.0582 77.0177L97.0262 77.3743C97.6737 73.8008 98.1871 71.1515 98.567 69.4181L96.6134 68.9899ZM95.0549 77.0373C94.8395 78.3776 94.6633 79.3494 94.526 79.9671L96.4784 80.4009C96.6291 79.7226 96.8129 78.7024 97.0295 77.3547L95.0549 77.0373ZM94.5032 80.1386C94.469 80.8921 94.6797 81.5954 95.1785 82.1709L96.6899 80.8611C96.5647 80.7166 96.4874 80.5319 96.5012 80.2294L94.5032 80.1386ZM95.2014 82.1965C95.6767 82.7083 96.2922 83.02 97.0142 83.02V81.02C96.9201 81.02 96.8157 80.9957 96.667 80.8355L95.2014 82.1965ZM97.0142 83.02C97.8072 83.02 98.6298 82.6555 99.4283 82.1403L98.3441 80.4597C97.6546 80.9045 97.2292 81.02 97.0142 81.02V83.02ZM99.4348 82.136C100.259 81.5954 100.934 81.0188 101.41 80.394L99.8188 79.182C99.5268 79.5652 99.0496 79.9966 98.3375 80.464L99.4348 82.136ZM101.599 79.9613L102.283 76.0733L100.313 75.7267L99.6293 79.6147L101.599 79.9613ZM102.282 76.0807C102.929 72.5559 103.34 70.2244 103.511 69.1024L101.534 68.8016C101.368 69.8876 100.963 72.1881 100.315 75.7193L102.282 76.0807ZM121.258 81.696L120.542 82.3942L120.551 82.4031L121.258 81.696ZM120.322 65.568L119.445 65.0885L119.441 65.0955L120.322 65.568ZM141.094 60.924L140.387 61.6312L140.396 61.6401L141.094 60.924ZM142.066 76.872L142.952 77.337L142.952 77.337L142.066 76.872ZM136.81 82.488L137.329 83.3431L137.329 83.3431L136.81 82.488ZM135.37 80.724L134.765 79.9283L134.759 79.9327L135.37 80.724ZM138.97 75.864L138.043 75.4888L138.039 75.4983L138.97 75.864ZM126.982 61.824L127.586 62.6211L127.594 62.6153L126.982 61.824ZM123.346 66.72L124.271 67.1008L124.272 67.097L123.346 66.72ZM124.03 80.292L124.789 79.6412L124.789 79.6412L124.03 80.292ZM129.106 83.54C125.967 83.54 123.63 82.6539 121.965 80.9889L120.551 82.4031C122.678 84.5301 125.574 85.54 129.106 85.54V83.54ZM121.974 80.9979C120.338 79.3202 119.45 76.8567 119.45 73.452H117.45C117.45 77.1993 118.434 80.2318 120.542 82.3941L121.974 80.9979ZM119.45 73.452C119.45 70.6706 120.042 68.2079 121.204 66.0405L119.441 65.0955C118.107 67.5841 117.45 70.3774 117.45 73.452H119.45ZM121.2 66.0475C122.386 63.8763 124.022 62.186 126.119 60.9591L125.109 59.2329C122.694 60.646 120.802 62.6037 119.445 65.0885L121.2 66.0475ZM126.119 60.9591C128.208 59.7369 130.587 59.116 133.282 59.116V57.116C130.266 57.116 127.532 57.8151 125.109 59.2329L126.119 60.9591ZM133.282 59.116C136.426 59.116 138.748 59.9924 140.387 61.6311L141.801 60.2169C139.696 58.1116 136.811 57.116 133.282 57.116V59.116ZM140.396 61.6401C142.041 63.2436 142.938 65.6366 142.938 68.988H144.938C144.938 65.2834 143.939 62.3004 141.792 60.2079L140.396 61.6401ZM142.938 68.988C142.938 71.7181 142.348 74.1848 141.181 76.407L142.952 77.337C144.28 74.8072 144.938 72.0179 144.938 68.988H142.938ZM141.181 76.407C140.016 78.625 138.389 80.3609 136.292 81.6329L137.329 83.3431C139.743 81.8791 141.621 79.871 142.952 77.337L141.181 76.407ZM136.292 81.6329C134.206 82.8975 131.821 83.54 129.106 83.54V85.54C132.152 85.54 134.902 84.8145 137.329 83.3431L136.292 81.6329ZM129.61 83.56C132.058 83.56 134.201 82.8916 135.982 81.5153L134.759 79.9327C133.372 81.0044 131.674 81.56 129.61 81.56V83.56ZM135.976 81.5197C137.74 80.1768 139.047 78.4033 139.901 76.2297L138.039 75.4983C137.309 77.3567 136.216 78.8232 134.765 79.9283L135.976 81.5197ZM139.897 76.2392C140.765 74.0946 141.194 71.782 141.194 69.312H139.194C139.194 71.546 138.807 73.6014 138.043 75.4888L139.897 76.2392ZM141.194 69.312C141.194 66.0478 140.488 63.4218 138.889 61.6269L137.395 62.9571C138.533 64.2342 139.194 66.2882 139.194 69.312H141.194ZM138.889 61.6269C137.303 59.8462 135.154 58.988 132.562 58.988V60.988C134.674 60.988 136.245 61.6658 137.395 62.9571L138.889 61.6269ZM132.562 58.988C130.221 58.988 128.142 59.664 126.371 61.0327L127.594 62.6153C128.99 61.536 130.632 60.988 132.562 60.988V58.988ZM126.378 61.0269C124.634 62.3482 123.319 64.1333 122.42 66.343L124.272 67.097C125.053 65.1787 126.162 63.6998 127.586 62.6211L126.378 61.0269ZM122.422 66.3392C121.526 68.5138 121.086 70.9011 121.086 73.488H123.086C123.086 71.1309 123.486 69.0062 124.271 67.1007L122.422 66.3392ZM121.086 73.488C121.086 76.6317 121.757 79.176 123.271 80.9428L124.789 79.6412C123.712 78.384 123.086 76.3923 123.086 73.488H121.086ZM123.271 80.9428C124.798 82.7241 126.964 83.56 129.61 83.56V81.56C127.409 81.56 125.855 80.8839 124.789 79.6412L123.271 80.9428ZM166.546 75.936V74.936H165.846L165.606 75.5943L166.546 75.936ZM167.05 76.188L166.236 76.7692L166.258 76.7996L166.282 76.8282L167.05 76.188ZM166.006 79.644L165.164 79.104L165.162 79.1082L166.006 79.644ZM162.802 82.992L163.383 83.8058L163.393 83.7989L162.802 82.992ZM155.422 83.532L154.741 84.2648L154.755 84.2774L154.769 84.2894L155.422 83.532ZM154.738 78.852L153.773 78.5911L153.769 78.6033L153.766 78.6156L154.738 78.852ZM155.71 75.504L154.754 75.2099L154.753 75.2135L155.71 75.504ZM156.646 72.156L157.617 72.393L157.666 72.1938L157.632 71.9916L156.646 72.156ZM154.414 73.236L153.745 72.4927L153.745 72.4927L154.414 73.236ZM149.842 78.564L148.916 78.1854L148.884 78.2641L148.866 78.3471L149.842 78.564ZM149.05 82.452L150.038 82.6041L150.039 82.5985L149.05 82.452ZM148.87 83.496L147.921 83.1798L147.921 83.1798L148.87 83.496ZM148.798 83.784L149.768 84.0265L149.774 84.0035L149.779 83.9801L148.798 83.784ZM148.69 83.964L148.243 83.0696L148.098 83.1421L147.983 83.2569L148.69 83.964ZM146.854 83.928L146.792 84.9261L146.792 84.9261L146.854 83.928ZM145.702 83.712L144.716 83.5476L144.702 83.6292V83.712H145.702ZM146.818 78.312L147.795 78.5262L147.799 78.5071L147.802 78.4878L146.818 78.312ZM146.998 77.34H145.998L147.978 77.5404L146.998 77.34ZM148.618 69.42L149.598 69.6204L149.604 69.5911L149.608 69.5614L148.618 69.42ZM148.762 69.132L149.078 70.0807L149.146 70.0582L149.209 70.0264L148.762 69.132ZM151.75 69.6L152.72 69.8425L152.885 69.182L152.331 68.7863L151.75 69.6ZM151.354 71.4L152.33 71.6169L152.331 71.6124L151.354 71.4ZM150.31 75.54L149.345 75.278L151.082 76.1757L150.31 75.54ZM154.45 71.112L155.132 71.8435L155.132 71.8435L154.45 71.112ZM158.914 69.528L158.598 70.4767L158.606 70.4794L158.914 69.528ZM160.21 70.176L161.177 70.4319L161.247 70.1659L161.171 69.9013L160.21 70.176ZM159.562 72.624L160.525 72.8933L160.529 72.8799L159.562 72.624ZM158.158 77.952L157.185 77.722L157.185 77.722L158.158 77.952ZM161.974 81.66L162.524 82.4952L162.529 82.4921L161.974 81.66ZM164.71 79.104L163.927 78.4815L163.926 78.4838L164.71 79.104ZM166.546 76.936C166.522 76.936 166.461 76.9306 166.387 76.8934C166.311 76.8554 166.261 76.8045 166.236 76.7692L167.864 75.6068C167.546 75.1619 167.067 74.936 166.546 74.936V76.936ZM166.282 76.8282C166.268 76.8113 166.256 76.7939 166.247 76.7772C166.238 76.7607 166.233 76.7471 166.23 76.7383C166.225 76.7212 166.23 76.7262 166.23 76.764H168.23C168.23 76.357 168.126 75.917 167.818 75.5478L166.282 76.8282ZM166.23 76.764C166.23 76.8965 166.183 77.1561 166.004 77.5789C165.829 77.9898 165.554 78.4963 165.164 79.104L166.848 80.184C167.274 79.5197 167.611 78.9102 167.844 78.3611C168.073 77.8239 168.23 77.2795 168.23 76.764H166.23ZM165.162 79.1082C164.444 80.2383 163.467 81.2656 162.211 82.1851L163.393 83.7989C164.825 82.7504 165.983 81.5457 166.85 80.1798L165.162 79.1082ZM162.221 82.1783C161.044 83.0187 159.759 83.432 158.338 83.432V85.432C160.181 85.432 161.872 84.8853 163.383 83.8057L162.221 82.1783ZM158.338 83.432C157.243 83.432 156.533 83.1697 156.075 82.7746L154.769 84.2894C155.703 85.0943 156.936 85.432 158.338 85.432V83.432ZM156.102 82.7992C155.656 82.3843 155.414 81.8446 155.414 81.084H153.414C153.414 82.3394 153.844 83.4317 154.741 84.2648L156.102 82.7992ZM155.414 81.084C155.414 80.5935 155.504 79.9348 155.71 79.0884L153.766 78.6156C153.54 79.5452 153.414 80.3745 153.414 81.084H155.414ZM155.703 79.1129C155.94 78.2385 156.26 77.1332 156.667 75.7945L154.753 75.2135C154.343 76.5628 154.016 77.6895 153.773 78.5911L155.703 79.1129ZM156.666 75.7981C157.054 74.5363 157.372 73.4007 157.617 72.393L155.674 71.919C155.44 72.8793 155.134 73.9757 154.754 75.2099L156.666 75.7981ZM157.632 71.9916C157.588 71.7241 157.452 71.4164 157.156 71.194C156.878 70.9853 156.574 70.94 156.358 70.94V72.94C156.31 72.94 156.138 72.9307 155.956 72.794C155.755 72.6436 155.68 72.4439 155.66 72.3204L157.632 71.9916ZM156.358 70.94C156.077 70.94 155.828 71.0252 155.645 71.1054C155.451 71.1906 155.256 71.3047 155.065 71.4319C154.684 71.6864 154.241 72.0465 153.745 72.4927L155.083 73.9793C155.547 73.5615 155.908 73.2736 156.175 73.0961C156.308 73.0073 156.398 72.9594 156.449 72.9366C156.513 72.9088 156.471 72.94 156.358 72.94V70.94ZM153.745 72.4927C152.751 73.3871 151.774 74.3891 150.814 75.4971L152.326 76.8069C153.237 75.7549 154.157 74.8129 155.083 73.9793L153.745 72.4927ZM150.814 75.4971C149.883 76.572 149.202 77.4875 148.916 78.1854L150.767 78.9426C150.914 78.5845 151.385 77.892 152.326 76.8069L150.814 75.4971ZM148.866 78.3471C148.435 80.2849 148.163 81.616 148.061 82.3055L150.039 82.5985C150.129 81.992 150.385 80.7311 150.818 78.7809L148.866 78.3471ZM148.062 82.2999C148.014 82.6098 147.976 82.8459 147.947 83.0111C147.933 83.0942 147.922 83.1541 147.914 83.1941C147.902 83.2541 147.905 83.2297 147.921 83.1798L149.819 83.8122C149.861 83.6865 149.895 83.4894 149.918 83.3509C149.95 83.1681 149.99 82.9182 150.038 82.6041L148.062 82.2999ZM147.921 83.1798C147.879 83.3074 147.845 83.4486 147.817 83.5879L149.779 83.9801C149.799 83.8794 149.813 83.8286 149.819 83.8122L147.921 83.1798ZM147.828 83.5415C147.831 83.53 147.847 83.4681 147.895 83.3865C147.946 83.3021 148.052 83.1649 148.243 83.0696L149.137 84.8584C149.598 84.6282 149.729 84.1848 149.768 84.0265L147.828 83.5415ZM147.983 83.2569C148.145 83.095 148.317 83.0399 148.393 83.0209C148.476 83.0003 148.534 83 148.546 83V85C148.63 85 148.748 84.9937 148.878 84.9611C149.003 84.9301 149.211 84.857 149.397 84.6711L147.983 83.2569ZM148.546 83C148.219 83 147.681 82.9778 146.916 82.9299L146.792 84.9261C147.563 84.9742 148.153 85 148.546 85V83ZM146.916 82.9299C146.542 82.9066 146.304 82.8794 146.174 82.8551C146.101 82.8413 146.117 82.8383 146.175 82.8633C146.201 82.8747 146.298 82.9185 146.404 83.0173C146.516 83.1227 146.702 83.357 146.702 83.712H144.702C144.702 84.091 144.9 84.3485 145.036 84.4764C145.165 84.5977 145.299 84.6633 145.373 84.6957C145.526 84.7627 145.687 84.7987 145.806 84.8209C146.06 84.8686 146.398 84.9014 146.792 84.9261L146.916 82.9299ZM146.688 83.8764C146.827 83.042 147.194 81.2675 147.795 78.5262L145.841 78.0978C145.242 80.8285 144.864 82.654 144.716 83.5476L146.688 83.8764ZM147.802 78.4878C147.862 78.1522 147.907 77.9058 147.936 77.7471C147.951 77.6667 147.961 77.6134 147.967 77.5834C147.971 77.5649 147.971 77.5674 147.968 77.5789C147.967 77.5827 147.965 77.5925 147.961 77.6055C147.96 77.6105 147.949 77.6499 147.931 77.6986C147.926 77.7113 147.895 77.793 147.835 77.8852C147.812 77.9203 147.725 78.0534 147.56 78.1657C147.352 78.307 146.922 78.4594 146.483 78.1963C146.177 78.0127 146.078 77.7341 146.059 77.6825C146.025 77.5896 146.013 77.5126 146.008 77.4806C145.998 77.4107 145.998 77.3556 145.998 77.34H147.998C147.998 77.3236 147.998 77.268 147.988 77.1977C147.983 77.1654 147.971 77.0883 147.937 76.9953C147.918 76.9436 147.818 76.6649 147.512 76.4813C147.074 76.2181 146.643 76.3705 146.435 76.5118C146.27 76.6242 146.183 76.7574 146.16 76.7926C146.1 76.8851 146.069 76.9672 146.064 76.9806C146.045 77.0305 146.034 77.0717 146.032 77.0793C146.027 77.0949 146.024 77.1079 146.022 77.1157C146.016 77.143 146.01 77.1721 146.006 77.1911C145.997 77.2361 145.985 77.3013 145.97 77.3829C145.939 77.5482 145.894 77.7998 145.834 78.1362L147.802 78.4878ZM147.978 77.5404L149.598 69.6204L147.638 69.2196L146.018 77.1396L147.978 77.5404ZM149.608 69.5614C149.612 69.5295 149.61 69.5819 149.566 69.6692C149.521 69.7591 149.383 69.9792 149.078 70.0807L148.446 68.1833C148.069 68.3088 147.87 68.5889 147.778 68.7748C147.686 68.9581 147.647 69.1425 147.628 69.2786L149.608 69.5614ZM149.209 70.0264C149.154 70.0538 149.114 70.0649 149.102 70.0681C149.088 70.0718 149.086 70.0712 149.101 70.0692C149.115 70.0674 149.139 70.0649 149.174 70.063C149.208 70.0612 149.251 70.06 149.302 70.06V68.06C149.144 68.06 148.985 68.067 148.837 68.0868C148.702 68.1047 148.507 68.1415 148.315 68.2376L149.209 70.0264ZM149.302 70.06C150.37 70.06 150.925 70.2395 151.169 70.4137L152.331 68.7863C151.567 68.2405 150.489 68.06 149.302 68.06V70.06ZM150.78 69.3575C150.751 69.4732 150.614 70.0975 150.377 71.1876L152.331 71.6124C152.451 71.0607 152.544 70.6356 152.61 70.3369C152.642 70.1874 152.668 70.0703 152.687 69.9852C152.697 69.9426 152.705 69.9089 152.71 69.8835C152.713 69.8709 152.716 69.8609 152.717 69.8535C152.719 69.8455 152.72 69.8424 152.72 69.8425L150.78 69.3575ZM150.378 71.1831C150.142 72.242 149.799 73.6056 149.345 75.278L151.275 75.802C151.733 74.1144 152.085 72.718 152.33 71.6169L150.378 71.1831ZM151.082 76.1757C152.401 74.5745 153.751 73.131 155.132 71.8435L153.768 70.3805C152.317 71.733 150.907 73.2415 149.538 74.9043L151.082 76.1757ZM155.132 71.8435C155.824 71.1982 156.377 70.7408 156.798 70.451C157.009 70.3062 157.167 70.2172 157.277 70.1674C157.399 70.1125 157.405 70.132 157.33 70.132V68.132C157.003 68.132 156.7 68.234 156.455 68.3441C156.2 68.4593 155.935 68.6178 155.665 68.803C155.127 69.1732 154.492 69.7058 153.768 70.3805L155.132 71.8435ZM157.33 70.132C157.32 70.132 157.343 70.1316 157.413 70.1431C157.478 70.154 157.567 70.1725 157.681 70.2011C157.911 70.2586 158.215 70.349 158.598 70.4767L159.23 68.5793C158.821 68.443 158.465 68.3354 158.166 68.2609C157.888 68.1913 157.591 68.132 157.33 68.132V70.132ZM158.606 70.4794C158.997 70.6059 159.253 70.7078 159.403 70.7824C159.479 70.8206 159.494 70.8354 159.477 70.8219C159.467 70.814 159.434 70.786 159.393 70.7354C159.353 70.6858 159.288 70.5909 159.248 70.4507L161.171 69.9013C161.073 69.5582 160.84 69.3508 160.727 69.2601C160.59 69.1506 160.437 69.0634 160.297 68.9936C160.014 68.8522 159.647 68.7141 159.222 68.5766L158.606 70.4794ZM159.243 69.9201L158.595 72.3681L160.529 72.8799L161.177 70.4319L159.243 69.9201ZM158.599 72.3548C157.973 74.5921 157.501 76.3829 157.185 77.722L159.131 78.182C159.439 76.8811 159.902 75.1199 160.525 72.8932L158.599 72.3548ZM157.185 77.722C156.868 79.0605 156.69 80.1603 156.69 80.976H158.69C158.69 80.3997 158.824 79.4835 159.131 78.182L157.185 77.722ZM156.69 80.976C156.69 81.666 156.85 82.3697 157.346 82.9009C157.855 83.4448 158.55 83.632 159.238 83.632V81.632C158.894 81.632 158.815 81.5432 158.807 81.5351C158.788 81.5143 158.69 81.39 158.69 80.976H156.69ZM159.238 83.632C160.337 83.632 161.44 83.2091 162.524 82.4952L161.424 80.8248C160.54 81.4069 159.818 81.632 159.238 81.632V83.632ZM162.529 82.4921C163.631 81.7571 164.619 80.8314 165.494 79.7242L163.926 78.4838C163.169 79.4406 162.333 80.2189 161.419 80.8279L162.529 82.4921ZM165.493 79.7265C166.387 78.6025 167.058 77.4532 167.486 76.2777L165.606 75.5943C165.266 76.5308 164.713 77.4935 163.927 78.4815L165.493 79.7265ZM185.302 75.324V74.324H184.537L184.337 75.0623L185.302 75.324ZM184.546 80.04L183.74 79.4473L183.739 79.45L184.546 80.04ZM181.126 83.172L181.649 84.0242L181.649 84.0242L181.126 83.172ZM174.934 83.64L174.316 84.4263L174.323 84.4316L174.33 84.4367L174.934 83.64ZM173.494 81.588L174.44 81.2637L173.847 79.5351L172.711 80.9661L173.494 81.588ZM171.154 83.568L171.62 84.4529L171.629 84.4482L171.638 84.4432L171.154 83.568ZM166.834 83.748L166.31 84.5997L166.322 84.6071L166.334 84.6142L166.834 83.748ZM165.25 82.308L164.45 82.908L164.45 82.908L165.25 82.308ZM164.566 80.58L163.59 80.36L163.561 80.4893L163.567 80.6216L164.566 80.58ZM166.042 73.452L165.061 73.2559L165.059 73.2677L166.042 73.452ZM167.266 71.652L167.973 72.3591L167.979 72.3533L167.985 72.3474L167.266 71.652ZM169.858 69.744L169.394 68.8582L169.394 68.8582L169.858 69.744ZM175.294 69.708L174.79 70.5718L175.782 71.1502L176.219 70.0887L175.294 69.708ZM175.69 68.952L176.397 69.6591L176.436 69.6199L176.471 69.5767L175.69 68.952ZM176.122 68.736L176.065 67.7376L176.031 67.7396L175.998 67.7437L176.122 68.736ZM179.254 68.556L179.809 67.724L179.53 67.5385L179.197 67.5576L179.254 68.556ZM179.362 68.628L180.002 69.3962L181.031 68.5388L179.917 67.796L179.362 68.628ZM178.714 69.42L177.82 68.9728L177.82 68.9728L178.714 69.42ZM178.318 70.428L177.363 70.1297L177.361 70.1373L177.359 70.145L178.318 70.428ZM176.986 75.756L177.962 75.9717L177.963 75.9694L176.986 75.756ZM176.77 81.876L175.899 82.3681L175.907 82.3821L175.916 82.3959L176.77 81.876ZM180.802 81.768L180.257 80.9295L180.247 80.9359L180.802 81.768ZM183.466 79.14L182.664 78.5427L182.656 78.5539L183.466 79.14ZM171.082 81.624L171.655 82.4432L171.655 82.4432L171.082 81.624ZM172.414 80.256L171.614 79.656L171.606 79.6669L171.598 79.678L172.414 80.256ZM173.314 78.348L174.286 78.5826L174.289 78.5697L174.292 78.5566L173.314 78.348ZM173.89 75.648L174.868 75.8566L174.87 75.8483L174.871 75.84L173.89 75.648ZM174.79 71.292L175.762 71.5266L175.955 70.7282L175.209 70.384L174.79 71.292ZM170.254 71.94L169.473 71.3153L169.47 71.3186L170.254 71.94ZM169.138 74.316L168.16 74.1047L168.158 74.1149L169.138 74.316ZM168.022 79.752L167.042 79.5509L167.014 79.6901L167.025 79.8317L168.022 79.752ZM168.67 81.408L167.875 82.014L167.882 82.0235L167.889 82.0327L168.67 81.408ZM185.302 76.324C185.268 76.324 185.19 76.3159 185.1 76.2657C185.008 76.2146 184.955 76.1486 184.93 76.1085C184.91 76.0749 184.918 76.0719 184.929 76.1276C184.94 76.1819 184.95 76.271 184.95 76.404H186.95C186.95 75.9766 186.892 75.4899 186.645 75.0795C186.35 74.5877 185.857 74.324 185.302 74.324V76.324ZM184.95 76.404C184.95 77.2764 184.596 78.2846 183.741 79.4473L185.351 80.6327C186.368 79.2514 186.95 77.8356 186.95 76.404H184.95ZM183.739 79.45C182.906 80.5889 181.864 81.5452 180.603 82.3198L181.649 84.0242C183.124 83.1188 184.362 81.9871 185.353 80.63L183.739 79.45ZM180.603 82.3198C179.333 83.0996 178.254 83.432 177.346 83.432V85.432C178.742 85.432 180.183 84.9244 181.649 84.0242L180.603 82.3198ZM177.346 83.432C176.642 83.432 176.052 83.2333 175.538 82.8433L174.33 84.4367C175.207 85.1027 176.226 85.432 177.346 85.432V83.432ZM175.552 82.8537C175.038 82.4496 174.668 81.9288 174.44 81.2637L172.548 81.9123C172.896 82.9272 173.486 83.7744 174.316 84.4263L175.552 82.8537ZM172.711 80.9661C172.145 81.6787 171.467 82.2526 170.67 82.6928L171.638 84.4432C172.665 83.8754 173.547 83.1293 174.277 82.2099L172.711 80.9661ZM170.688 82.6831C169.862 83.118 169.209 83.288 168.706 83.288V85.288C169.643 85.288 170.622 84.978 171.62 84.4529L170.688 82.6831ZM168.706 83.288C168.283 83.288 167.829 83.1679 167.334 82.8818L166.334 84.6142C167.086 85.0481 167.881 85.288 168.706 85.288V83.288ZM167.358 82.8963C166.839 82.577 166.405 82.1817 166.05 81.708L164.45 82.908C164.959 83.5863 165.581 84.151 166.31 84.5997L167.358 82.8963ZM166.05 81.708C165.709 81.2533 165.579 80.8672 165.565 80.5384L163.567 80.6216C163.601 81.4448 163.927 82.2107 164.45 82.908L166.05 81.708ZM165.541 80.8C166.096 78.3409 166.59 75.953 167.025 73.6363L165.059 73.2677C164.629 75.559 164.14 77.9231 163.59 80.36L165.541 80.8ZM167.023 73.6481C167.056 73.4807 167.27 73.0617 167.973 72.3591L166.559 70.9449C165.821 71.6823 165.22 72.4633 165.061 73.2559L167.023 73.6481ZM167.985 72.3474C168.623 71.6873 169.399 71.1132 170.322 70.6298L169.394 68.8582C168.301 69.4308 167.348 70.1287 166.547 70.9566L167.985 72.3474ZM170.322 70.6298C171.222 70.1586 172.023 69.952 172.738 69.952V67.952C171.629 67.952 170.51 68.2734 169.394 68.8582L170.322 70.6298ZM172.738 69.952C173.37 69.952 174.05 70.1399 174.79 70.5718L175.798 68.8442C174.81 68.2681 173.786 67.952 172.738 67.952V69.952ZM176.219 70.0887C176.297 69.8995 176.358 69.7654 176.405 69.677C176.428 69.6331 176.442 69.6098 176.448 69.6013C176.456 69.5883 176.44 69.6163 176.397 69.6591L174.983 68.2449C174.821 68.4068 174.706 68.6092 174.633 68.749C174.547 68.9126 174.459 69.1085 174.369 69.3273L176.219 70.0887ZM176.471 69.5767C176.424 69.6351 176.368 69.6769 176.317 69.7024C176.27 69.7262 176.24 69.729 176.246 69.7283L175.998 67.7437C175.618 67.7912 175.207 67.9546 174.909 68.3273L176.471 69.5767ZM176.179 69.7344L179.311 69.5544L179.197 67.5576L176.065 67.7376L176.179 69.7344ZM178.699 69.388L178.807 69.46L179.917 67.796L179.809 67.724L178.699 69.388ZM178.722 67.8598C178.345 68.1737 178.035 68.5428 177.82 68.9728L179.608 69.8672C179.681 69.7212 179.803 69.5623 180.002 69.3962L178.722 67.8598ZM177.82 68.9728C177.646 69.3188 177.496 69.7066 177.363 70.1297L179.272 70.7263C179.38 70.3814 179.493 70.0972 179.608 69.8672L177.82 68.9728ZM177.359 70.145C176.918 71.639 176.468 73.4397 176.009 75.5426L177.963 75.9694C178.416 73.8963 178.854 72.145 179.277 70.711L177.359 70.145ZM176.009 75.5403C175.555 77.5954 175.302 79.1241 175.302 80.04H177.302C177.302 79.3719 177.504 78.0446 177.962 75.9717L176.009 75.5403ZM175.302 80.04C175.302 80.8738 175.497 81.6569 175.899 82.3681L177.641 81.3839C177.418 80.9911 177.302 80.5502 177.302 80.04H175.302ZM175.916 82.3959C176.449 83.2728 177.305 83.704 178.318 83.704V81.704C177.938 81.704 177.762 81.5832 177.624 81.3561L175.916 82.3959ZM178.318 83.704C179.318 83.704 180.342 83.2767 181.357 82.6001L180.247 80.9359C179.39 81.5073 178.758 81.704 178.318 81.704V83.704ZM181.347 82.6064C182.43 81.9026 183.403 80.9329 184.276 79.7261L182.656 78.5539C181.897 79.6031 181.094 80.3854 180.257 80.9296L181.347 82.6064ZM184.268 79.7373C185.186 78.5043 185.852 77.1175 186.267 75.5857L184.337 75.0623C183.984 76.3625 183.426 77.5197 182.664 78.5427L184.268 79.7373ZM169.858 83.128C170.502 83.128 171.118 82.8194 171.655 82.4432L170.508 80.8048C170.086 81.1006 169.886 81.128 169.858 81.128V83.128ZM171.655 82.4432C172.247 82.0294 172.769 81.4851 173.23 80.834L171.598 79.678C171.243 80.1789 170.877 80.5466 170.508 80.8048L171.655 82.4432ZM173.214 80.856C173.727 80.1718 174.086 79.4116 174.286 78.5826L172.342 78.1134C172.206 78.6764 171.965 79.1882 171.614 79.656L173.214 80.856ZM174.292 78.5566L174.868 75.8566L172.912 75.4394L172.336 78.1394L174.292 78.5566ZM174.871 75.84C175.304 73.6277 175.6 72.1977 175.762 71.5266L173.818 71.0574C173.644 71.7783 173.34 73.2523 172.909 75.456L174.871 75.84ZM175.209 70.384C174.452 70.0346 173.649 69.86 172.81 69.86V71.86C173.363 71.86 173.88 71.9734 174.371 72.2L175.209 70.384ZM172.81 69.86C171.453 69.86 170.281 70.3052 169.473 71.3153L171.035 72.5647C171.379 72.1348 171.911 71.86 172.81 71.86V69.86ZM169.47 71.3186C168.821 72.1374 168.384 73.0705 168.161 74.1047L170.115 74.5273C170.276 73.7855 170.583 73.1346 171.037 72.5614L169.47 71.3186ZM168.158 74.1149L167.042 79.5509L169.002 79.9531L170.118 74.5171L168.158 74.1149ZM167.025 79.8317C167.089 80.6332 167.381 81.366 167.875 82.014L169.465 80.802C169.191 80.442 169.051 80.0708 169.019 79.6723L167.025 79.8317ZM167.889 82.0327C168.364 82.627 169.018 83.128 169.858 83.128V81.128C169.856 81.128 169.851 81.1279 169.84 81.1248C169.829 81.1215 169.807 81.1132 169.773 81.0928C169.702 81.0499 169.592 80.9599 169.451 80.7833L167.889 82.0327ZM184.709 83.388L184.03 84.1218L184.037 84.1287L184.045 84.1354L184.709 83.388ZM183.773 79.824L182.795 79.618L182.788 79.6501L182.783 79.6826L183.773 79.824ZM184.925 74.352L185.904 74.558L185.906 74.5444L184.925 74.352ZM185.861 69.852L184.938 69.4674L184.911 69.5319L184.893 69.5996L185.861 69.852ZM186.545 69.168L186.992 70.0624L187.017 70.05L187.041 70.0362L186.545 69.168ZM188.633 69.132L188.06 69.9512L188.105 69.9832L188.154 70.0099L188.633 69.132ZM189.065 69.636L190.041 69.8563L190.079 69.6856L190.057 69.512L189.065 69.636ZM187.013 79.536L186.032 79.342L186.025 79.3768L186.021 79.412L187.013 79.536ZM187.409 81.732L186.702 82.4391L186.702 82.4391L187.409 81.732ZM191.765 81.156L192.285 82.0102L192.292 82.0061L192.298 82.0019L191.765 81.156ZM194.825 78.6L194.093 77.9189L194.092 77.9195L194.825 78.6ZM197.057 75.54L197.428 74.6115L196.59 74.2762L196.171 75.076L197.057 75.54ZM197.453 77.016L198.382 77.3874L198.387 77.3727L198.393 77.3577L197.453 77.016ZM197.273 77.484L198.194 77.873L198.209 77.8371L198.222 77.8002L197.273 77.484ZM194.897 80.688L194.214 79.9579L194.206 79.9654L194.897 80.688ZM191.153 83.28L191.581 84.1838L191.588 84.1806L191.153 83.28ZM186.797 64.632L186.038 65.2828L186.051 65.2979L186.064 65.3124L186.797 64.632ZM187.013 61.392L187.772 62.0428L187.772 62.0428L187.013 61.392ZM190.109 61.104L189.402 61.8111L189.402 61.8111L190.109 61.104ZM189.893 64.344L190.65 64.9976L190.65 64.9976L189.893 64.344ZM187.337 83.252C186.409 83.252 185.793 83.0132 185.373 82.6406L184.045 84.1354C184.922 84.9148 186.057 85.252 187.337 85.252V83.252ZM185.388 82.6542C185.025 82.3173 184.737 81.6928 184.737 80.544H182.737C182.737 81.9872 183.098 83.2587 184.03 84.1218L185.388 82.6542ZM184.737 80.544C184.737 80.2471 184.749 80.0629 184.763 79.9654L182.783 79.6826C182.749 79.9211 182.737 80.2169 182.737 80.544H184.737ZM184.752 80.03L185.904 74.558L183.947 74.146L182.795 79.618L184.752 80.03ZM185.906 74.5444C186.389 72.0833 186.694 70.6194 186.829 70.1044L184.893 69.5996C184.74 70.1886 184.421 71.7247 183.944 74.1596L185.906 74.5444ZM186.784 70.2366C186.794 70.2133 186.825 70.146 186.992 70.0624L186.098 68.2736C185.593 68.526 185.168 68.9147 184.938 69.4674L186.784 70.2366ZM187.041 70.0362C187.209 69.9403 187.418 69.88 187.697 69.88V67.88C187.112 67.88 186.553 68.0117 186.049 68.2998L187.041 70.0362ZM187.697 69.88C187.939 69.88 188.033 69.9326 188.06 69.9512L189.207 68.3128C188.753 67.9954 188.223 67.88 187.697 67.88V69.88ZM188.154 70.0099C188.215 70.0433 188.209 70.0514 188.18 70.0168C188.143 69.9739 188.088 69.8856 188.073 69.76L190.057 69.512C189.975 68.8542 189.497 68.4643 189.112 68.2541L188.154 70.0099ZM188.09 69.4157C187.583 71.6612 186.897 74.9717 186.032 79.342L187.994 79.73C188.858 75.3643 189.54 72.0748 190.041 69.8563L188.09 69.4157ZM186.021 79.412C185.99 79.6622 185.977 79.9603 185.977 80.292H187.977C187.977 79.9997 187.989 79.7938 188.005 79.66L186.021 79.412ZM185.977 80.292C185.977 81.0655 186.136 81.873 186.702 82.4391L188.116 81.0249C188.106 81.015 187.977 80.8625 187.977 80.292H185.977ZM186.702 82.4391C187.236 82.9735 187.949 83.164 188.669 83.164V81.164C188.285 81.164 188.158 81.0665 188.116 81.0249L186.702 82.4391ZM188.669 83.164C189.866 83.164 191.077 82.7456 192.285 82.0102L191.245 80.3018C190.245 80.9104 189.393 81.164 188.669 81.164V83.164ZM192.298 82.0019C193.48 81.2572 194.566 80.3486 195.558 79.2805L194.092 77.9195C193.212 78.8674 192.259 79.6628 191.232 80.3101L192.298 82.0019ZM195.557 79.2811C196.564 78.1987 197.365 77.107 197.943 76.004L196.171 75.076C195.693 75.989 195.006 76.9373 194.093 77.9189L195.557 79.2811ZM196.686 76.4685C196.744 76.4919 196.71 76.4918 196.662 76.428C196.638 76.3964 196.62 76.3603 196.609 76.3243C196.598 76.2895 196.597 76.2658 196.597 76.26H198.597C198.597 75.9029 198.497 75.5417 198.262 75.228C198.034 74.9242 197.73 74.7321 197.428 74.6115L196.686 76.4685ZM196.597 76.26C196.597 76.3655 196.576 76.5015 196.513 76.6743L198.393 77.3577C198.522 77.0025 198.597 76.6345 198.597 76.26H196.597ZM196.525 76.6446C196.431 76.8775 196.359 77.0624 196.324 77.1678L198.222 77.8002C198.235 77.7616 198.283 77.6345 198.382 77.3874L196.525 76.6446ZM196.352 77.095C195.965 78.0118 195.27 78.9687 194.214 79.958L195.58 81.418C196.78 80.2953 197.669 79.1162 198.194 77.873L196.352 77.095ZM194.206 79.9654C193.178 80.9481 192.017 81.7524 190.718 82.3794L191.588 84.1806C193.073 83.4636 194.408 82.5399 195.588 81.4106L194.206 79.9654ZM190.725 82.3763C189.454 82.9784 188.329 83.252 187.337 83.252V85.252C188.697 85.252 190.116 84.8776 191.581 84.1837L190.725 82.3763ZM188.129 64.136C187.755 64.136 187.606 64.0341 187.53 63.9515L186.064 65.3124C186.612 65.9019 187.351 66.136 188.129 66.136V64.136ZM187.556 63.9812C187.466 63.8753 187.365 63.6746 187.365 63.264H185.365C185.365 64.0054 185.553 64.7167 186.038 65.2828L187.556 63.9812ZM187.365 63.264C187.365 62.7279 187.515 62.3435 187.772 62.0428L186.254 60.7412C185.648 61.4485 185.365 62.3121 185.365 63.264H187.365ZM187.772 62.0428C187.99 61.7888 188.285 61.636 188.777 61.636V59.636C187.781 59.636 186.9 59.9872 186.254 60.7412L187.772 62.0428ZM188.777 61.636C189.172 61.636 189.33 61.7389 189.402 61.8111L190.816 60.3969C190.264 59.8451 189.534 59.636 188.777 59.636V61.636ZM189.402 61.8111C189.474 61.8834 189.577 62.0409 189.577 62.436H191.577C191.577 61.6791 191.368 60.9486 190.816 60.3969L189.402 61.8111ZM189.577 62.436C189.577 62.9573 189.424 63.3567 189.136 63.6904L190.65 64.9976C191.274 64.2753 191.577 63.4027 191.577 62.436H189.577ZM189.136 63.6904C188.877 63.9905 188.569 64.136 188.129 64.136V66.136C189.129 66.136 189.997 65.7535 190.65 64.9976L189.136 63.6904ZM222.6 70.14L222.951 69.2037L222.23 68.9335L221.785 69.5608L222.6 70.14ZM221.988 72.732L221.295 72.0106L221.288 72.0177L221.281 72.0249L221.988 72.732ZM219.72 74.1L220.044 75.0462L220.051 75.0437L220.058 75.0412L219.72 74.1ZM213.42 73.416L214.035 72.6277L211.686 70.794L212.454 73.6737L213.42 73.416ZM212.772 79.896L213.67 80.3364L213.673 80.3298L212.772 79.896ZM210.288 82.956L210.873 83.7672L210.879 83.7628L210.885 83.7582L210.288 82.956ZM203.16 81.3L204.092 80.937L203.384 79.1204L202.321 80.755L203.16 81.3ZM200.82 83.496L200.346 82.6155L200.336 82.6208L200.82 83.496ZM196.32 83.676L196.859 82.8337L196.859 82.8337L196.32 83.676ZM194.88 82.2L194.014 82.6997L194.018 82.7071L194.022 82.7145L194.88 82.2ZM194.34 80.328L193.357 80.1426L193.34 80.2345V80.328H194.34ZM195.348 75.936L194.384 75.6705L194.38 75.6836L195.348 75.936ZM196.608 71.544L195.651 71.2528L195.651 71.255L196.608 71.544ZM196.86 70.716L197.817 71.0072L197.819 70.9982L196.86 70.716ZM200.532 69.204L201.465 69.563L201.791 68.7156L200.979 68.3096L200.532 69.204ZM198.696 74.856L197.734 74.584L197.734 74.584L198.696 74.856ZM197.508 80.112L196.516 79.9834L196.51 80.0309L196.508 80.0787L197.508 80.112ZM197.796 81.768L196.924 82.2583L196.924 82.2583L197.796 81.768ZM201.036 81.264L201.817 81.8887L201.817 81.8887L201.036 81.264ZM202.512 77.88L201.549 77.6103L201.545 77.6233L202.512 77.88ZM203.88 71.364V70.364H203.046L202.896 71.1838L203.88 71.364ZM206.94 72.696L207.928 72.8481L207.93 72.839L207.931 72.8299L206.94 72.696ZM206.544 74.316L207.505 74.5929L207.507 74.5867L206.544 74.316ZM205.68 77.808L206.656 78.0249L206.66 78.0071L206.663 77.9892L205.68 77.808ZM205.428 79.356L206.42 79.48L206.421 79.4751L205.428 79.356ZM205.32 80.688H204.32V80.8441L204.367 80.9928L205.32 80.688ZM206.004 81.984L206.711 81.2769L206.711 81.2769L206.004 81.984ZM208.992 81.228L209.804 81.8116L209.808 81.8057L209.812 81.7998L208.992 81.228ZM210.252 78.312L209.285 78.0556L209.284 78.0625L209.282 78.0695L210.252 78.312ZM210.432 72.732L209.476 73.0261L209.479 73.0368L210.432 72.732ZM209.424 70.248L208.454 70.0055L208.368 70.3488L208.517 70.6697L209.424 70.248ZM210.36 69.276L209.928 68.3739L209.921 68.3776L209.913 68.3816L210.36 69.276ZM212.052 69.132L211.293 69.7828L211.318 69.812L211.345 69.8391L212.052 69.132ZM212.592 69.816L213.42 69.2557L213.414 69.2468L212.592 69.816ZM214.428 71.832L213.81 72.6183L213.819 72.6253L213.828 72.632L214.428 71.832ZM220.116 72.048L219.78 71.1063L219.78 71.1063L220.116 72.048ZM222.249 71.0763C222.164 71.0446 222.084 70.9938 222.019 70.9281C221.955 70.8646 221.92 70.8025 221.902 70.7621C221.871 70.6932 221.888 70.6818 221.888 70.788H223.888C223.888 70.3552 223.778 69.5139 222.951 69.2037L222.249 71.0763ZM221.888 70.788C221.888 71.1928 221.732 71.5913 221.295 72.0106L222.68 73.4534C223.444 72.7207 223.888 71.8232 223.888 70.788H221.888ZM221.281 72.0249C220.83 72.4761 220.209 72.8619 219.382 73.1588L220.058 75.0412C221.103 74.6661 221.994 74.1399 222.695 73.4391L221.281 72.0249ZM219.396 73.1538C218.585 73.4313 217.771 73.568 216.948 73.568V75.568C217.997 75.568 219.031 75.3927 220.044 75.0462L219.396 73.1538ZM216.948 73.568C215.78 73.568 214.826 73.2452 214.035 72.6277L212.805 74.2043C213.981 75.1228 215.38 75.568 216.948 75.568V73.568ZM212.454 73.6737C212.621 74.3021 212.708 74.9828 212.708 75.72H214.708C214.708 74.8252 214.603 73.9699 214.386 73.1583L212.454 73.6737ZM212.708 75.72C212.708 77.0631 212.427 78.3062 211.871 79.4622L213.673 80.3298C214.364 78.8938 214.708 77.3529 214.708 75.72H212.708ZM211.874 79.4556C211.313 80.5995 210.583 81.4901 209.691 82.1538L210.885 83.7582C212.057 82.8859 212.983 81.7365 213.67 80.3364L211.874 79.4556ZM209.703 82.1448C208.827 82.7767 207.925 83.072 206.976 83.072V85.072C208.379 85.072 209.685 84.6233 210.873 83.7672L209.703 82.1448ZM206.976 83.072C206.24 83.072 205.68 82.8887 205.242 82.5699C204.797 82.2467 204.4 81.7289 204.092 80.937L202.228 81.663C202.64 82.7191 203.239 83.5873 204.066 84.1881C204.899 84.7933 205.888 85.072 206.976 85.072V83.072ZM202.321 80.755C201.782 81.5855 201.123 82.1971 200.346 82.6155L201.294 84.3765C202.389 83.7869 203.29 82.9345 203.998 81.845L202.321 80.755ZM200.336 82.6208C199.527 83.0679 198.842 83.252 198.264 83.252V85.252C199.27 85.252 200.289 84.9321 201.304 84.3712L200.336 82.6208ZM198.264 83.252C197.764 83.252 197.302 83.1173 196.859 82.8337L195.781 84.5183C196.538 85.0027 197.372 85.252 198.264 85.252V83.252ZM196.859 82.8337C196.387 82.5314 196.017 82.1507 195.737 81.6855L194.022 82.7145C194.463 83.4493 195.053 84.0526 195.781 84.5183L196.859 82.8337ZM195.746 81.7003C195.46 81.2045 195.34 80.751 195.34 80.328H193.34C193.34 81.153 193.58 81.9475 194.014 82.6997L195.746 81.7003ZM195.323 80.5134C195.557 79.2697 195.888 77.8288 196.316 76.1884L194.38 75.6836C193.944 77.3552 193.603 78.8423 193.357 80.1426L195.323 80.5134ZM196.312 76.2015C196.766 74.5512 197.184 73.0953 197.565 71.833L195.651 71.255C195.264 72.5367 194.841 74.0088 194.384 75.6705L196.312 76.2015ZM197.565 71.8352L197.817 71.0072L195.903 70.4248L195.651 71.2528L197.565 71.8352ZM197.819 70.9982C197.96 70.5208 198.148 70.2601 198.326 70.1162C198.495 69.9798 198.737 69.88 199.128 69.88V67.88C198.367 67.88 197.655 68.0862 197.068 68.5618C196.489 69.0299 196.12 69.6872 195.901 70.4338L197.819 70.9982ZM199.128 69.88C199.484 69.88 199.798 69.9549 200.085 70.0984L200.979 68.3096C200.402 68.0211 199.78 67.88 199.128 67.88V69.88ZM199.599 68.845C198.984 70.4418 198.363 72.3566 197.734 74.584L199.658 75.128C200.277 72.9394 200.879 71.0862 201.465 69.563L199.599 68.845ZM197.734 74.584C197.105 76.8096 196.693 78.616 196.516 79.9834L198.5 80.2406C198.658 79.016 199.039 77.3184 199.658 75.128L197.734 74.584ZM196.508 80.0787C196.482 80.8773 196.578 81.6433 196.924 82.2583L198.667 81.2777C198.581 81.1247 198.486 80.7867 198.507 80.1453L196.508 80.0787ZM196.924 82.2583C197.38 83.0681 198.207 83.344 199.02 83.344V81.344C198.821 81.344 198.724 81.3114 198.69 81.2952C198.674 81.2879 198.671 81.2838 198.672 81.2852C198.674 81.2867 198.672 81.2861 198.667 81.2777L196.924 82.2583ZM199.02 83.344C200.153 83.344 201.093 82.793 201.817 81.8887L200.255 80.6393C199.827 81.175 199.422 81.344 199.02 81.344V83.344ZM201.817 81.8887C202.521 81.0087 203.057 79.7236 203.478 78.1367L201.545 77.6233C201.151 79.1084 200.703 80.0793 200.255 80.6393L201.817 81.8887ZM203.475 78.1496C203.825 76.8999 204.288 74.686 204.864 71.5442L202.896 71.1838C202.32 74.33 201.871 76.4601 201.549 77.6104L203.475 78.1496ZM203.88 72.364C204.928 72.364 205.551 72.4771 205.866 72.6139C206.011 72.6771 206.015 72.7135 205.988 72.6731C205.946 72.6123 205.95 72.5534 205.949 72.5621L207.931 72.8299C207.99 72.3946 207.911 71.9472 207.645 71.5534C207.392 71.18 207.029 70.9389 206.664 70.7801C205.958 70.4729 204.992 70.364 203.88 70.364V72.364ZM205.952 72.5439C205.914 72.7887 205.798 73.2751 205.581 74.0453L207.507 74.5867C207.722 73.8209 207.87 73.2273 207.928 72.8481L205.952 72.5439ZM205.583 74.0391C205.171 75.4706 204.873 76.6696 204.696 77.6268L206.663 77.9892C206.823 77.1224 207.101 75.9934 207.505 74.5929L205.583 74.0391ZM204.704 77.5911C204.598 78.0646 204.51 78.615 204.435 79.2369L206.421 79.4751C206.49 78.897 206.569 78.4154 206.656 78.0249L204.704 77.5911ZM204.436 79.232C204.362 79.8206 204.32 80.3133 204.32 80.688H206.32C206.32 80.4387 206.35 80.0434 206.42 79.48L204.436 79.232ZM204.367 80.9928C204.579 81.6533 204.868 82.2621 205.297 82.6911L206.711 81.2769C206.612 81.1779 206.445 80.9227 206.272 80.3832L204.367 80.9928ZM205.297 82.6911C205.767 83.161 206.366 83.38 207.012 83.38V81.38C206.842 81.38 206.769 81.335 206.711 81.2769L205.297 82.6911ZM207.012 83.38C208.177 83.38 209.113 82.7731 209.804 81.8116L208.18 80.6444C207.767 81.2189 207.383 81.38 207.012 81.38V83.38ZM209.812 81.7998C210.448 80.888 210.911 79.7982 211.222 78.5545L209.282 78.0695C209.017 79.1298 208.64 79.9839 208.172 80.6562L209.812 81.7998ZM211.218 78.5684C211.55 77.3172 211.72 76.0909 211.72 74.892H209.72C209.72 75.9011 209.577 76.9548 209.285 78.0556L211.218 78.5684ZM211.72 74.892C211.72 73.9808 211.616 73.1524 211.384 72.4272L209.479 73.0368C209.631 73.5116 209.72 74.1232 209.72 74.892H211.72ZM211.388 72.4379C211.176 71.7498 210.818 70.8741 210.331 69.8263L208.517 70.6697C208.99 71.6859 209.304 72.4662 209.476 73.0261L211.388 72.4379ZM210.394 70.4905C210.394 70.4902 210.399 70.4642 210.45 70.4106C210.507 70.3517 210.615 70.2665 210.807 70.1704L209.913 68.3816C209.254 68.711 208.65 69.2223 208.454 70.0055L210.394 70.4905ZM210.791 70.1781C211.04 70.0593 211.237 69.9806 211.389 69.933C211.464 69.9095 211.521 69.8956 211.562 69.8878C211.605 69.8799 211.622 69.88 211.62 69.88V67.88C211.091 67.88 210.497 68.1021 209.928 68.3739L210.791 70.1781ZM211.62 69.88C211.489 69.88 211.389 69.8397 211.332 69.8068C211.282 69.7775 211.271 69.7575 211.293 69.7828L212.811 68.4812C212.579 68.2109 212.183 67.88 211.62 67.88V69.88ZM211.345 69.8391C211.425 69.9188 211.564 70.0881 211.77 70.3852L213.414 69.2468C213.188 68.9199 212.967 68.6332 212.759 68.4249L211.345 69.8391ZM211.764 70.3763C212.365 71.2653 213.045 72.0174 213.81 72.6183L215.046 71.0457C214.467 70.5906 213.923 69.9987 213.42 69.2557L211.764 70.3763ZM213.828 72.632C214.733 73.311 215.909 73.588 217.236 73.588V71.588C216.162 71.588 215.467 71.361 215.028 71.032L213.828 72.632ZM217.236 73.588C218.281 73.588 219.355 73.3817 220.452 72.9897L219.78 71.1063C218.861 71.4343 218.015 71.588 217.236 71.588V73.588ZM220.452 72.9897C221.662 72.5576 222.654 71.7902 223.415 70.7192L221.785 69.5608C221.25 70.3138 220.586 70.8184 219.78 71.1063L220.452 72.9897ZM238.501 75.576L238.743 74.6059L237.992 74.4182L237.622 75.0978L238.501 75.576ZM237.745 79.068L236.915 78.5098L236.915 78.5098L237.745 79.068ZM234.469 82.632L235.099 83.4086L235.1 83.4072L234.469 82.632ZM228.205 83.28L227.524 84.0128L227.531 84.0194L227.539 84.0259L228.205 83.28ZM227.161 80.904L228.16 80.879L228.087 77.9384L226.353 80.3145L227.161 80.904ZM224.929 83.208L225.539 83.9998L225.539 83.9998L224.929 83.208ZM220.213 83.28L220.805 82.4743L220.805 82.4743L220.213 83.28ZM218.845 81.408L217.861 81.2288L217.831 81.3913L217.855 81.5545L218.845 81.408ZM220.969 69.744L219.99 69.538L219.987 69.5514L219.985 69.5648L220.969 69.744ZM222.985 69.384L222.706 70.3443L222.724 70.3496L222.742 70.3541L222.985 69.384ZM223.813 71.364L222.842 71.1214L222.84 71.1324L223.813 71.364ZM222.805 76.008L221.825 75.8054L221.823 75.8162L222.805 76.008ZM221.977 80.508L220.989 80.352L220.965 80.5006L220.987 80.6494L221.977 80.508ZM222.481 81.444L221.774 82.1511L221.803 82.1805L221.835 82.2074L222.481 81.444ZM225.721 80.616L224.983 79.9412L224.982 79.9422L225.721 80.616ZM227.629 76.728L226.67 76.445L226.668 76.4515L227.629 76.728ZM229.285 69.456L230.266 69.6508L230.267 69.6428L230.269 69.6349L229.285 69.456ZM231.157 69.384L230.851 70.336L230.871 70.3424L230.891 70.348L231.157 69.384ZM232.201 70.032L233.164 70.3006L233.201 70.1688V70.032H232.201ZM230.437 76.8L231.409 77.0316L230.437 76.8ZM230.113 81.912L229.349 82.5579L229.363 82.5744L229.378 82.5903L230.113 81.912ZM234.793 80.616L235.465 81.3566L235.472 81.3498L234.793 80.616ZM238.258 76.5461C238.325 76.5629 238.264 76.563 238.185 76.4744C238.145 76.4293 238.115 76.3764 238.096 76.323C238.078 76.2719 238.077 76.2354 238.077 76.224H240.077C240.077 75.8534 239.965 75.466 239.68 75.1456C239.409 74.841 239.06 74.6851 238.743 74.6059L238.258 76.5461ZM238.077 76.224C238.077 76.2901 238.041 76.5103 237.838 76.9429C237.646 77.353 237.343 77.873 236.915 78.5098L238.574 79.6262C239.034 78.943 239.397 78.329 239.649 77.7911C239.891 77.2757 240.077 76.7339 240.077 76.224H238.077ZM236.915 78.5098C236.085 79.744 235.061 80.8598 233.837 81.8568L235.1 83.4072C236.469 82.2922 237.629 81.032 238.574 79.6262L236.915 78.5098ZM233.839 81.8554C232.693 82.7851 231.636 83.18 230.653 83.18V85.18C232.213 85.18 233.701 84.5429 235.099 83.4086L233.839 81.8554ZM230.653 83.18C229.921 83.18 229.347 82.9591 228.871 82.5341L227.539 84.0259C228.407 84.8009 229.465 85.18 230.653 85.18V83.18ZM228.885 82.5472C228.421 82.116 228.178 81.5839 228.16 80.879L226.161 80.929C226.191 82.1441 226.645 83.196 227.524 84.0128L228.885 82.5472ZM226.353 80.3145C225.759 81.1289 225.08 81.8281 224.318 82.4162L225.539 83.9998C226.457 83.2919 227.267 82.4551 227.968 81.4935L226.353 80.3145ZM224.318 82.4162C223.58 82.9851 222.999 83.18 222.553 83.18V85.18C223.594 85.18 224.597 84.7269 225.539 83.9998L224.318 82.4162ZM222.553 83.18C222.087 83.18 221.51 82.993 220.805 82.4743L219.62 84.0857C220.547 84.767 221.531 85.18 222.553 85.18V83.18ZM220.805 82.4743C220.089 81.948 219.874 81.532 219.834 81.2615L217.855 81.5545C218.007 82.58 218.704 83.412 219.62 84.0857L220.805 82.4743ZM219.828 81.5872L221.952 69.9232L219.985 69.5648L217.861 81.2288L219.828 81.5872ZM221.947 69.95C221.964 69.8711 221.979 69.8199 221.99 69.7905C222.002 69.7593 222.003 69.767 221.983 69.7957C221.963 69.825 221.909 69.8934 221.808 69.9554C221.699 70.0222 221.569 70.06 221.437 70.06V68.06C220.907 68.06 220.539 68.365 220.332 68.6663C220.146 68.9383 220.049 69.2577 219.99 69.538L221.947 69.95ZM221.437 70.06C221.563 70.06 221.949 70.1247 222.706 70.3443L223.263 68.4237C222.532 68.2113 221.887 68.06 221.437 68.06V70.06ZM222.742 70.3541C223.104 70.4446 223.308 70.5197 223.401 70.5664C223.45 70.5909 223.417 70.5821 223.358 70.5231C223.297 70.4621 223.137 70.2708 223.137 69.96H225.137C225.137 69.5532 224.929 69.2659 224.772 69.1089C224.617 68.9539 224.439 68.8491 224.296 68.7776C224.005 68.6323 223.633 68.5154 223.227 68.4139L222.742 70.3541ZM223.137 69.96C223.137 69.8824 223.147 69.8283 223.144 69.8496C223.143 69.8521 223.141 69.8649 223.136 69.8921C223.125 69.9455 223.107 70.0268 223.081 70.1401C223.029 70.3652 222.95 70.6913 222.843 71.1215L224.783 71.6065C224.891 71.1727 224.974 70.8328 225.03 70.5899C225.058 70.4692 225.081 70.366 225.097 70.2844C225.104 70.2506 225.137 70.0987 225.137 69.96H223.137ZM222.84 71.1324C222.596 72.1555 222.258 73.7156 221.825 75.8054L223.784 76.2106C224.216 74.1244 224.549 72.5885 224.785 71.5956L222.84 71.1324ZM221.823 75.8162C221.415 77.9049 221.136 79.4205 220.989 80.352L222.964 80.664C223.105 79.7715 223.378 78.2871 223.786 76.1998L221.823 75.8162ZM220.987 80.6494C221.071 81.2398 221.364 81.7416 221.774 82.1511L223.188 80.7369C223.021 80.5704 222.978 80.4482 222.967 80.3666L220.987 80.6494ZM221.835 82.2074C222.327 82.6239 222.916 82.84 223.561 82.84V80.84C223.39 80.84 223.258 80.7921 223.127 80.6806L221.835 82.2074ZM223.561 82.84C224.667 82.84 225.635 82.1941 226.46 81.2898L224.982 79.9422C224.318 80.6699 223.847 80.84 223.561 80.84V82.84ZM226.459 81.2908C227.375 80.2886 228.066 78.8252 228.59 77.0045L226.668 76.4515C226.183 78.1348 225.602 79.2634 224.983 79.9412L226.459 81.2908ZM228.588 77.011C229.034 75.4998 229.593 73.037 230.266 69.6508L228.304 69.2612C227.632 72.643 227.088 75.0282 226.67 76.445L228.588 77.011ZM230.269 69.6349C230.271 69.6192 230.255 69.738 230.127 69.8661C229.976 70.0173 229.793 70.06 229.681 70.06V68.06C229.353 68.06 228.996 68.1687 228.713 68.4519C228.452 68.712 228.346 69.0288 228.301 69.2771L230.269 69.6349ZM229.681 70.06C229.823 70.06 230.185 70.122 230.851 70.336L231.463 68.432C230.785 68.214 230.162 68.06 229.681 68.06V70.06ZM230.891 70.348C231.04 70.3893 231.159 70.4284 231.249 70.4639C231.342 70.5002 231.392 70.5271 231.412 70.5396C231.437 70.5548 231.395 70.5346 231.34 70.4632C231.278 70.381 231.201 70.2316 231.201 70.032H233.201C233.201 69.3753 232.724 69.0001 232.467 68.8404C232.173 68.6576 231.804 68.5252 231.423 68.42L230.891 70.348ZM231.237 69.7634C230.539 72.2688 229.947 74.5374 229.464 76.5684L231.409 77.0316C231.886 75.0306 232.471 72.7872 233.164 70.3006L231.237 69.7634ZM229.464 76.5684C228.991 78.556 228.717 79.9962 228.717 80.76H230.717C230.717 80.2758 230.923 79.076 231.409 77.0316L229.464 76.5684ZM228.717 80.76C228.717 81.4233 228.915 82.0443 229.349 82.5579L230.876 81.2661C230.783 81.1557 230.717 81.0087 230.717 80.76H228.717ZM229.378 82.5903C229.899 83.1554 230.602 83.38 231.337 83.38V81.38C231.015 81.38 230.902 81.2926 230.847 81.2337L229.378 82.5903ZM231.337 83.38C232.721 83.38 234.109 82.587 235.465 81.3566L234.121 79.8754C232.885 80.997 231.968 81.38 231.337 81.38V83.38ZM235.472 81.3498C236.872 80.0533 238.17 78.2751 239.379 76.0542L237.622 75.0978C236.48 77.1969 235.305 78.7787 234.113 79.8822L235.472 81.3498Z" fill="#FFB3B3"/>
</svg>
