<svg width="150" height="150" viewBox="0 0 150 150" fill="none" xmlns="http://www.w3.org/2000/svg">
<path d="M2.5 75C2.5 34.9594 34.9594 2.5 75 2.5C115.041 2.5 147.5 34.9594 147.5 75C147.5 115.041 115.041 147.5 75 147.5C34.9594 147.5 2.5 115.041 2.5 75Z" fill="#FF1919" stroke="#FFB3B3" stroke-width="5"/>
<path d="M10.3633 77.307C9.61195 77.077 8.99095 76.64 8.50028 75.996C8.02495 75.3367 7.78728 74.4857 7.78728 73.443C7.78728 72.2163 8.13228 71.1507 8.82228 70.246C9.51228 69.326 10.4629 68.6207 11.6743 68.13C12.8856 67.6393 14.2579 67.394 15.7913 67.394C16.5273 67.394 17.2403 67.4477 17.9303 67.555C18.6356 67.647 19.4483 67.785 20.3683 67.969C20.9203 68.0763 21.4723 68.176 22.0243 68.268C22.5763 68.3447 23.0516 68.383 23.4503 68.383C24.1249 68.383 24.7383 68.2757 25.2903 68.061C25.8576 67.831 26.3176 67.4707 26.6703 66.98C26.6089 68.038 26.2563 68.8737 25.6123 69.487C24.9683 70.085 24.0636 70.384 22.8983 70.384C22.2236 70.384 21.5413 70.2997 20.8513 70.131C20.1766 69.947 19.2873 69.6787 18.1833 69.326C17.2633 69.004 16.4889 68.7663 15.8603 68.613C15.2316 68.4443 14.6413 68.36 14.0893 68.36C13.2153 68.36 12.4716 68.5823 11.8583 69.027C11.2449 69.4717 10.7773 70.0543 10.4553 70.775C10.1486 71.4803 9.99528 72.2393 9.99528 73.052C9.99528 73.9567 10.2099 74.7233 10.6393 75.352C11.0839 75.9807 11.7969 76.5327 12.7783 77.008L12.6863 77.123C11.4903 77.123 10.7159 77.1843 10.3633 77.307ZM9.62728 84.345C8.93728 84.345 8.29328 84.276 7.69528 84.138C7.09728 84.0153 6.60661 83.8697 6.22328 83.701C6.10061 83.2257 6.03928 82.6967 6.03928 82.114L6.17728 81.861C7.17395 82.9343 8.36228 83.471 9.74228 83.471C12.2876 83.471 13.9666 81.7077 14.7793 78.181C15.4846 75.1603 16.0289 72.891 16.4123 71.373C16.7189 70.959 17.0869 70.591 17.5163 70.269C17.9609 69.9317 18.3673 69.6863 18.7353 69.533L18.9423 69.602C18.6663 70.1847 18.4133 70.959 18.1833 71.925C17.9533 72.8757 17.6543 74.2403 17.2863 76.019C17.1636 76.6937 17.0179 77.3913 16.8493 78.112C16.3126 80.2893 15.4079 81.8763 14.1353 82.873C12.8779 83.8543 11.3753 84.345 9.62728 84.345ZM33.7469 75.789C33.8696 75.8657 33.9309 75.9653 33.9309 76.088C33.9309 76.4253 33.7929 76.7627 33.5169 77.1C33.2409 77.4373 32.8576 77.7133 32.3669 77.928C31.8762 78.1427 31.3396 78.25 30.7569 78.25C29.9442 78.25 29.2926 78.043 28.8019 77.629C28.3112 77.215 28.0506 76.686 28.0199 76.042C27.3452 76.1033 26.7472 76.3793 26.2259 76.87C25.7199 77.3607 25.3366 77.9587 25.0759 78.664V78.71C25.0146 78.8633 24.9762 78.9783 24.9609 79.055C24.8229 79.5457 24.5239 81.1173 24.0639 83.77C24.0486 83.9233 23.7189 84 23.0749 84C22.4616 84 22.1549 83.8927 22.1549 83.678C22.1549 83.5553 22.2009 83.241 22.2929 82.735C22.5689 81.1863 22.8679 79.5763 23.1899 77.905C23.5119 76.2337 23.7112 75.2677 23.7879 75.007C23.8492 74.777 23.9566 74.6237 24.1099 74.547C24.2786 74.4703 24.5009 74.432 24.7769 74.432C25.2982 74.432 25.7429 74.5087 26.1109 74.662C25.9882 75.0147 25.8196 75.6433 25.6049 76.548C26.0342 75.9347 26.5172 75.444 27.0539 75.076C27.6059 74.708 28.1656 74.524 28.7329 74.524C28.9936 74.524 29.2159 74.5623 29.3999 74.639C29.5839 74.7003 29.6989 74.777 29.7449 74.869C29.7449 76.433 30.3199 77.215 31.4699 77.215C32.3899 77.215 33.1489 76.7397 33.7469 75.789ZM44.9339 78.457C45.2099 78.457 45.3479 78.687 45.3479 79.147C45.3479 79.883 45.0489 80.6573 44.4509 81.47C43.8682 82.2673 43.1399 82.9343 42.2659 83.471C41.3919 84.0077 40.5869 84.276 39.8509 84.276C39.2682 84.276 38.7546 84.1073 38.3099 83.77C37.8806 83.4327 37.5739 82.9957 37.3899 82.459C36.9759 82.9803 36.4776 83.402 35.8949 83.724C35.3122 84.0307 34.7909 84.184 34.3309 84.184C33.9322 84.184 33.5336 84.069 33.1349 83.839C32.7362 83.5937 32.3989 83.287 32.1229 82.919C31.8469 82.551 31.7012 82.183 31.6859 81.815C32.0386 80.251 32.3529 78.733 32.6289 77.261C32.6902 76.9543 32.9509 76.571 33.4109 76.111C33.8709 75.6357 34.4229 75.2293 35.0669 74.892C35.7109 74.5547 36.3242 74.386 36.9069 74.386C37.4436 74.386 37.9879 74.547 38.5399 74.869C38.6472 74.6083 38.7316 74.4473 38.7929 74.386C38.8542 74.3093 38.9462 74.2633 39.0689 74.248L41.0699 74.133L41.1389 74.179C40.9549 74.3323 40.8169 74.501 40.7249 74.685C40.6329 74.869 40.5486 75.0837 40.4719 75.329C40.1959 76.2643 39.9122 77.399 39.6209 78.733C39.3296 80.0517 39.1839 80.964 39.1839 81.47C39.1839 81.8993 39.2836 82.2903 39.4829 82.643C39.6976 82.9957 40.0272 83.172 40.4719 83.172C40.9319 83.172 41.4609 82.9727 42.0589 82.574C42.6722 82.1753 43.2396 81.6157 43.7609 80.895C44.2976 80.1743 44.6886 79.3617 44.9339 78.457ZM35.0669 82.804C35.2816 82.804 35.5422 82.6967 35.8489 82.482C36.1556 82.2673 36.4392 81.976 36.6999 81.608C36.9759 81.24 37.1676 80.8337 37.2749 80.389L37.6429 78.664C37.9189 77.2533 38.1106 76.3257 38.2179 75.881C37.8192 75.697 37.3976 75.605 36.9529 75.605C36.2322 75.605 35.6879 75.835 35.3199 76.295C34.9672 76.7397 34.7296 77.2457 34.6069 77.813L33.8939 81.286C33.9246 81.6693 34.0626 82.022 34.3079 82.344C34.5532 82.6507 34.8062 82.804 35.0669 82.804ZM47.6371 84.115C46.9625 84.115 46.3261 83.954 45.7281 83.632C45.1455 83.2947 44.6778 82.9113 44.3251 82.482C43.9725 82.0373 43.7961 81.6847 43.7961 81.424C44.1028 80.274 44.3251 79.3693 44.4631 78.71C44.6165 78.0353 44.7698 77.2917 44.9231 76.479C44.9691 76.1877 45.2068 75.8657 45.6361 75.513C46.0655 75.1603 46.5715 74.8613 47.1541 74.616C47.7521 74.3553 48.2965 74.225 48.7871 74.225C49.3851 74.225 49.9678 74.3783 50.5351 74.685C51.1025 74.9763 51.3861 75.398 51.3861 75.95C51.3861 76.6093 50.9415 77.1 50.0521 77.422L49.9601 77.399C49.9295 76.847 49.7685 76.3487 49.4771 75.904C49.2011 75.444 48.8868 75.214 48.5341 75.214C48.1968 75.214 47.8365 75.398 47.4531 75.766C47.0851 76.134 46.8705 76.4867 46.8091 76.824C46.5638 78.1427 46.2725 79.607 45.9351 81.217C46.0118 81.723 46.2035 82.1217 46.5101 82.413C46.8321 82.7043 47.3918 82.85 48.1891 82.85C49.1858 82.85 50.2208 82.5663 51.2941 81.999C52.3828 81.4163 53.2491 80.3047 53.8931 78.664C54.1998 78.664 54.3531 78.8787 54.3531 79.308C54.3531 80.044 53.9698 80.7877 53.2031 81.539C52.4518 82.275 51.5395 82.8883 50.4661 83.379C49.3928 83.8697 48.4498 84.115 47.6371 84.115ZM59.542 74.386C59.91 74.386 60.3393 74.432 60.83 74.524C61.336 74.6007 61.612 74.731 61.658 74.915C61.4126 76.111 61.1136 77.4987 60.761 79.078C60.4083 80.6573 60.094 81.953 59.818 82.965C58.8826 86.4917 57.5026 89.5123 55.678 92.027C53.8686 94.5417 51.354 95.799 48.134 95.799C46.6926 95.799 45.6193 95.5307 44.914 94.994C44.2086 94.4727 43.856 93.821 43.856 93.039C43.856 92.5177 44.017 92.05 44.339 91.636C44.799 92.2187 45.4506 92.7017 46.294 93.085C47.1373 93.4683 48.1186 93.66 49.238 93.66C50.5566 93.66 51.7296 93.3303 52.757 92.671C53.7843 92.0117 54.7273 90.8923 55.586 89.313C56.4446 87.7337 57.242 85.5793 57.978 82.85C57.518 83.172 57.0503 83.448 56.575 83.678C56.0996 83.8927 55.7086 84 55.402 84C55.0953 84 54.7426 83.908 54.344 83.724C53.9453 83.5247 53.6003 83.2717 53.309 82.965C53.033 82.6583 52.895 82.3363 52.895 81.999C52.9563 81.6923 53.079 80.9947 53.263 79.906C53.539 78.0507 53.8303 76.4407 54.137 75.076C54.229 74.6467 54.551 74.432 55.103 74.432C55.287 74.432 55.5246 74.4473 55.816 74.478C56.1073 74.4933 56.299 74.5163 56.391 74.547C56.1456 75.6663 55.816 77.3683 55.402 79.653C55.264 80.5117 55.149 81.148 55.057 81.562C55.0416 81.8993 55.1336 82.183 55.333 82.413C55.5323 82.6277 55.7623 82.735 56.023 82.735C56.345 82.735 56.7436 82.5817 57.219 82.275C57.7096 81.953 58.0776 81.631 58.323 81.309L58.76 78.825C59.174 76.571 59.4346 75.0913 59.542 74.386ZM76.5262 84.345C74.3949 84.345 72.7235 83.7393 71.5122 82.528C70.3162 81.3013 69.7182 79.5457 69.7182 77.261C69.7182 75.3903 70.1169 73.7113 70.9142 72.224C71.7269 70.7367 72.8539 69.5713 74.2952 68.728C75.7365 67.8847 77.3695 67.463 79.1942 67.463C81.3255 67.463 82.9892 68.061 84.1852 69.257C85.3965 70.4377 86.0022 72.155 86.0022 74.409C86.0022 76.249 85.6035 77.928 84.8062 79.446C84.0089 80.964 82.8895 82.16 81.4482 83.034C80.0069 83.908 78.3662 84.345 76.5262 84.345ZM76.8482 83.08C78.2895 83.08 79.5162 82.689 80.5282 81.907C81.5555 81.125 82.3222 80.09 82.8282 78.802C83.3495 77.514 83.6102 76.1187 83.6102 74.616C83.6102 72.6073 83.1732 71.1123 82.2992 70.131C81.4252 69.1497 80.2369 68.659 78.7342 68.659C77.3695 68.659 76.1812 69.05 75.1692 69.832C74.1572 70.5987 73.3829 71.6413 72.8462 72.96C72.3095 74.2633 72.0412 75.7047 72.0412 77.284C72.0412 79.216 72.4552 80.665 73.2832 81.631C74.1112 82.597 75.2995 83.08 76.8482 83.08ZM100.446 78.848C100.584 78.848 100.691 78.9017 100.768 79.009C100.845 79.101 100.883 79.2237 100.883 79.377C100.883 79.791 100.622 80.4043 100.101 81.217C99.595 82.0143 98.9127 82.7273 98.054 83.356C97.1953 83.9693 96.2447 84.276 95.202 84.276C94.4047 84.276 93.7837 84.0843 93.339 83.701C92.9097 83.3023 92.695 82.781 92.695 82.137C92.695 81.7537 92.764 81.2783 92.902 80.711C93.0553 80.1437 93.2623 79.4307 93.523 78.572C93.7683 77.7747 93.9677 77.0617 94.121 76.433C94.1057 76.341 94.0443 76.295 93.937 76.295C93.7223 76.295 93.3083 76.571 92.695 77.123C92.0817 77.675 91.476 78.296 90.878 78.986C90.28 79.676 89.912 80.1897 89.774 80.527C89.498 81.769 89.3293 82.597 89.268 83.011C89.2067 83.4097 89.1683 83.632 89.153 83.678C89.1377 83.724 89.1223 83.7853 89.107 83.862C89.0917 83.9233 89.0687 83.9617 89.038 83.977C89.0227 83.9923 88.992 84 88.946 84C88.716 84 88.3557 83.9847 87.865 83.954C87.3743 83.9233 87.129 83.8773 87.129 83.816C87.221 83.264 87.4587 82.114 87.842 80.366C87.9187 79.9367 87.957 79.7297 87.957 79.745L88.992 74.685C89.0073 74.5777 89.038 74.5163 89.084 74.501C89.1453 74.4703 89.2603 74.455 89.429 74.455C90.1497 74.455 90.671 74.57 90.993 74.8C90.9777 74.8613 90.8933 75.2447 90.74 75.95C90.5867 76.64 90.3643 77.5217 90.073 78.595C90.9317 77.5523 91.8133 76.6093 92.718 75.766C93.6227 74.9227 94.236 74.501 94.558 74.501C94.7267 74.501 95.064 74.5853 95.57 74.754C96.0913 74.9227 96.3673 75.0607 96.398 75.168L95.984 76.732C95.5853 78.158 95.2863 79.2927 95.087 80.136C94.8877 80.9793 94.788 81.6233 94.788 82.068C94.788 82.7733 95.1177 83.126 95.777 83.126C96.3137 83.126 96.8963 82.919 97.525 82.505C98.169 82.0757 98.7517 81.5313 99.273 80.872C99.8097 80.1973 100.201 79.5227 100.446 78.848ZM112.429 78.457C112.705 78.457 112.843 78.687 112.843 79.147C112.843 79.883 112.544 80.6573 111.946 81.47C111.363 82.2673 110.635 82.9343 109.761 83.471C108.887 84.0077 108.082 84.276 107.346 84.276C106.763 84.276 106.25 84.1073 105.805 83.77C105.376 83.4327 105.069 82.9957 104.885 82.459C104.471 82.9803 103.973 83.402 103.39 83.724C102.807 84.0307 102.286 84.184 101.826 84.184C101.427 84.184 101.029 84.069 100.63 83.839C100.231 83.5937 99.894 83.287 99.618 82.919C99.342 82.551 99.1963 82.183 99.181 81.815C99.5337 80.251 99.848 78.733 100.124 77.261C100.185 76.9543 100.446 76.571 100.906 76.111C101.366 75.6357 101.918 75.2293 102.562 74.892C103.206 74.5547 103.819 74.386 104.402 74.386C104.939 74.386 105.483 74.547 106.035 74.869C106.142 74.6083 106.227 74.4473 106.288 74.386C106.349 74.3093 106.441 74.2633 106.564 74.248L108.565 74.133L108.634 74.179C108.45 74.3323 108.312 74.501 108.22 74.685C108.128 74.869 108.044 75.0837 107.967 75.329C107.691 76.2643 107.407 77.399 107.116 78.733C106.825 80.0517 106.679 80.964 106.679 81.47C106.679 81.8993 106.779 82.2903 106.978 82.643C107.193 82.9957 107.522 83.172 107.967 83.172C108.427 83.172 108.956 82.9727 109.554 82.574C110.167 82.1753 110.735 81.6157 111.256 80.895C111.793 80.1743 112.184 79.3617 112.429 78.457ZM102.562 82.804C102.777 82.804 103.037 82.6967 103.344 82.482C103.651 82.2673 103.934 81.976 104.195 81.608C104.471 81.24 104.663 80.8337 104.77 80.389L105.138 78.664C105.414 77.2533 105.606 76.3257 105.713 75.881C105.314 75.697 104.893 75.605 104.448 75.605C103.727 75.605 103.183 75.835 102.815 76.295C102.462 76.7397 102.225 77.2457 102.102 77.813L101.389 81.286C101.42 81.6693 101.558 82.022 101.803 82.344C102.048 82.6507 102.301 82.804 102.562 82.804ZM113.729 84.161C113.024 84.161 112.464 83.977 112.05 83.609C111.636 83.2257 111.429 82.62 111.429 81.792C111.429 81.5927 111.437 81.4393 111.452 81.332L112.188 77.836C112.495 76.272 112.694 75.3137 112.786 74.961C112.863 74.777 113.009 74.6313 113.223 74.524C113.438 74.4013 113.683 74.34 113.959 74.34C114.205 74.34 114.404 74.3937 114.557 74.501C114.726 74.593 114.818 74.7003 114.833 74.823C114.511 76.249 114.074 78.3573 113.522 81.148C113.507 81.2707 113.499 81.4317 113.499 81.631C113.499 82.0603 113.591 82.367 113.775 82.551C113.959 82.735 114.228 82.827 114.58 82.827C115.194 82.827 115.853 82.6123 116.558 82.183C117.264 81.7383 117.915 81.194 118.513 80.55C119.127 79.8907 119.602 79.239 119.939 78.595C120.169 78.687 120.284 78.8403 120.284 79.055C120.284 79.2083 120.254 79.3693 120.192 79.538C120.131 79.6913 120.093 79.791 120.077 79.837C119.786 80.527 119.28 81.2093 118.559 81.884C117.854 82.5587 117.057 83.1107 116.167 83.54C115.293 83.954 114.481 84.161 113.729 84.161ZM114.235 71.948C113.867 71.948 113.584 71.8407 113.384 71.626C113.2 71.4113 113.108 71.12 113.108 70.752C113.108 70.2767 113.246 69.878 113.522 69.556C113.798 69.234 114.174 69.073 114.649 69.073C115.017 69.073 115.301 69.1727 115.5 69.372C115.7 69.5713 115.799 69.855 115.799 70.223C115.799 70.6983 115.654 71.1047 115.362 71.442C115.071 71.7793 114.695 71.948 114.235 71.948ZM136.258 75.145C136.381 75.191 136.442 75.329 136.442 75.559C136.442 76.019 136.251 76.433 135.867 76.801C135.499 77.169 135.016 77.4603 134.418 77.675C133.836 77.8743 133.245 77.974 132.647 77.974C131.773 77.974 131.022 77.7287 130.393 77.238C130.516 77.698 130.577 78.1887 130.577 78.71C130.577 79.6607 130.378 80.55 129.979 81.378C129.581 82.1907 129.052 82.8423 128.392 83.333C127.733 83.8083 127.028 84.046 126.276 84.046C125.111 84.046 124.298 83.4557 123.838 82.275C123.44 82.8883 122.941 83.356 122.343 83.678C121.761 84 121.216 84.161 120.71 84.161C120.266 84.161 119.852 84.0383 119.468 83.793C119.085 83.5477 118.778 83.2333 118.548 82.85C118.318 82.4513 118.203 82.0527 118.203 81.654C118.357 80.8413 118.571 79.906 118.847 78.848C119.139 77.79 119.407 76.8547 119.652 76.042L119.813 75.513C120.043 74.731 120.526 74.34 121.262 74.34C121.584 74.34 121.883 74.409 122.159 74.547C121.776 75.5437 121.385 76.7473 120.986 78.158C120.588 79.5687 120.335 80.688 120.227 81.516C120.212 81.976 120.273 82.3287 120.411 82.574C120.549 82.8193 120.81 82.942 121.193 82.942C121.684 82.942 122.113 82.712 122.481 82.252C122.849 81.792 123.164 81.0713 123.424 80.09C123.639 79.3233 123.93 77.9357 124.298 75.927C125.678 75.927 126.33 76.2107 126.253 76.778C126.223 76.9773 126.138 77.3223 126 77.813C125.74 78.7177 125.556 79.4613 125.448 80.044C125.387 80.32 125.333 80.6497 125.287 81.033C125.241 81.401 125.218 81.6847 125.218 81.884C125.341 82.2673 125.487 82.5433 125.655 82.712C125.824 82.8807 126.039 82.965 126.299 82.965C126.79 82.965 127.212 82.7197 127.564 82.229C127.917 81.723 128.185 81.102 128.369 80.366C128.569 79.6147 128.668 78.8863 128.668 78.181C128.668 77.6443 128.607 77.1843 128.484 76.801C128.362 76.4023 128.147 75.8733 127.84 75.214C127.902 74.9687 128.101 74.7617 128.438 74.593C128.791 74.4243 129.059 74.34 129.243 74.34C129.335 74.34 129.427 74.3937 129.519 74.501C129.611 74.593 129.726 74.7387 129.864 74.938C130.217 75.4593 130.608 75.8887 131.037 76.226C131.467 76.548 132.065 76.709 132.831 76.709C133.414 76.709 134.027 76.594 134.671 76.364C135.315 76.134 135.844 75.7277 136.258 75.145ZM146.417 78.618C146.662 78.6793 146.785 78.8173 146.785 79.032C146.785 79.4 146.501 80.0057 145.934 80.849C145.367 81.6923 144.669 82.4513 143.841 83.126C143.028 83.7853 142.216 84.115 141.403 84.115C140.79 84.115 140.268 83.9233 139.839 83.54C139.41 83.1413 139.187 82.6353 139.172 82.022C138.758 82.5893 138.283 83.08 137.746 83.494C137.209 83.908 136.703 84.115 136.228 84.115C135.753 84.115 135.254 83.9233 134.733 83.54C134.212 83.1567 133.92 82.758 133.859 82.344L135.216 74.892C135.277 74.6007 135.377 74.455 135.515 74.455C135.699 74.455 136.029 74.524 136.504 74.662C136.995 74.7847 137.24 74.9073 137.24 75.03C137.24 75.076 137.171 75.375 137.033 75.927C136.88 76.571 136.665 77.56 136.389 78.894C136.128 80.228 135.952 81.1863 135.86 81.769C135.891 81.9837 135.998 82.183 136.182 82.367C136.381 82.5357 136.611 82.62 136.872 82.62C137.317 82.62 137.777 82.3593 138.252 81.838C138.743 81.3013 139.149 80.4733 139.471 79.354C139.747 78.4187 140.1 76.87 140.529 74.708C140.56 74.5393 140.644 74.455 140.782 74.455C140.981 74.455 141.296 74.524 141.725 74.662C142.17 74.7847 142.392 74.9227 142.392 75.076C141.947 76.6707 141.572 78.112 141.265 79.4C140.958 80.688 140.805 81.5313 140.805 81.93C140.805 82.2213 140.889 82.4667 141.058 82.666C141.242 82.8653 141.503 82.965 141.84 82.965C142.484 82.965 143.22 82.5893 144.048 81.838C144.876 81.0713 145.666 79.998 146.417 78.618Z" fill="white"/>
<path d="M10.3633 77.307L10.0706 78.2632L10.3831 78.3589L10.6918 78.2515L10.3633 77.307ZM8.50028 75.996L7.6891 76.5808L7.69684 76.5915L7.70485 76.602L8.50028 75.996ZM8.82228 70.246L9.61743 70.8525L9.62228 70.846L8.82228 70.246ZM11.6743 68.13L12.0497 69.0568L12.0497 69.0568L11.6743 68.13ZM17.9303 67.555L17.7766 68.5431L17.7887 68.545L17.8009 68.5466L17.9303 67.555ZM20.3683 67.969L20.1722 68.9496L20.1774 68.9506L20.3683 67.969ZM22.0243 68.268L21.8599 69.2544L21.8733 69.2566L21.8867 69.2585L22.0243 68.268ZM25.2903 68.061L25.6527 68.993L25.6594 68.9904L25.666 68.9877L25.2903 68.061ZM26.6703 66.98L27.6686 67.0379L27.8679 63.6004L25.8583 66.3964L26.6703 66.98ZM25.6123 69.487L26.2928 70.2199L26.3019 70.2111L25.6123 69.487ZM20.8513 70.131L20.5882 71.0958L20.601 71.0993L20.6138 71.1024L20.8513 70.131ZM18.1833 69.326L17.8529 70.2699L17.8659 70.2744L17.879 70.2786L18.1833 69.326ZM15.8603 68.613L15.6012 69.5788L15.6122 69.5818L15.6233 69.5845L15.8603 68.613ZM11.8583 69.027L12.4452 69.8366L12.4452 69.8366L11.8583 69.027ZM10.4553 70.775L9.54223 70.367L9.53821 70.3763L10.4553 70.775ZM10.6393 75.352L9.81348 75.916L9.81812 75.9228L9.82287 75.9295L10.6393 75.352ZM12.7783 77.008L13.5592 77.6327L14.3419 76.6542L13.2142 76.108L12.7783 77.008ZM12.6863 77.123V78.123H13.1669L13.4672 77.7477L12.6863 77.123ZM7.69528 84.138L7.92014 83.1636L7.90821 83.1609L7.89623 83.1584L7.69528 84.138ZM6.22328 83.701L5.255 83.9509L5.37628 84.4208L5.82054 84.6163L6.22328 83.701ZM6.03928 82.114L5.16139 81.6351L5.03928 81.859V82.114H6.03928ZM6.17728 81.861L6.91007 81.1805L5.96468 80.1624L5.29939 81.3821L6.17728 81.861ZM14.7793 78.181L13.8055 77.9536L13.8048 77.9564L14.7793 78.181ZM16.4123 71.373L15.6087 70.7778L15.4911 70.9366L15.4427 71.1282L16.4123 71.373ZM17.5163 70.269L18.1163 71.069L18.1207 71.0657L17.5163 70.269ZM18.7353 69.533L19.0515 68.5843L18.6963 68.4659L18.3507 68.6099L18.7353 69.533ZM18.9423 69.602L19.846 70.0301L20.3291 69.0102L19.2585 68.6533L18.9423 69.602ZM18.1833 71.925L19.1552 72.1602L19.1561 72.1566L18.1833 71.925ZM17.2863 76.019L16.307 75.8164L16.3046 75.8282L16.3024 75.8401L17.2863 76.019ZM16.8493 78.112L17.8203 78.3513L17.823 78.3399L16.8493 78.112ZM14.1353 82.873L14.7506 83.6613L14.7518 83.6603L14.1353 82.873ZM10.656 76.3508C10.1111 76.184 9.66369 75.8729 9.29571 75.39L7.70485 76.602C8.31821 77.4071 9.11275 77.97 10.0706 78.2632L10.656 76.3508ZM9.31146 75.4112C8.98961 74.9648 8.78728 74.3352 8.78728 73.443H6.78728C6.78728 74.6361 7.06029 75.7086 7.6891 76.5808L9.31146 75.4112ZM8.78728 73.443C8.78728 72.4173 9.07094 71.5689 9.6174 70.8524L8.02716 69.6395C7.19363 70.7324 6.78728 72.0154 6.78728 73.443H8.78728ZM9.62228 70.846C10.1889 70.0906 10.9835 69.4887 12.0497 69.0568L11.2988 67.2031C9.9424 67.7526 8.83571 68.5614 8.02228 69.646L9.62228 70.846ZM12.0497 69.0568C13.123 68.6221 14.3647 68.394 15.7913 68.394V66.394C14.1512 66.394 12.6482 66.6566 11.2988 67.2031L12.0497 69.0568ZM15.7913 68.394C16.4786 68.394 17.1401 68.4441 17.7766 68.5431L18.084 66.5669C17.3405 66.4512 16.576 66.394 15.7913 66.394V68.394ZM17.8009 68.5466C18.4782 68.6349 19.2678 68.7687 20.1722 68.9496L20.5644 66.9884C19.6288 66.8013 18.7931 66.6591 18.0596 66.5634L17.8009 68.5466ZM20.1774 68.9506C20.7382 69.0597 21.299 69.1609 21.8599 69.2544L22.1887 67.2816C21.6456 67.1911 21.1024 67.093 20.5592 66.9874L20.1774 68.9506ZM21.8867 69.2585C22.4679 69.3392 22.9915 69.383 23.4503 69.383V67.383C23.1117 67.383 22.6847 67.3501 22.1619 67.2775L21.8867 69.2585ZM23.4503 69.383C24.2318 69.383 24.9702 69.2584 25.6527 68.993L24.9278 67.129C24.5063 67.2929 24.0181 67.383 23.4503 67.383V69.383ZM25.666 68.9877C26.4058 68.6878 27.018 68.2097 27.4823 67.5636L25.8583 66.3964C25.6173 66.7317 25.3094 66.9742 24.9146 67.1343L25.666 68.9877ZM25.672 66.9221C25.6223 67.7785 25.3487 68.357 24.9226 68.7629L26.3019 70.2111C27.1638 69.3903 27.5956 68.2975 27.6686 67.0379L25.672 66.9221ZM24.9318 68.7542C24.5264 69.1306 23.8954 69.384 22.8983 69.384V71.384C24.2318 71.384 25.4101 71.0394 26.2927 70.2198L24.9318 68.7542ZM22.8983 69.384C22.3077 69.384 21.7051 69.3103 21.0887 69.1596L20.6138 71.1024C21.3775 71.2891 22.1395 71.384 22.8983 71.384V69.384ZM21.1144 69.1662C20.4595 68.9876 19.5855 68.7242 18.4876 68.3734L17.879 70.2786C18.989 70.6332 19.8937 70.9064 20.5882 71.0958L21.1144 69.1662ZM18.5136 68.3821C17.5766 68.0542 16.769 67.8053 16.0972 67.6415L15.6233 69.5845C16.2089 69.7274 16.9499 69.9538 17.8529 70.2699L18.5136 68.3821ZM16.1194 67.6472C15.4209 67.4597 14.7428 67.36 14.0893 67.36V69.36C14.5398 69.36 15.0423 69.4289 15.6012 69.5788L16.1194 67.6472ZM14.0893 67.36C13.038 67.36 12.0807 67.6306 11.2713 68.2174L12.4452 69.8366C12.8626 69.5341 13.3925 69.36 14.0893 69.36V67.36ZM11.2713 68.2174C10.5099 68.7694 9.93271 69.4932 9.54227 70.3671L11.3683 71.1829C11.6219 70.6154 11.98 70.1739 12.4452 69.8366L11.2713 68.2174ZM9.53821 70.3763C9.17378 71.2145 8.99528 72.11 8.99528 73.052H10.9953C10.9953 72.3686 11.1235 71.7462 11.3724 71.1737L9.53821 70.3763ZM8.99528 73.052C8.99528 74.1192 9.25064 75.0918 9.81348 75.916L11.4651 74.788C11.1693 74.3549 10.9953 73.7941 10.9953 73.052H8.99528ZM9.82287 75.9295C10.3973 76.7416 11.2686 77.3879 12.3424 77.908L13.2142 76.108C12.3253 75.6774 11.7706 75.2198 11.4557 74.7745L9.82287 75.9295ZM11.9974 76.3833L11.9054 76.4983L13.4672 77.7477L13.5592 77.6327L11.9974 76.3833ZM12.6863 76.123C12.0743 76.123 11.553 76.1386 11.1296 76.1721C10.7283 76.2039 10.3389 76.2567 10.0348 76.3625L10.6918 78.2515C10.7404 78.2346 10.9145 78.1954 11.2875 78.1659C11.6384 78.1381 12.1022 78.123 12.6863 78.123V76.123ZM9.62728 83.345C9.00376 83.345 8.43594 83.2826 7.92014 83.1636L7.47042 85.1124C8.15062 85.2694 8.8708 85.345 9.62728 85.345V83.345ZM7.89623 83.1584C7.33911 83.0441 6.92249 82.9161 6.62602 82.7857L5.82054 84.6163C6.29074 84.8232 6.85545 84.9865 7.49434 85.1176L7.89623 83.1584ZM7.19156 83.4511C7.09344 83.0709 7.03928 82.6276 7.03928 82.114H5.03928C5.03928 82.7658 5.10779 83.3804 5.255 83.9509L7.19156 83.4511ZM6.91718 82.5929L7.05518 82.3399L5.29939 81.3821L5.16139 81.6351L6.91718 82.5929ZM5.44449 82.5415C6.61732 83.8045 8.06561 84.471 9.74228 84.471V82.471C8.65896 82.471 7.73057 82.0642 6.91007 81.1805L5.44449 82.5415ZM9.74228 84.471C11.2747 84.471 12.5971 83.9279 13.6347 82.8381C14.6438 81.7783 15.3254 80.2644 15.7537 78.4055L13.8048 77.9564C13.4205 79.6242 12.8562 80.7553 12.1863 81.4589C11.545 82.1325 10.7552 82.471 9.74228 82.471V84.471ZM15.7531 78.4084C16.4581 75.3891 17.0008 73.1268 17.3818 71.6178L15.4427 71.1282C15.0571 72.6552 14.5111 74.9316 13.8055 77.9536L15.7531 78.4084ZM17.2158 71.9682C17.4626 71.6352 17.7611 71.3354 18.1163 71.069L16.9163 69.469C16.4128 69.8466 15.9753 70.2828 15.6087 70.7778L17.2158 71.9682ZM18.1207 71.0657C18.5224 70.7609 18.8544 70.5667 19.1199 70.4561L18.3507 68.6099C17.8801 68.806 17.3995 69.1024 16.9119 69.4723L18.1207 71.0657ZM18.4191 70.4817L18.6261 70.5507L19.2585 68.6533L19.0515 68.5843L18.4191 70.4817ZM18.0385 69.1739C17.7213 69.8436 17.449 70.6918 17.2105 71.6934L19.1561 72.1566C19.3776 71.2262 19.6112 70.5257 19.846 70.0301L18.0385 69.1739ZM17.2113 71.6898C16.9774 72.6568 16.6757 74.0344 16.307 75.8164L18.2655 76.2216C18.6328 74.4463 18.9292 73.0945 19.1552 72.1602L17.2113 71.6898ZM16.3024 75.8401C16.183 76.4971 16.0408 77.1784 15.8756 77.8841L17.823 78.3399C17.9951 77.6042 18.1443 76.8902 18.2702 76.1979L16.3024 75.8401ZM15.8783 77.8727C15.3748 79.9156 14.5582 81.2716 13.5187 82.0857L14.7518 83.6603C16.2576 82.4811 17.2504 80.663 17.8202 78.3513L15.8783 77.8727ZM13.52 82.0847C12.4555 82.9155 11.175 83.345 9.62728 83.345V85.345C11.5755 85.345 13.3004 84.7932 14.7506 83.6613L13.52 82.0847ZM33.7469 75.789L34.2769 74.941L33.4314 74.4125L32.9005 75.2565L33.7469 75.789ZM33.5169 77.1L34.2909 77.7332L34.2909 77.7332L33.5169 77.1ZM32.3669 77.928L32.7677 78.8442L32.7677 78.8442L32.3669 77.928ZM28.0199 76.042L29.0188 75.9944L28.9691 74.9516L27.9294 75.0461L28.0199 76.042ZM26.2259 76.87L25.5405 76.1418L25.5351 76.1469L25.5298 76.1521L26.2259 76.87ZM25.0759 78.664L24.1379 78.3173L24.0759 78.4851V78.664H25.0759ZM25.0759 78.71L26.0044 79.0814L26.0759 78.9026V78.71H25.0759ZM24.9609 79.055L25.9236 79.3257L25.934 79.2888L25.9415 79.2511L24.9609 79.055ZM24.0639 83.77L23.0786 83.5991L23.0725 83.6346L23.0689 83.6705L24.0639 83.77ZM22.2929 82.735L23.2768 82.9139L23.2774 82.9105L22.2929 82.735ZM23.1899 77.905L22.208 77.7158L22.208 77.7158L23.1899 77.905ZM23.7879 75.007L24.7473 75.2892L24.7509 75.277L24.7541 75.2647L23.7879 75.007ZM24.1099 74.547L23.6961 73.6366L23.6793 73.6443L23.6627 73.6526L24.1099 74.547ZM26.1109 74.662L27.0554 74.9905L27.3648 74.1011L26.4955 73.7389L26.1109 74.662ZM25.6049 76.548L24.6319 76.3171L26.4241 77.1215L25.6049 76.548ZM27.0539 75.076L26.4992 74.2439L26.4884 74.2513L27.0539 75.076ZM29.3999 74.639L29.0153 75.5621L29.049 75.5761L29.0837 75.5877L29.3999 74.639ZM29.7449 74.869H30.7449V74.6329L30.6393 74.4218L29.7449 74.869ZM33.2169 76.637C33.1777 76.6125 33.1002 76.5542 33.0333 76.4453C32.9622 76.3298 32.9309 76.2024 32.9309 76.088H34.9309C34.9309 75.554 34.6307 75.1621 34.2769 74.941L33.2169 76.637ZM32.9309 76.088C32.9309 76.1343 32.9161 76.2551 32.743 76.4668L34.2909 77.7332C34.6697 77.2702 34.9309 76.7164 34.9309 76.088H32.9309ZM32.743 76.4668C32.5876 76.6567 32.3444 76.8463 31.9661 77.0118L32.7677 78.8442C33.3708 78.5803 33.8943 78.218 34.2909 77.7332L32.743 76.4668ZM31.9661 77.0118C31.6126 77.1665 31.2139 77.25 30.7569 77.25V79.25C31.4653 79.25 32.1399 79.1188 32.7677 78.8442L31.9661 77.0118ZM30.7569 77.25C30.1159 77.25 29.7133 77.0896 29.4468 76.8647L28.157 78.3933C28.8719 78.9964 29.7726 79.25 30.7569 79.25V77.25ZM29.4468 76.8647C29.1697 76.6309 29.0363 76.3621 29.0188 75.9944L27.021 76.0896C27.0649 77.0099 27.4528 77.7991 28.157 78.3933L29.4468 76.8647ZM27.9294 75.0461C27.0189 75.1289 26.2147 75.5073 25.5405 76.1418L26.9113 77.5982C27.2797 77.2514 27.6716 77.0778 28.1105 77.0379L27.9294 75.0461ZM25.5298 76.1521C24.9093 76.7538 24.4469 77.4813 24.1379 78.3173L26.0139 79.0106C26.2263 78.436 26.5305 77.9676 26.9221 77.5879L25.5298 76.1521ZM24.0759 78.664V78.71H26.0759V78.664H24.0759ZM24.1474 78.3386C24.0826 78.5006 24.0147 78.687 23.9803 78.8589L25.9415 79.2511C25.9379 79.2691 25.9375 79.2645 25.9498 79.2275C25.9611 79.1938 25.9786 79.1459 26.0044 79.0814L24.1474 78.3386ZM23.9983 78.7843C23.8427 79.3374 23.5338 80.9744 23.0786 83.5991L25.0492 83.9409C25.5141 81.2602 25.8031 79.7539 25.9236 79.3257L23.9983 78.7843ZM23.0689 83.6705C23.1043 83.3167 23.3244 83.1148 23.4388 83.0386C23.5389 82.9718 23.6085 82.9615 23.5787 82.9685C23.5275 82.9804 23.376 83 23.0749 83V85C23.4179 85 23.7532 84.9813 24.0317 84.9165C24.1666 84.8851 24.3618 84.8269 24.5482 84.7027C24.7488 84.5689 25.0159 84.3 25.059 83.8695L23.0689 83.6705ZM23.0749 83C22.9487 83 22.8548 82.9944 22.7883 82.9866C22.7182 82.9784 22.7 82.9703 22.7153 82.9756C22.7242 82.9788 22.8269 83.0141 22.9366 83.1292C22.9952 83.1908 23.0532 83.2728 23.0951 83.3756C23.1373 83.4789 23.1549 83.5829 23.1549 83.678H21.1549C21.1549 83.9984 21.2799 84.2897 21.4883 84.5085C21.6746 84.7041 21.8923 84.8066 22.0546 84.8634C22.3704 84.9739 22.7372 85 23.0749 85V83ZM23.1549 83.678C23.1549 83.6987 23.1553 83.6563 23.1789 83.495C23.1995 83.354 23.2318 83.1615 23.2768 82.9139L21.309 82.5561C21.2236 83.0258 21.1549 83.444 21.1549 83.678H23.1549ZM23.2774 82.9105C23.5525 81.3667 23.8507 79.7613 24.1719 78.0942L22.208 77.7158C21.8852 79.3914 21.5853 81.0059 21.3084 82.5595L23.2774 82.9105ZM24.1719 78.0942C24.4998 76.3922 24.688 75.4909 24.7473 75.2892L22.8285 74.7248C22.7345 75.0444 22.5241 76.0751 22.208 77.7158L24.1719 78.0942ZM24.7541 75.2647C24.7625 75.2334 24.7625 75.2517 24.7336 75.293C24.7009 75.3398 24.6426 75.3987 24.5571 75.4414L23.6627 73.6526C23.1653 73.9013 22.9271 74.3542 22.8217 74.7493L24.7541 75.2647ZM24.5237 75.4574C24.5156 75.4611 24.5285 75.4539 24.5731 75.4462C24.6174 75.4386 24.6838 75.432 24.7769 75.432V73.432C24.4219 73.432 24.0424 73.4792 23.6961 73.6366L24.5237 75.4574ZM24.7769 75.432C25.2049 75.432 25.5114 75.4955 25.7263 75.5851L26.4955 73.7389C25.9744 73.5218 25.3916 73.432 24.7769 73.432V75.432ZM25.1664 74.3335C25.0251 74.7397 24.8463 75.4137 24.6319 76.3171L26.5779 76.7789C26.7929 75.873 26.9514 75.2896 27.0554 74.9905L25.1664 74.3335ZM26.4241 77.1215C26.7949 76.5918 27.1954 76.1915 27.6194 75.9007L26.4884 74.2513C25.8391 74.6965 25.2736 75.2775 24.7857 75.9745L26.4241 77.1215ZM27.6086 75.908C28.0248 75.6306 28.3946 75.524 28.7329 75.524V73.524C27.9365 73.524 27.187 73.7854 26.4992 74.2439L27.6086 75.908ZM28.7329 75.524C28.9002 75.524 28.9844 75.5492 29.0153 75.5621L29.7845 73.7159C29.4474 73.5755 29.0869 73.524 28.7329 73.524V75.524ZM29.0837 75.5877C29.1224 75.6006 29.109 75.6009 29.0695 75.5746C29.0301 75.5483 28.9276 75.4704 28.8505 75.3162L30.6393 74.4218C30.4058 73.9547 29.9527 73.7692 29.7161 73.6903L29.0837 75.5877ZM28.7449 74.869C28.7449 75.7441 28.9005 76.5817 29.3705 77.2209C29.8827 77.9175 30.6434 78.215 31.4699 78.215V76.215C31.1464 76.215 31.0446 76.1215 30.9818 76.0361C30.8768 75.8933 30.7449 75.5579 30.7449 74.869H28.7449ZM31.4699 78.215C32.813 78.215 33.859 77.4889 34.5934 76.3215L32.9005 75.2565C32.4388 75.9904 31.9668 76.215 31.4699 76.215V78.215ZM44.9339 78.457V77.457H44.169L43.9688 78.1953L44.9339 78.457ZM44.4509 81.47L43.6455 80.8773L43.6435 80.88L44.4509 81.47ZM42.2659 83.471L42.7892 84.3232L42.7892 84.3232L42.2659 83.471ZM38.3099 83.77L37.6921 84.5563L37.6988 84.5616L37.7055 84.5667L38.3099 83.77ZM37.3899 82.459L38.3358 82.1347L37.7432 80.4061L36.6068 81.8371L37.3899 82.459ZM35.8949 83.724L36.3606 84.6089L36.3697 84.6042L36.3786 84.5992L35.8949 83.724ZM33.1349 83.839L32.6108 84.6907L32.6229 84.6981L32.6352 84.7052L33.1349 83.839ZM32.1229 82.919L31.3229 83.519L31.3229 83.519L32.1229 82.919ZM31.6859 81.815L30.7104 81.595L30.6813 81.7243L30.6868 81.8566L31.6859 81.815ZM32.6289 77.261L31.6482 77.0649L31.646 77.0767L32.6289 77.261ZM33.4109 76.111L34.118 76.8181L34.1238 76.8123L34.1295 76.8064L33.4109 76.111ZM35.0669 74.892L34.6029 74.0062L34.6029 74.0062L35.0669 74.892ZM38.5399 74.869L38.036 75.7328L39.0275 76.3112L39.4646 75.2497L38.5399 74.869ZM38.7929 74.386L39.5 75.0931L39.5392 75.0539L39.5738 75.0107L38.7929 74.386ZM39.0689 74.248L39.0115 73.2496L38.9781 73.2516L38.9449 73.2557L39.0689 74.248ZM41.0699 74.133L41.6246 73.301L41.3464 73.1155L41.0125 73.1346L41.0699 74.133ZM41.1389 74.179L41.7791 74.9472L42.8079 74.0898L41.6936 73.347L41.1389 74.179ZM40.7249 74.685L39.8305 74.2378L39.8305 74.2378L40.7249 74.685ZM40.4719 75.329L39.5174 75.0307L39.515 75.0383L39.5128 75.046L40.4719 75.329ZM39.6209 78.733L40.5974 78.9487L40.5979 78.9464L39.6209 78.733ZM39.4829 82.643L38.6123 83.1351L38.6203 83.1491L38.6287 83.1629L39.4829 82.643ZM42.0589 82.574L41.5139 81.7355L41.5042 81.7419L42.0589 82.574ZM43.7609 80.895L42.9588 80.2977L42.9507 80.3089L43.7609 80.895ZM35.8489 82.482L36.4224 83.3012L36.4224 83.3012L35.8489 82.482ZM36.6999 81.608L35.8999 81.008L35.8917 81.0189L35.8839 81.03L36.6999 81.608ZM37.2749 80.389L38.247 80.6236L38.2501 80.6107L38.2529 80.5976L37.2749 80.389ZM37.6429 78.664L38.6209 78.8726L38.6227 78.8643L38.6243 78.856L37.6429 78.664ZM38.2179 75.881L39.19 76.1156L39.3827 75.3172L38.637 74.973L38.2179 75.881ZM35.3199 76.295L34.539 75.6703L34.5364 75.6736L35.3199 76.295ZM34.6069 77.813L33.6294 77.6017L33.6273 77.6119L34.6069 77.813ZM33.8939 81.286L32.9143 81.0849L32.8858 81.2241L32.8971 81.3657L33.8939 81.286ZM34.3079 82.344L33.5125 82.95L33.5196 82.9595L33.527 82.9687L34.3079 82.344ZM44.9339 79.457C44.8613 79.457 44.7491 79.4408 44.6294 79.3743C44.5083 79.307 44.4305 79.2166 44.3869 79.144C44.3473 79.0779 44.3401 79.0343 44.3414 79.0412C44.3425 79.0467 44.3479 79.079 44.3479 79.147H46.3479C46.3479 78.8496 46.3091 78.4604 46.1019 78.115C45.8458 77.6882 45.4107 77.457 44.9339 77.457V79.457ZM44.3479 79.147C44.3479 79.6034 44.1631 80.1739 43.6455 80.8773L45.2563 82.0627C45.9347 81.1408 46.3479 80.1626 46.3479 79.147H44.3479ZM43.6435 80.88C43.1406 81.5682 42.5101 82.1476 41.7426 82.6188L42.7892 84.3232C43.7697 83.7211 44.5959 82.9664 45.2583 82.06L43.6435 80.88ZM41.7426 82.6188C40.9668 83.0952 40.3432 83.276 39.8509 83.276V85.276C40.8306 85.276 41.817 84.9201 42.7892 84.3232L41.7426 82.6188ZM39.8509 83.276C39.4762 83.276 39.1771 83.1727 38.9143 82.9733L37.7055 84.5667C38.3321 85.042 39.0603 85.276 39.8509 85.276V83.276ZM38.9277 82.9837C38.6561 82.7703 38.4599 82.4964 38.3358 82.1347L36.444 82.7833C36.6879 83.4949 37.105 84.095 37.6921 84.5563L38.9277 82.9837ZM36.6068 81.8371C36.2749 82.2551 35.8783 82.5906 35.4112 82.8488L36.3786 84.5992C37.0768 84.2134 37.6769 83.7056 38.173 83.0809L36.6068 81.8371ZM35.4292 82.8391C34.9321 83.1007 34.5738 83.184 34.3309 83.184V85.184C35.008 85.184 35.6923 84.9607 36.3606 84.6089L35.4292 82.8391ZM34.3309 83.184C34.1332 83.184 33.9051 83.1289 33.6346 82.9728L32.6352 84.7052C33.162 85.0091 33.7313 85.184 34.3309 85.184V83.184ZM33.659 82.9873C33.3654 82.8066 33.1222 82.5847 32.9229 82.319L31.3229 83.519C31.6756 83.9893 32.1071 84.3807 32.6108 84.6907L33.659 82.9873ZM32.9229 82.319C32.7378 82.0723 32.6901 81.8942 32.685 81.7734L30.6868 81.8566C30.7124 82.4718 30.956 83.0297 31.3229 83.519L32.9229 82.319ZM32.6614 82.035C33.0166 80.4599 33.3334 78.93 33.6118 77.4453L31.646 77.0767C31.3724 78.536 31.0606 80.0421 30.7104 81.595L32.6614 82.035ZM33.6095 77.4571C33.6044 77.4823 33.6092 77.4355 33.6973 77.3058C33.7814 77.1821 33.9161 77.02 34.118 76.8181L32.7038 75.4039C32.2264 75.8813 31.7722 76.4456 31.6483 77.0649L33.6095 77.4571ZM34.1295 76.8064C34.5084 76.4149 34.9721 76.0706 35.5309 75.7778L34.6029 74.0062C33.8737 74.3881 33.2334 74.8564 32.6923 75.4156L34.1295 76.8064ZM35.5309 75.7778C36.0665 75.4973 36.521 75.386 36.9069 75.386V73.386C36.1274 73.386 35.3553 73.6121 34.6029 74.0062L35.5309 75.7778ZM36.9069 75.386C37.2354 75.386 37.6077 75.4829 38.036 75.7328L39.0438 74.0052C38.3681 73.6111 37.6517 73.386 36.9069 73.386V75.386ZM39.4646 75.2497C39.5122 75.1342 39.547 75.0596 39.5695 75.0168C39.5805 74.9956 39.5838 74.9915 39.579 74.9987C39.5764 75.0028 39.5695 75.0131 39.5582 75.0276C39.5473 75.0416 39.528 75.0651 39.5 75.0931L38.0858 73.6789C37.9413 73.8234 37.8472 73.9945 37.7978 74.0887C37.7359 74.2069 37.675 74.3432 37.6152 74.4883L39.4646 75.2497ZM39.5738 75.0107C39.5097 75.0907 39.4322 75.1499 39.3551 75.1884C39.2816 75.2252 39.2221 75.2366 39.1929 75.2403L38.9449 73.2557C38.634 73.2946 38.2755 73.4319 38.012 73.7613L39.5738 75.0107ZM39.1263 75.2464L41.1273 75.1314L41.0125 73.1346L39.0115 73.2496L39.1263 75.2464ZM40.5152 74.965L40.5842 75.011L41.6936 73.347L41.6246 73.301L40.5152 74.965ZM40.4987 73.4108C40.226 73.6381 39.9935 73.9118 39.8305 74.2378L41.6193 75.1322C41.6403 75.0902 41.6838 75.0266 41.7791 74.9472L40.4987 73.4108ZM39.8305 74.2378C39.7094 74.4798 39.6063 74.7463 39.5174 75.0307L41.4264 75.6273C41.4908 75.4211 41.5564 75.2582 41.6193 75.1322L39.8305 74.2378ZM39.5128 75.046C39.2279 76.0113 38.9385 77.1707 38.6439 78.5196L40.5979 78.9464C40.8859 77.6273 41.1639 76.5173 41.431 75.612L39.5128 75.046ZM38.6444 78.5173C38.3551 79.8271 38.1839 80.8401 38.1839 81.47H40.1839C40.1839 81.0879 40.3041 80.2763 40.5974 78.9487L38.6444 78.5173ZM38.1839 81.47C38.1839 82.0611 38.323 82.6232 38.6123 83.1351L40.3535 82.1509C40.2441 81.9574 40.1839 81.7376 40.1839 81.47H38.1839ZM38.6287 83.1629C39.0411 83.8404 39.7107 84.172 40.4719 84.172V82.172C40.383 82.172 40.3574 82.1551 40.3628 82.158C40.3641 82.1586 40.3644 82.1593 40.3624 82.1573C40.3599 82.1549 40.3507 82.1454 40.3371 82.1231L38.6287 83.1629ZM40.4719 84.172C41.2116 84.172 41.9366 83.8574 42.6136 83.4061L41.5042 81.7419C40.9852 82.088 40.6522 82.172 40.4719 82.172V84.172ZM42.6039 83.4124C43.34 82.934 43.9928 82.2806 44.5711 81.4811L42.9507 80.3089C42.4864 80.9507 42.0044 81.4167 41.5139 81.7356L42.6039 83.4124ZM44.5629 81.4923C45.1778 80.6667 45.6223 79.7392 45.899 78.7187L43.9688 78.1953C43.7548 78.9842 43.4174 79.682 42.9589 80.2977L44.5629 81.4923ZM35.0669 83.804C35.5897 83.804 36.0583 83.5561 36.4224 83.3012L35.2754 81.6628C35.164 81.7408 35.0871 81.7805 35.0426 81.7988C34.9972 81.8175 35.0097 81.804 35.0669 81.804V83.804ZM36.4224 83.3012C36.8402 83.0088 37.202 82.6291 37.5159 82.186L35.8839 81.03C35.6764 81.3229 35.471 81.5259 35.2754 81.6628L36.4224 83.3012ZM37.4999 82.208C37.857 81.7318 38.1075 81.2013 38.247 80.6236L36.3028 80.1544C36.2276 80.466 36.0948 80.7482 35.8999 81.008L37.4999 82.208ZM38.2529 80.5976L38.6209 78.8726L36.6649 78.4554L36.2969 80.1804L38.2529 80.5976ZM38.6243 78.856C38.9011 77.441 39.0887 76.5353 39.19 76.1156L37.2458 75.6464C37.1325 76.116 36.9367 77.0656 36.6615 78.472L38.6243 78.856ZM38.637 74.973C38.1052 74.7276 37.5404 74.605 36.9529 74.605V76.605C37.2548 76.605 37.5333 76.6664 37.7988 76.789L38.637 74.973ZM36.9529 74.605C36.0034 74.605 35.1391 74.9202 34.539 75.6703L36.1008 76.9197C36.2367 76.7498 36.4611 76.605 36.9529 76.605V74.605ZM34.5364 75.6736C34.0863 76.2411 33.7838 76.8881 33.6295 77.6017L35.5843 78.0243C35.6754 77.6032 35.8481 77.2382 36.1034 76.9164L34.5364 75.6736ZM33.6273 77.6119L32.9143 81.0849L34.8735 81.4871L35.5865 78.0141L33.6273 77.6119ZM32.8971 81.3657C32.9439 81.9505 33.1574 82.484 33.5125 82.95L35.1033 81.738C34.9678 81.56 34.9053 81.3882 34.8907 81.2063L32.8971 81.3657ZM33.527 82.9687C33.8638 83.3896 34.3738 83.804 35.0669 83.804V81.804C35.1013 81.804 35.1329 81.8093 35.1589 81.817C35.1841 81.8246 35.1979 81.8326 35.2 81.8338C35.2015 81.8347 35.1917 81.829 35.1716 81.8104C35.1515 81.7919 35.1235 81.7627 35.0888 81.7193L33.527 82.9687ZM45.7281 83.632L45.2271 84.4974L45.2404 84.5052L45.254 84.5125L45.7281 83.632ZM44.3251 82.482L43.5416 83.1034L43.5469 83.1101L43.5524 83.1167L44.3251 82.482ZM43.7961 81.424L42.8299 81.1663L42.7961 81.293V81.424H43.7961ZM44.4631 78.71L43.488 78.4884L43.4861 78.4967L43.4843 78.5051L44.4631 78.71ZM44.9231 76.479L45.9058 76.6644L45.9085 76.6497L45.9109 76.635L44.9231 76.479ZM47.1541 74.616L47.5422 75.5377L47.5537 75.5327L47.1541 74.616ZM50.5351 74.685L50.0596 75.5647L50.0689 75.5697L50.0783 75.5746L50.5351 74.685ZM50.0521 77.422L49.8096 78.3921L50.1056 78.4662L50.3926 78.3623L50.0521 77.422ZM49.9601 77.399L48.9617 77.4545L49.0025 78.1904L49.7176 78.3691L49.9601 77.399ZM49.4771 75.904L48.6196 76.4185L48.6298 76.4355L48.6407 76.452L49.4771 75.904ZM47.4531 75.766L46.7606 75.0446L46.7532 75.0517L46.746 75.0589L47.4531 75.766ZM46.8091 76.824L47.7923 77.0069L47.793 77.0029L46.8091 76.824ZM45.9351 81.217L44.9564 81.0119L44.9194 81.1885L44.9464 81.3668L45.9351 81.217ZM46.5101 82.413L45.8214 83.138L45.8302 83.1464L45.8392 83.1545L46.5101 82.413ZM51.2941 81.999L51.7614 82.8831L51.766 82.8807L51.2941 81.999ZM53.8931 78.664V77.664H53.2114L52.9623 78.2986L53.8931 78.664ZM53.2031 81.539L53.9029 82.2534L53.903 82.2532L53.2031 81.539ZM50.4661 83.379L50.8819 84.2885L50.8819 84.2885L50.4661 83.379ZM47.6371 83.115C47.1291 83.115 46.6555 82.9956 46.2022 82.7515L45.254 84.5125C45.9967 84.9124 46.7958 85.115 47.6371 85.115V83.115ZM46.2292 82.7666C45.7288 82.4769 45.3603 82.1668 45.0978 81.8473L43.5524 83.1167C43.9953 83.6559 44.5621 84.1124 45.2271 84.4974L46.2292 82.7666ZM45.1086 81.8606C44.9582 81.6709 44.8699 81.531 44.8228 81.4368C44.7716 81.3344 44.7961 81.3399 44.7961 81.424H42.7961C42.7961 81.7688 42.9088 82.081 43.0339 82.3312C43.1632 82.5897 43.3394 82.8484 43.5416 83.1034L45.1086 81.8606ZM44.7624 81.6817C45.0707 80.5252 45.2984 79.6004 45.4419 78.9149L43.4843 78.5051C43.3518 79.1383 43.1348 80.0228 42.8299 81.1663L44.7624 81.6817ZM45.4383 78.9316C45.5948 78.2429 45.7506 77.4869 45.9058 76.6644L43.9405 76.2936C43.789 77.0964 43.6381 77.8278 43.488 78.4884L45.4383 78.9316ZM45.9109 76.635C45.9015 76.6942 45.8845 76.6886 45.9404 76.6129C45.9955 76.5383 46.0973 76.4283 46.2709 76.2857L45.0014 74.7403C44.5298 75.1276 44.0414 75.6517 43.9354 76.323L45.9109 76.635ZM46.2709 76.2857C46.6161 76.0021 47.0365 75.7506 47.5422 75.5376L46.7661 73.6944C46.1064 73.9721 45.5148 74.3186 45.0014 74.7403L46.2709 76.2857ZM47.5537 75.5327C48.0651 75.3098 48.4713 75.225 48.7871 75.225V73.225C48.1216 73.225 47.4392 73.4009 46.7545 73.6993L47.5537 75.5327ZM48.7871 75.225C49.2062 75.225 49.6266 75.3306 50.0596 75.5647L51.0106 73.8053C50.309 73.426 49.564 73.225 48.7871 73.225V75.225ZM50.0783 75.5746C50.2493 75.6624 50.3172 75.7387 50.3436 75.7779C50.3649 75.8095 50.3861 75.8549 50.3861 75.95H52.3861C52.3861 75.4931 52.2655 75.0517 52.0031 74.6616C51.7458 74.2792 51.3882 73.9989 50.9919 73.7954L50.0783 75.5746ZM50.3861 75.95C50.3861 76.0303 50.3681 76.0787 50.3116 76.141C50.2357 76.2247 50.0645 76.354 49.7117 76.4817L50.3926 78.3623C50.9291 78.168 51.4248 77.8909 51.7936 77.484C52.1818 77.0556 52.3861 76.5291 52.3861 75.95H50.3861ZM50.2946 76.4519L50.2026 76.4289L49.7176 78.3691L49.8096 78.3921L50.2946 76.4519ZM50.9586 77.3435C50.9186 76.6233 50.7052 75.9537 50.3136 75.356L48.6407 76.452C48.8317 76.7436 48.9403 77.0707 48.9617 77.4545L50.9586 77.3435ZM50.3346 75.3895C49.979 74.7968 49.3978 74.214 48.5341 74.214V76.214C48.5113 76.214 48.4869 76.2099 48.4654 76.2025C48.4449 76.1954 48.4377 76.189 48.4439 76.1935C48.461 76.2061 48.526 76.2625 48.6196 76.4185L50.3346 75.3895ZM48.5341 74.214C47.8243 74.214 47.227 74.5968 46.7606 75.0446L48.1456 76.4874C48.4459 76.1992 48.5692 76.214 48.5341 76.214V74.214ZM46.746 75.0589C46.304 75.5009 45.9373 76.0286 45.8252 76.6451L47.793 77.0029C47.8036 76.9447 47.8662 76.7671 48.1602 76.4731L46.746 75.0589ZM45.826 76.6411C45.5823 77.9509 45.2925 79.4077 44.9564 81.0119L46.9139 81.4221C47.2524 79.8063 47.5453 78.3344 47.7922 77.0069L45.826 76.6411ZM44.9464 81.3668C45.0492 82.045 45.3219 82.6635 45.8214 83.138L47.1989 81.688C47.085 81.5798 46.9744 81.401 46.9238 81.0672L44.9464 81.3668ZM45.8392 83.1545C46.4471 83.7045 47.3288 83.85 48.1891 83.85V81.85C47.4548 81.85 47.2172 81.7042 47.181 81.6715L45.8392 83.1545ZM48.1891 83.85C49.3805 83.85 50.5752 83.5101 51.7614 82.8831L50.8268 81.1149C49.8664 81.6225 48.9911 81.85 48.1891 81.85V83.85ZM51.766 82.8807C53.138 82.1463 54.1297 80.7982 54.824 79.0294L52.9623 78.2986C52.3685 79.8112 51.6276 80.6863 50.8222 81.1173L51.766 82.8807ZM53.8931 79.664C53.8536 79.664 53.7711 79.6569 53.6715 79.6104C53.5666 79.5615 53.4821 79.487 53.4244 79.4062C53.3252 79.2674 53.3531 79.1822 53.3531 79.308H55.3531C55.3531 79.0045 55.3044 78.5973 55.0519 78.2438C54.7551 77.8283 54.3093 77.664 53.8931 77.664V79.664ZM53.3531 79.308C53.3531 79.6728 53.1661 80.1751 52.5032 80.8248L53.903 82.2532C54.7734 81.4002 55.3531 80.4152 55.3531 79.308H53.3531ZM52.5033 80.8246C51.8441 81.4704 51.0312 82.0211 50.0504 82.4695L50.8819 84.2885C52.0477 83.7555 53.0594 83.0796 53.9029 82.2534L52.5033 80.8246ZM50.0504 82.4695C49.0531 82.9254 48.2566 83.115 47.6371 83.115V85.115C48.643 85.115 49.7324 84.8139 50.8819 84.2885L50.0504 82.4695ZM59.542 74.386V73.386H58.6826L58.5533 74.2356L59.542 74.386ZM60.83 74.524L60.6457 75.5069L60.6629 75.5101L60.6801 75.5127L60.83 74.524ZM61.658 74.915L62.6376 75.1159L62.6833 74.8931L62.6281 74.6725L61.658 74.915ZM60.761 79.078L59.785 78.8601L59.785 78.8601L60.761 79.078ZM59.818 82.965L58.8532 82.7019L58.8514 82.7086L59.818 82.965ZM55.678 92.027L54.8686 91.4397L54.8662 91.443L55.678 92.027ZM44.914 94.994L45.5195 94.1981L45.5083 94.1898L44.914 94.994ZM44.339 91.636L45.1238 91.0164L44.3331 90.0147L43.5496 91.0221L44.339 91.636ZM52.757 92.671L52.2168 91.8294L52.2168 91.8294L52.757 92.671ZM55.586 89.313L56.4645 89.7907L56.4645 89.7907L55.586 89.313ZM57.978 82.85L58.9435 83.1104L59.6604 80.4516L57.4045 82.0308L57.978 82.85ZM56.575 83.678L56.9865 84.5894L56.9986 84.5839L57.0105 84.5782L56.575 83.678ZM54.344 83.724L53.8967 84.6184L53.9107 84.6254L53.9249 84.632L54.344 83.724ZM53.309 82.965L52.5657 83.634L52.5747 83.644L52.584 83.6537L53.309 82.965ZM52.895 81.999L51.9144 81.8029L51.895 81.9V81.999H52.895ZM53.263 79.906L54.249 80.0727L54.2506 80.0629L54.2521 80.0531L53.263 79.906ZM54.137 75.076L55.1127 75.2953L55.1148 75.2855L54.137 75.076ZM55.816 74.478L55.7113 75.4725L55.7373 75.4752L55.7634 75.4766L55.816 74.478ZM56.391 74.547L57.3678 74.7611L57.5603 73.8827L56.7072 73.5983L56.391 74.547ZM55.402 79.653L54.418 79.4747L54.4162 79.4845L54.4146 79.4943L55.402 79.653ZM55.057 81.562L54.0808 81.3451L54.0619 81.4298L54.058 81.5166L55.057 81.562ZM55.333 82.413L54.5773 83.0679L54.5885 83.0809L54.6002 83.0935L55.333 82.413ZM57.219 82.275L57.7611 83.1153L57.7676 83.111L57.219 82.275ZM58.323 81.309L59.1184 81.915L59.2657 81.7217L59.3078 81.4823L58.323 81.309ZM58.76 78.825L57.7764 78.6443L57.7751 78.6517L58.76 78.825ZM59.542 75.386C59.8307 75.386 60.1959 75.4225 60.6457 75.5069L61.0142 73.5411C60.4827 73.4415 59.9892 73.386 59.542 73.386V75.386ZM60.6801 75.5127C60.7798 75.5278 60.8553 75.5437 60.9104 75.5583C60.9671 75.5733 60.9899 75.5837 60.9894 75.5835C60.9883 75.583 60.9773 75.5777 60.9596 75.5661C60.9419 75.5544 60.914 75.5341 60.8818 75.5026C60.8144 75.4368 60.729 75.3224 60.6878 75.1575L62.6281 74.6725C62.4976 74.1506 62.0888 73.8909 61.8435 73.775C61.5783 73.6498 61.2733 73.5798 60.9798 73.5353L60.6801 75.5127ZM60.6784 74.7141C60.4345 75.9029 60.1368 77.2847 59.785 78.8601L61.7369 79.2959C62.0905 77.7126 62.3908 76.3191 62.6376 75.1159L60.6784 74.7141ZM59.785 78.8601C59.4341 80.4314 59.1235 81.7106 58.8532 82.7019L60.7827 83.2281C61.0644 82.1954 61.3825 80.8833 61.7369 79.2959L59.785 78.8601ZM58.8514 82.7086C57.9422 86.1366 56.6095 89.0405 54.8686 91.4397L56.4873 92.6143C58.3958 89.9842 59.823 86.8467 60.7845 83.2214L58.8514 82.7086ZM54.8662 91.443C53.2534 93.6845 51.0472 94.799 48.134 94.799V96.799C51.6607 96.799 54.4839 95.3988 56.4897 92.611L54.8662 91.443ZM48.134 94.799C46.7852 94.799 45.9717 94.5422 45.5195 94.1982L44.3084 95.7898C45.2669 96.5191 46.6001 96.799 48.134 96.799V94.799ZM45.5083 94.1898C45.0224 93.8307 44.856 93.4619 44.856 93.039H42.856C42.856 94.1801 43.3948 95.1147 44.3196 95.7982L45.5083 94.1898ZM44.856 93.039C44.856 92.7415 44.9419 92.4896 45.1283 92.2499L43.5496 91.0221C43.092 91.6104 42.856 92.2938 42.856 93.039H44.856ZM43.5541 92.2556C44.1343 92.9906 44.927 93.5621 45.8801 93.9954L46.7078 92.1746C45.9743 91.8412 45.4636 91.4467 45.1238 91.0164L43.5541 92.2556ZM45.8801 93.9954C46.8776 94.4488 48.0051 94.66 49.238 94.66V92.66C48.2322 92.66 47.397 92.4879 46.7078 92.1746L45.8801 93.9954ZM49.238 94.66C50.7321 94.66 52.0956 94.2837 53.2971 93.5126L52.2168 91.8294C51.3636 92.377 50.3811 92.66 49.238 92.66V94.66ZM53.2971 93.5126C54.5174 92.7294 55.5607 91.453 56.4645 89.7907L54.7074 88.8353C53.8938 90.3317 53.0512 91.2939 52.2168 91.8294L53.2971 93.5126ZM56.4645 89.7907C57.3755 88.1151 58.1973 85.8775 58.9435 83.1104L57.0124 82.5896C56.2866 85.2811 55.5137 87.3523 54.7074 88.8353L56.4645 89.7907ZM57.4045 82.0308C56.9855 82.3241 56.5638 82.5725 56.1394 82.7778L57.0105 84.5782C57.5368 84.3235 58.0504 84.0199 58.5514 83.6692L57.4045 82.0308ZM56.1634 82.7666C55.7391 82.9583 55.5005 83 55.402 83V85C55.9168 85 56.4602 84.8271 56.9865 84.5894L56.1634 82.7666ZM55.402 83C55.2885 83 55.0829 82.9637 54.763 82.816L53.9249 84.632C54.4024 84.8523 54.9021 85 55.402 85V83ZM54.7912 82.8296C54.4907 82.6793 54.2411 82.4943 54.034 82.2763L52.584 83.6537C52.9595 84.049 53.3999 84.37 53.8967 84.6184L54.7912 82.8296ZM54.0522 82.296C53.9029 82.1301 53.895 82.0371 53.895 81.999H51.895C51.895 82.6356 52.163 83.1866 52.5657 83.634L54.0522 82.296ZM53.8755 82.1951C53.9404 81.8708 54.0657 81.1571 54.249 80.0727L52.2769 79.7393C52.0922 80.8322 51.9722 81.5139 51.9144 81.8029L53.8755 82.1951ZM54.2521 80.0531C54.5256 78.2144 54.8128 76.6296 55.1126 75.2953L53.1613 74.8567C52.8478 76.2517 52.5523 77.8869 52.2738 79.7589L54.2521 80.0531ZM55.1148 75.2855C55.1162 75.2788 55.1124 75.3005 55.0903 75.335C55.0667 75.3716 55.0349 75.4032 55.0022 75.4251C54.9718 75.4453 54.956 75.447 54.9706 75.4434C54.9865 75.4395 55.0279 75.432 55.103 75.432V73.432C54.71 73.432 54.2742 73.5067 53.8928 73.7609C53.4853 74.0326 53.2518 74.4343 53.1592 74.8665L55.1148 75.2855ZM55.103 75.432C55.2378 75.432 55.437 75.4436 55.7113 75.4725L55.9206 73.4835C55.6123 73.451 55.3361 73.432 55.103 73.432V75.432ZM55.7634 75.4766C55.8968 75.4836 55.9934 75.4918 56.0591 75.4996C56.0915 75.5035 56.11 75.5066 56.1174 75.508C56.1278 75.51 56.1095 75.5073 56.0747 75.4957L56.7072 73.5983C56.4652 73.5176 56.1359 73.4935 55.8685 73.4794L55.7634 75.4766ZM55.4141 74.3329C55.1647 75.4708 54.8324 77.1876 54.418 79.4747L56.3859 79.8313C56.7995 77.5491 57.1265 75.8618 57.3678 74.7611L55.4141 74.3329ZM54.4146 79.4943C54.2772 80.3492 54.166 80.9614 54.0808 81.3451L56.0331 81.7789C56.1319 81.3346 56.2507 80.6741 56.3893 79.8117L54.4146 79.4943ZM54.058 81.5166C54.0324 82.0794 54.1911 82.6224 54.5773 83.0679L56.0886 81.7581C56.0761 81.7436 56.0508 81.7192 56.0559 81.6074L54.058 81.5166ZM54.6002 83.0935C54.9628 83.484 55.4483 83.735 56.023 83.735V81.735C56.0269 81.735 56.0354 81.7355 56.0469 81.738C56.0585 81.7405 56.0692 81.7443 56.0778 81.7483C56.0963 81.7569 56.091 81.7598 56.0657 81.7325L54.6002 83.0935ZM56.023 83.735C56.6339 83.735 57.2312 83.4572 57.7611 83.1153L56.6768 81.4347C56.256 81.7062 56.056 81.735 56.023 81.735V83.735ZM57.7676 83.111C58.3142 82.7524 58.781 82.3578 59.1184 81.915L57.5275 80.703C57.3742 80.9042 57.105 81.1536 56.6703 81.439L57.7676 83.111ZM59.3078 81.4823L59.7448 78.9983L57.7751 78.6517L57.3381 81.1357L59.3078 81.4823ZM59.7435 79.0057C60.1569 76.7549 60.4205 75.2597 60.5306 74.5364L58.5533 74.2356C58.4487 74.923 58.191 76.3871 57.7764 78.6443L59.7435 79.0057ZM71.5122 82.528L70.7961 83.2262L70.8051 83.2351L71.5122 82.528ZM70.9142 72.224L70.0366 71.7445L70.0329 71.7515L70.9142 72.224ZM84.1852 69.257L83.478 69.9642L83.4872 69.9731L84.1852 69.257ZM84.8062 79.446L85.6915 79.911L85.6915 79.911L84.8062 79.446ZM81.4482 83.034L81.9667 83.8891L81.9667 83.8891L81.4482 83.034ZM80.5282 81.907L79.9225 81.1113L79.9167 81.1157L80.5282 81.907ZM82.8282 78.802L81.9012 78.4268L81.8974 78.4363L82.8282 78.802ZM75.1692 69.832L75.7731 70.6291L75.7806 70.6233L75.1692 69.832ZM72.8462 72.96L73.7709 73.3408L73.7724 73.337L72.8462 72.96ZM73.2832 81.631L74.0425 80.9802L74.0425 80.9802L73.2832 81.631ZM76.5262 83.345C74.5916 83.345 73.1997 82.8012 72.2193 81.8209L70.8051 83.2351C72.2474 84.6774 74.1981 85.345 76.5262 85.345V83.345ZM72.2282 81.8299C71.2685 80.8455 70.7182 79.3744 70.7182 77.261H68.7182C68.7182 79.717 69.3639 81.7571 70.7962 83.2261L72.2282 81.8299ZM70.7182 77.261C70.7182 75.537 71.0843 74.0233 71.7955 72.6965L70.0329 71.7515C69.1494 73.3994 68.7182 75.2437 68.7182 77.261H70.7182ZM71.7917 72.7035C72.5187 71.373 73.518 70.3413 74.8002 69.5911L73.7902 67.8649C72.1897 68.8013 70.935 70.1004 70.0366 71.7445L71.7917 72.7035ZM74.8002 69.5911C76.0743 68.8456 77.5301 68.463 79.1942 68.463V66.463C77.209 66.463 75.3987 66.9237 73.7902 67.8649L74.8002 69.5911ZM79.1942 68.463C81.133 68.463 82.5154 69.0014 83.4781 69.9641L84.8923 68.5499C83.463 67.1206 81.5181 66.463 79.1942 66.463V68.463ZM83.4872 69.9731C84.4477 70.9093 85.0022 72.3316 85.0022 74.409H87.0022C87.0022 71.9784 86.3454 69.9661 84.8832 68.5409L83.4872 69.9731ZM85.0022 74.409C85.0022 76.0991 84.6374 77.6168 83.9209 78.981L85.6915 79.911C86.5696 78.2392 87.0022 76.3989 87.0022 74.409H85.0022ZM83.9209 78.981C83.2066 80.341 82.2128 81.4009 80.9297 82.1789L81.9667 83.8891C83.5663 82.9191 84.8112 81.587 85.6915 79.911L83.9209 78.981ZM80.9297 82.1789C79.6589 82.9495 78.2007 83.345 76.5262 83.345V85.345C78.5317 85.345 80.3549 84.8665 81.9667 83.8891L80.9297 82.1789ZM76.8482 84.08C78.4813 84.08 79.9305 83.6326 81.1396 82.6983L79.9167 81.1157C79.1019 81.7454 78.0978 82.08 76.8482 82.08V84.08ZM81.1339 82.7027C82.3174 81.8018 83.191 80.6133 83.7589 79.1677L81.8974 78.4363C81.4534 79.5667 80.7937 80.4482 79.9225 81.1113L81.1339 82.7027ZM83.7551 79.1772C84.3285 77.7606 84.6102 76.2367 84.6102 74.616H82.6102C82.6102 76.0006 82.3705 77.2674 81.9012 78.4268L83.7551 79.1772ZM84.6102 74.616C84.6102 72.4871 84.1505 70.7061 83.046 69.4659L81.5524 70.7961C82.1959 71.5186 82.6102 72.7276 82.6102 74.616H84.6102ZM83.046 69.4659C81.954 68.2399 80.4768 67.659 78.7342 67.659V69.659C79.9969 69.659 80.8964 70.0595 81.5524 70.7961L83.046 69.4659ZM78.7342 67.659C77.1641 67.659 75.757 68.114 74.5577 69.0407L75.7806 70.6233C76.6054 69.986 77.575 69.659 78.7342 69.659V67.659ZM74.5653 69.0349C73.3933 69.9228 72.516 71.1186 71.92 72.583L73.7724 73.337C74.2498 72.1641 74.9211 71.2745 75.7731 70.6291L74.5653 69.0349ZM71.9215 72.5792C71.3295 74.0171 71.0412 75.5898 71.0412 77.284H73.0412C73.0412 75.8196 73.2896 74.5096 73.7709 73.3407L71.9215 72.5792ZM71.0412 77.284C71.0412 79.3357 71.4776 81.061 72.5239 82.2818L74.0425 80.9802C73.4328 80.269 73.0412 79.0963 73.0412 77.284H71.0412ZM72.5239 82.2818C73.5828 83.5171 75.0769 84.08 76.8482 84.08V82.08C75.5222 82.08 74.6396 81.6769 74.0425 80.9802L72.5239 82.2818ZM100.446 78.848V77.848H99.7456L99.5062 78.5063L100.446 78.848ZM100.768 79.009L99.9543 79.5902L99.9759 79.6206L99.9998 79.6492L100.768 79.009ZM100.101 81.217L99.2593 80.677L99.2567 80.6812L100.101 81.217ZM98.054 83.356L98.6353 84.1698L98.6448 84.1629L98.054 83.356ZM93.339 83.701L92.6586 84.4338L92.6721 84.4464L92.6861 84.4584L93.339 83.701ZM92.902 80.711L91.9367 80.4501L91.9333 80.4623L91.9303 80.4746L92.902 80.711ZM93.523 78.572L92.5672 78.2779L92.5661 78.2815L93.523 78.572ZM94.121 76.433L95.0925 76.67L95.1411 76.4708L95.1074 76.2686L94.121 76.433ZM92.695 77.123L92.0261 76.3797L92.0261 76.3797L92.695 77.123ZM89.774 80.527L88.8485 80.1484L88.8163 80.2271L88.7978 80.3101L89.774 80.527ZM89.268 83.011L90.2564 83.1631L90.2572 83.1575L89.268 83.011ZM89.153 83.678L88.2043 83.3618L88.2043 83.3618L89.153 83.678ZM89.107 83.862L90.0772 84.1045L90.0829 84.0815L90.0876 84.0581L89.107 83.862ZM89.038 83.977L88.5908 83.0826L88.4457 83.1551L88.3309 83.2699L89.038 83.977ZM87.865 83.954L87.8026 84.9521L87.8026 84.9521L87.865 83.954ZM87.129 83.816L86.1426 83.6516L86.129 83.7332V83.816H87.129ZM87.842 80.366L88.8188 80.5802L88.823 80.5611L88.8264 80.5418L87.842 80.366ZM87.957 79.745H86.957L88.9367 79.9454L87.957 79.745ZM88.992 74.685L89.9717 74.8854L89.9777 74.8561L89.982 74.8264L88.992 74.685ZM89.084 74.501L89.4002 75.4497L89.4677 75.4272L89.5312 75.3954L89.084 74.501ZM90.993 74.8L91.9632 75.0425L92.1283 74.382L91.5743 73.9863L90.993 74.8ZM90.74 75.95L91.7162 76.1669L91.7172 76.1624L90.74 75.95ZM90.073 78.595L89.1079 78.333L90.8449 79.2307L90.073 78.595ZM92.718 75.766L93.3999 76.4975L93.3999 76.4975L92.718 75.766ZM95.57 74.754L95.2538 75.7027L95.2622 75.7054L95.57 74.754ZM96.398 75.168L97.3647 75.4239L97.4351 75.1579L97.3595 74.8933L96.398 75.168ZM95.984 76.732L96.9472 77.0013L96.9507 76.9879L95.984 76.732ZM95.087 80.136L94.1138 79.906L94.1138 79.906L95.087 80.136ZM97.525 82.505L98.075 83.3402L98.0797 83.3371L97.525 82.505ZM99.273 80.872L98.4904 80.2495L98.4886 80.2518L99.273 80.872ZM100.446 79.848C100.383 79.848 100.287 79.835 100.183 79.7827C100.077 79.7295 100.001 79.6559 99.9543 79.5902L101.582 78.4278C101.307 78.0436 100.889 77.848 100.446 77.848V79.848ZM99.9998 79.6492C99.8888 79.516 99.883 79.3907 99.883 79.377H101.883C101.883 79.0567 101.801 78.686 101.536 78.3688L99.9998 79.6492ZM99.883 79.377C99.883 79.3766 99.883 79.3847 99.8805 79.4025C99.878 79.4202 99.8734 79.4454 99.8649 79.4789C99.8476 79.5471 99.8172 79.6387 99.7672 79.7564C99.6662 79.994 99.5018 80.299 99.2593 80.677L100.943 81.757C101.222 81.3223 101.448 80.9143 101.608 80.5386C101.763 80.1747 101.883 79.7755 101.883 79.377H99.883ZM99.2567 80.6812C98.8255 81.3606 98.2339 81.9849 97.4633 82.5491L98.6448 84.1629C99.5914 83.4698 100.365 82.6681 100.945 81.7528L99.2567 80.6812ZM97.4728 82.5423C96.7815 83.036 96.0336 83.276 95.202 83.276V85.276C96.4558 85.276 97.6092 84.9026 98.6353 84.1697L97.4728 82.5423ZM95.202 83.276C94.5582 83.276 94.199 83.1221 93.992 82.9436L92.6861 84.4584C93.3684 85.0466 94.2512 85.276 95.202 85.276V83.276ZM94.0195 82.9682C93.8153 82.7787 93.695 82.5336 93.695 82.137H91.695C91.695 83.0284 92.004 83.826 92.6586 84.4338L94.0195 82.9682ZM93.695 82.137C93.695 81.8632 93.7458 81.4731 93.8737 80.9474L91.9303 80.4746C91.7822 81.0836 91.695 81.6441 91.695 82.137H93.695ZM93.8674 80.9719C94.017 80.4182 94.2208 79.7159 94.4799 78.8625L92.5661 78.2815C92.3039 79.1455 92.0937 79.8692 91.9367 80.4501L93.8674 80.9719ZM94.4788 78.8661C94.7284 78.0549 94.9334 77.3224 95.0925 76.67L93.1495 76.196C93.002 76.801 92.8083 77.4944 92.5672 78.2779L94.4788 78.8661ZM95.1074 76.2686C95.0672 76.0271 94.9427 75.7389 94.6635 75.5295C94.4026 75.3338 94.1226 75.295 93.937 75.295V77.295C93.8588 77.295 93.6631 77.2792 93.4635 77.1295C93.2457 76.9661 93.1595 76.7469 93.1346 76.5974L95.1074 76.2686ZM93.937 75.295C93.6867 75.295 93.4747 75.3705 93.3367 75.4311C93.187 75.4968 93.0432 75.5817 92.9108 75.6699C92.6461 75.8464 92.3486 76.0895 92.0261 76.3797L93.364 77.8663C93.6548 77.6045 93.8709 77.4336 94.0202 77.3341C94.0948 77.2843 94.1331 77.2657 94.1406 77.2624C94.1597 77.254 94.08 77.295 93.937 77.295V75.295ZM92.0261 76.3797C91.379 76.9621 90.7446 77.6131 90.1223 78.3311L91.6337 79.6409C92.2075 78.9789 92.7844 78.3879 93.364 77.8663L92.0261 76.3797ZM90.1223 78.3311C89.5287 79.016 89.056 79.6411 88.8485 80.1484L90.6996 80.9056C90.7681 80.7382 91.0313 80.336 91.6337 79.6409L90.1223 78.3311ZM88.7978 80.3101C88.5232 81.5459 88.3463 82.409 88.2788 82.8645L90.2572 83.1575C90.3124 82.785 90.4728 81.9921 90.7502 80.7439L88.7978 80.3101ZM88.2796 82.8589C88.2493 83.0562 88.2255 83.2045 88.2078 83.3068C88.1989 83.3585 88.1925 83.3932 88.1882 83.4143C88.1861 83.425 88.1855 83.4276 88.1862 83.4246C88.1865 83.4229 88.1879 83.4173 88.1902 83.4088C88.1921 83.4015 88.1968 83.3843 88.2043 83.3618L90.1017 83.9942C90.1393 83.8815 90.1657 83.7223 90.1787 83.6467C90.1994 83.5267 90.2254 83.3645 90.2564 83.1631L88.2796 82.8589ZM88.2043 83.3618C88.1704 83.4634 88.1456 83.5699 88.1264 83.6659L90.0876 84.0581C90.0928 84.0319 90.0971 84.0132 90.1002 84.001C90.1034 83.9882 90.1041 83.987 90.1017 83.9942L88.2043 83.3618ZM88.1369 83.6195C88.1441 83.5907 88.1653 83.5147 88.2208 83.4223C88.2779 83.3271 88.3915 83.1822 88.5908 83.0826L89.4852 84.8714C89.9283 84.6499 90.0463 84.2281 90.0772 84.1045L88.1369 83.6195ZM88.3309 83.2699C88.4971 83.1037 88.6761 83.0453 88.761 83.0241C88.852 83.0014 88.9207 83 88.946 83V85C89.0173 85 89.1244 84.9948 89.2461 84.9644C89.3616 84.9355 89.5636 84.8656 89.7451 84.6841L88.3309 83.2699ZM88.946 83C88.7492 83 88.4151 82.9864 87.9274 82.9559L87.8026 84.9521C88.2963 84.9829 88.6828 85 88.946 85V83ZM87.9274 82.9559C87.6918 82.9412 87.5576 82.9249 87.4973 82.9136C87.4582 82.9063 87.5012 82.9103 87.5758 82.943C87.6105 82.9582 87.7147 83.0059 87.8245 83.1087C87.9412 83.2182 88.129 83.4567 88.129 83.816H86.129C86.129 84.1906 86.3245 84.444 86.4566 84.5678C86.5817 84.6851 86.7088 84.7467 86.7742 84.7753C86.9102 84.8348 87.0451 84.8637 87.1287 84.8794C87.3138 84.9141 87.5476 84.9361 87.8026 84.9521L87.9274 82.9559ZM88.1154 83.9804C88.2025 83.458 88.4343 82.3335 88.8188 80.5802L86.8652 80.1518C86.4831 81.8945 86.2396 83.07 86.1426 83.6516L88.1154 83.9804ZM88.8264 80.5418C88.8647 80.3275 88.893 80.171 88.9115 80.0708C88.921 80.0197 88.9271 79.9878 88.9304 79.9713C88.9327 79.9596 88.9314 79.9669 88.928 79.9813C88.9269 79.9858 88.9244 79.9962 88.9208 80.0097C88.9193 80.0151 88.9087 80.0548 88.8899 80.1037C88.885 80.1166 88.8546 80.1983 88.7944 80.2906C88.7715 80.3257 88.6844 80.4588 88.5191 80.5712C88.3113 80.7125 87.8809 80.8648 87.4424 80.6017C87.1364 80.4181 87.0367 80.1395 87.0178 80.0879C86.9838 79.995 86.9716 79.918 86.967 79.8859C86.9571 79.816 86.957 79.7608 86.957 79.745H88.957C88.957 79.7288 88.957 79.6732 88.9469 79.603C88.9423 79.5708 88.9301 79.4937 88.8961 79.4007C88.8772 79.349 88.7774 79.0703 88.4714 78.8867C88.0328 78.6236 87.6024 78.7759 87.3945 78.9173C87.2293 79.0297 87.1421 79.1628 87.1192 79.198C87.0589 79.2905 87.0283 79.3725 87.0232 79.3858C87.0041 79.4354 86.9932 79.4763 86.9912 79.4834C86.9871 79.4986 86.9841 79.511 86.9824 79.5181C86.9766 79.5425 86.9717 79.5668 86.9692 79.5791C86.963 79.6105 86.9547 79.6543 86.945 79.7067C86.9252 79.8135 86.896 79.9752 86.8576 80.1902L88.8264 80.5418ZM88.9367 79.9454L89.9717 74.8854L88.0123 74.4846L86.9773 79.5446L88.9367 79.9454ZM89.982 74.8264C89.9813 74.8313 89.9785 74.8492 89.9712 74.8762C89.964 74.9023 89.9495 74.9487 89.9209 75.0057C89.8673 75.1129 89.7176 75.3439 89.4002 75.4497L88.7678 73.5523C88.4044 73.6734 88.2164 73.9427 88.1321 74.1113C88.0491 74.2772 88.0172 74.4378 88.0021 74.5436L89.982 74.8264ZM89.5312 75.3954C89.4679 75.4271 89.4173 75.442 89.3925 75.4485C89.366 75.4554 89.3499 75.4575 89.3484 75.4577C89.3474 75.4579 89.371 75.455 89.429 75.455V73.455C89.3184 73.455 89.2002 73.4598 89.0841 73.4753C88.9818 73.4889 88.8116 73.5192 88.6368 73.6066L89.5312 75.3954ZM89.429 75.455C90.0902 75.455 90.3498 75.5695 90.4118 75.6137L91.5743 73.9863C90.9922 73.5705 90.2092 73.455 89.429 73.455V75.455ZM90.0229 74.5575C90.0026 74.6385 89.9131 75.0462 89.7628 75.7376L91.7172 76.1624C91.7938 75.81 91.853 75.5388 91.8949 75.3484C91.9159 75.253 91.9323 75.1788 91.9444 75.1251C91.9504 75.0982 91.9551 75.0773 91.9586 75.062C91.9626 75.0446 91.9638 75.0401 91.9632 75.0425L90.0229 74.5575ZM89.7638 75.7331C89.6152 76.402 89.3972 77.2672 89.1079 78.333L91.0381 78.857C91.3315 77.7761 91.5582 76.878 91.7162 76.1669L89.7638 75.7331ZM90.8449 79.2307C91.6782 78.2188 92.5301 77.3083 93.3999 76.4975L92.0361 75.0345C91.0966 75.9104 90.1851 76.8858 89.3011 77.9593L90.8449 79.2307ZM93.3999 76.4975C93.8364 76.0906 94.1748 75.8119 94.423 75.6413C94.5471 75.556 94.6286 75.5117 94.6729 75.4917C94.7287 75.4666 94.6786 75.501 94.558 75.501V73.501C94.2765 73.501 94.029 73.5881 93.8509 73.6684C93.6614 73.7539 93.4726 73.8677 93.29 73.9932C92.9249 74.2442 92.5043 74.5981 92.0361 75.0345L93.3999 76.4975ZM94.558 75.501C94.5246 75.501 94.5179 75.4976 94.5517 75.5032C94.5814 75.5081 94.6281 75.5177 94.695 75.5344C94.8294 75.568 95.0137 75.6227 95.2538 75.7027L95.8862 73.8053C95.6203 73.7167 95.3829 73.6448 95.1801 73.5941C94.9973 73.5484 94.7715 73.501 94.558 73.501V75.501ZM95.2622 75.7054C95.5056 75.7842 95.6495 75.8428 95.7208 75.8784C95.7582 75.8971 95.7429 75.8935 95.7043 75.8626C95.6836 75.8461 95.6411 75.8097 95.5941 75.751C95.5479 75.6932 95.4787 75.5904 95.4365 75.4427L97.3595 74.8933C97.2658 74.5653 97.0454 74.3743 96.9537 74.3009C96.8385 74.2087 96.7159 74.1399 96.6152 74.0896C96.4106 73.9872 96.1557 73.8925 95.8778 73.8026L95.2622 75.7054ZM95.4313 74.9121L95.0173 76.4761L96.9507 76.9879L97.3647 75.4239L95.4313 74.9121ZM95.0209 76.4628C94.6208 77.8941 94.3177 79.0435 94.1138 79.906L96.0602 80.366C96.255 79.5418 96.5499 78.4219 96.9471 77.0012L95.0209 76.4628ZM94.1138 79.906C93.9101 80.7678 93.788 81.5037 93.788 82.068H95.788C95.788 81.743 95.8652 81.1908 96.0602 80.366L94.1138 79.906ZM93.788 82.068C93.788 82.5587 93.9013 83.1128 94.3047 83.5444C94.72 83.9886 95.2753 84.126 95.777 84.126V82.126C95.6986 82.126 95.6724 82.1152 95.6802 82.118C95.685 82.1197 95.6975 82.1248 95.7145 82.1357C95.7318 82.1467 95.7496 82.1613 95.7658 82.1786C95.7819 82.1959 95.7928 82.2119 95.7993 82.2235C95.8056 82.2348 95.8064 82.2392 95.8046 82.2334C95.8027 82.2273 95.7984 82.2115 95.7947 82.1836C95.7909 82.1556 95.788 82.1176 95.788 82.068H93.788ZM95.777 84.126C96.5732 84.126 97.3463 83.8201 98.075 83.3402L96.975 81.6698C96.4464 82.0179 96.0542 82.126 95.777 82.126V84.126ZM98.0797 83.3371C98.8181 82.8448 99.4767 82.2267 100.057 81.4922L98.4886 80.2518C98.0267 80.8359 97.5199 81.3065 96.9703 81.6729L98.0797 83.3371ZM100.056 81.4945C100.646 80.7518 101.097 79.9839 101.386 79.1897L99.5062 78.5063C99.3043 79.0614 98.973 79.6429 98.4904 80.2495L100.056 81.4945ZM112.429 78.457V77.457H111.664L111.464 78.1953L112.429 78.457ZM111.946 81.47L111.141 80.8773L111.139 80.88L111.946 81.47ZM109.761 83.471L110.284 84.3232L110.284 84.3232L109.761 83.471ZM105.805 83.77L105.187 84.5563L105.194 84.5616L105.201 84.5667L105.805 83.77ZM104.885 82.459L105.831 82.1347L105.238 80.4061L104.102 81.8371L104.885 82.459ZM103.39 83.724L103.856 84.6089L103.865 84.6042L103.874 84.5992L103.39 83.724ZM100.63 83.839L100.106 84.6907L100.118 84.6981L100.13 84.7052L100.63 83.839ZM99.618 82.919L98.818 83.519L98.818 83.519L99.618 82.919ZM99.181 81.815L98.2055 81.595L98.1764 81.7243L98.1819 81.8566L99.181 81.815ZM100.124 77.261L99.1434 77.0649L99.1411 77.0767L100.124 77.261ZM100.906 76.111L101.613 76.8181L101.619 76.8123L101.625 76.8064L100.906 76.111ZM102.562 74.892L102.098 74.0062L102.098 74.0062L102.562 74.892ZM106.035 74.869L105.531 75.7328L106.523 76.3112L106.96 75.2497L106.035 74.869ZM106.288 74.386L106.995 75.0931L107.034 75.0539L107.069 75.0107L106.288 74.386ZM106.564 74.248L106.507 73.2496L106.473 73.2516L106.44 73.2557L106.564 74.248ZM108.565 74.133L109.12 73.301L108.841 73.1155L108.508 73.1346L108.565 74.133ZM108.634 74.179L109.274 74.9472L110.303 74.0898L109.189 73.347L108.634 74.179ZM108.22 74.685L107.326 74.2378L107.326 74.2378L108.22 74.685ZM107.967 75.329L107.013 75.0307L107.01 75.0383L107.008 75.046L107.967 75.329ZM107.116 78.733L108.092 78.9487L108.093 78.9464L107.116 78.733ZM106.978 82.643L106.107 83.1351L106.115 83.1491L106.124 83.1629L106.978 82.643ZM109.554 82.574L109.009 81.7355L108.999 81.7419L109.554 82.574ZM111.256 80.895L110.454 80.2977L110.446 80.3089L111.256 80.895ZM103.344 82.482L103.917 83.3012L103.917 83.3012L103.344 82.482ZM104.195 81.608L103.395 81.008L103.387 81.0189L103.379 81.03L104.195 81.608ZM104.77 80.389L105.742 80.6236L105.745 80.6107L105.748 80.5976L104.77 80.389ZM105.138 78.664L106.116 78.8726L106.118 78.8643L106.119 78.856L105.138 78.664ZM105.713 75.881L106.685 76.1156L106.878 75.3172L106.132 74.973L105.713 75.881ZM102.815 76.295L102.034 75.6703L102.032 75.6736L102.815 76.295ZM102.102 77.813L101.125 77.6017L101.122 77.6119L102.102 77.813ZM101.389 81.286L100.409 81.0849L100.381 81.2241L100.392 81.3657L101.389 81.286ZM101.803 82.344L101.008 82.95L101.015 82.9595L101.022 82.9687L101.803 82.344ZM112.429 79.457C112.356 79.457 112.244 79.4408 112.124 79.3743C112.003 79.307 111.926 79.2166 111.882 79.144C111.842 79.0779 111.835 79.0343 111.837 79.0412C111.838 79.0467 111.843 79.079 111.843 79.147H113.843C113.843 78.8496 113.804 78.4604 113.597 78.115C113.341 77.6882 112.906 77.457 112.429 77.457V79.457ZM111.843 79.147C111.843 79.6034 111.658 80.1739 111.141 80.8773L112.751 82.0627C113.43 81.1408 113.843 80.1626 113.843 79.147H111.843ZM111.139 80.88C110.636 81.5682 110.005 82.1476 109.238 82.6188L110.284 84.3232C111.265 83.7211 112.091 82.9664 112.753 82.06L111.139 80.88ZM109.238 82.6188C108.462 83.0952 107.838 83.276 107.346 83.276V85.276C108.326 85.276 109.312 84.9201 110.284 84.3232L109.238 82.6188ZM107.346 83.276C106.971 83.276 106.672 83.1727 106.409 82.9733L105.201 84.5667C105.827 85.042 106.555 85.276 107.346 85.276V83.276ZM106.423 82.9837C106.151 82.7703 105.955 82.4964 105.831 82.1347L103.939 82.7833C104.183 83.4949 104.6 84.095 105.187 84.5563L106.423 82.9837ZM104.102 81.8371C103.77 82.2551 103.373 82.5906 102.906 82.8488L103.874 84.5992C104.572 84.2134 105.172 83.7056 105.668 83.0809L104.102 81.8371ZM102.924 82.8391C102.427 83.1007 102.069 83.184 101.826 83.184V85.184C102.503 85.184 103.187 84.9607 103.856 84.6089L102.924 82.8391ZM101.826 83.184C101.628 83.184 101.4 83.1289 101.13 82.9728L100.13 84.7052C100.657 85.0091 101.226 85.184 101.826 85.184V83.184ZM101.154 82.9873C100.86 82.8066 100.617 82.5847 100.418 82.319L98.818 83.519C99.1707 83.9893 99.6022 84.3807 100.106 84.6907L101.154 82.9873ZM100.418 82.319C100.233 82.0723 100.185 81.8942 100.18 81.7734L98.1819 81.8566C98.2075 82.4718 98.4511 83.0297 98.818 83.519L100.418 82.319ZM100.157 82.035C100.512 80.4599 100.828 78.93 101.107 77.4453L99.1411 77.0767C98.8675 78.536 98.5557 80.0421 98.2055 81.595L100.157 82.035ZM101.105 77.4571C101.1 77.4823 101.104 77.4355 101.192 77.3058C101.277 77.1821 101.411 77.02 101.613 76.8181L100.199 75.4039C99.7215 75.8813 99.2673 76.4456 99.1434 77.0649L101.105 77.4571ZM101.625 76.8064C102.003 76.4149 102.467 76.0706 103.026 75.7778L102.098 74.0062C101.369 74.3881 100.729 74.8564 100.187 75.4156L101.625 76.8064ZM103.026 75.7778C103.562 75.4973 104.016 75.386 104.402 75.386V73.386C103.623 73.386 102.85 73.6121 102.098 74.0062L103.026 75.7778ZM104.402 75.386C104.731 75.386 105.103 75.4829 105.531 75.7328L106.539 74.0052C105.863 73.6111 105.147 73.386 104.402 73.386V75.386ZM106.96 75.2497C107.007 75.1342 107.042 75.0596 107.065 75.0168C107.076 74.9956 107.079 74.9915 107.074 74.9987C107.071 75.0028 107.065 75.0131 107.053 75.0276C107.042 75.0416 107.023 75.0651 106.995 75.0931L105.581 73.6789C105.436 73.8234 105.342 73.9945 105.293 74.0887C105.231 74.2069 105.17 74.3432 105.11 74.4883L106.96 75.2497ZM107.069 75.0107C107.005 75.0907 106.927 75.1499 106.85 75.1884C106.777 75.2252 106.717 75.2366 106.688 75.2403L106.44 73.2557C106.129 73.2946 105.771 73.4319 105.507 73.7613L107.069 75.0107ZM106.621 75.2464L108.622 75.1314L108.508 73.1346L106.507 73.2496L106.621 75.2464ZM108.01 74.965L108.079 75.011L109.189 73.347L109.12 73.301L108.01 74.965ZM107.994 73.4108C107.721 73.6381 107.489 73.9118 107.326 74.2378L109.114 75.1322C109.135 75.0902 109.179 75.0266 109.274 74.9472L107.994 73.4108ZM107.326 74.2378C107.205 74.4798 107.101 74.7463 107.013 75.0307L108.921 75.6273C108.986 75.4211 109.051 75.2582 109.114 75.1322L107.326 74.2378ZM107.008 75.046C106.723 76.0113 106.434 77.1707 106.139 78.5196L108.093 78.9464C108.381 77.6273 108.659 76.5173 108.926 75.612L107.008 75.046ZM106.14 78.5173C105.85 79.8271 105.679 80.8401 105.679 81.47H107.679C107.679 81.0879 107.799 80.2763 108.092 78.9487L106.14 78.5173ZM105.679 81.47C105.679 82.0611 105.818 82.6232 106.107 83.1351L107.849 82.1509C107.739 81.9574 107.679 81.7376 107.679 81.47H105.679ZM106.124 83.1629C106.536 83.8404 107.206 84.172 107.967 84.172V82.172C107.878 82.172 107.853 82.1551 107.858 82.158C107.859 82.1586 107.86 82.1593 107.858 82.1573C107.855 82.1549 107.846 82.1454 107.832 82.1231L106.124 83.1629ZM107.967 84.172C108.707 84.172 109.432 83.8574 110.109 83.4061L108.999 81.7419C108.48 82.088 108.147 82.172 107.967 82.172V84.172ZM110.099 83.4124C110.835 82.934 111.488 82.2806 112.066 81.4811L110.446 80.3089C109.981 80.9507 109.5 81.4167 109.009 81.7356L110.099 83.4124ZM112.058 81.4923C112.673 80.6667 113.117 79.7392 113.394 78.7187L111.464 78.1953C111.25 78.9842 110.912 79.682 110.454 80.2977L112.058 81.4923ZM102.562 83.804C103.085 83.804 103.553 83.5561 103.917 83.3012L102.771 81.6628C102.659 81.7408 102.582 81.7805 102.538 81.7988C102.492 81.8175 102.505 81.804 102.562 81.804V83.804ZM103.917 83.3012C104.335 83.0088 104.697 82.6291 105.011 82.186L103.379 81.03C103.172 81.3229 102.966 81.5259 102.771 81.6628L103.917 83.3012ZM104.995 82.208C105.352 81.7318 105.603 81.2013 105.742 80.6236L103.798 80.1544C103.723 80.466 103.59 80.7482 103.395 81.008L104.995 82.208ZM105.748 80.5976L106.116 78.8726L104.16 78.4554L103.792 80.1804L105.748 80.5976ZM106.119 78.856C106.396 77.441 106.584 76.5353 106.685 76.1156L104.741 75.6464C104.628 76.116 104.432 77.0656 104.157 78.472L106.119 78.856ZM106.132 74.973C105.6 74.7276 105.035 74.605 104.448 74.605V76.605C104.75 76.605 105.028 76.6664 105.294 76.789L106.132 74.973ZM104.448 74.605C103.498 74.605 102.634 74.9202 102.034 75.6703L103.596 76.9197C103.732 76.7498 103.956 76.605 104.448 76.605V74.605ZM102.032 75.6736C101.581 76.2411 101.279 76.8881 101.125 77.6017L103.079 78.0243C103.17 77.6032 103.343 77.2382 103.599 76.9164L102.032 75.6736ZM101.122 77.6119L100.409 81.0849L102.369 81.4871L103.082 78.0141L101.122 77.6119ZM100.392 81.3657C100.439 81.9505 100.652 82.484 101.008 82.95L102.598 81.738C102.463 81.56 102.4 81.3882 102.386 81.2063L100.392 81.3657ZM101.022 82.9687C101.359 83.3896 101.869 83.804 102.562 83.804V81.804C102.596 81.804 102.628 81.8093 102.654 81.817C102.679 81.8246 102.693 81.8326 102.695 81.8338C102.697 81.8347 102.687 81.829 102.667 81.8104C102.647 81.7919 102.619 81.7627 102.584 81.7193L101.022 82.9687ZM112.05 83.609L111.371 84.3428L111.378 84.3497L111.386 84.3564L112.05 83.609ZM111.452 81.332L110.474 81.126L110.467 81.1581L110.462 81.1906L111.452 81.332ZM112.188 77.836L113.167 78.042L113.17 78.0284L112.188 77.836ZM112.786 74.961L111.863 74.5764L111.836 74.6409L111.819 74.7086L112.786 74.961ZM113.223 74.524L113.67 75.4184L113.695 75.406L113.719 75.3922L113.223 74.524ZM114.557 74.501L113.984 75.3202L114.029 75.3522L114.078 75.3789L114.557 74.501ZM114.833 74.823L115.809 75.0433L115.847 74.8726L115.826 74.699L114.833 74.823ZM113.522 81.148L112.541 80.954L112.534 80.9888L112.53 81.024L113.522 81.148ZM113.775 82.551L113.068 83.2581L113.068 83.2581L113.775 82.551ZM116.558 82.183L117.078 83.0372L117.085 83.0331L117.092 83.0289L116.558 82.183ZM118.513 80.55L117.781 79.8689L117.78 79.8695L118.513 80.55ZM119.939 78.595L120.311 77.6665L119.472 77.3312L119.053 78.131L119.939 78.595ZM120.192 79.538L121.121 79.9094L121.127 79.8947L121.132 79.8797L120.192 79.538ZM120.077 79.837L120.998 80.226L121.014 80.1901L121.026 80.1532L120.077 79.837ZM118.559 81.884L117.876 81.1539L117.868 81.1614L118.559 81.884ZM116.167 83.54L116.595 84.4438L116.602 84.4406L116.167 83.54ZM113.384 71.626L112.625 72.2768L112.638 72.2919L112.651 72.3064L113.384 71.626ZM113.522 69.556L114.281 70.2068L114.281 70.2068L113.522 69.556ZM115.5 69.372L114.793 70.0791L114.793 70.0791L115.5 69.372ZM115.362 71.442L116.119 72.0956L116.119 72.0956L115.362 71.442ZM113.729 83.161C113.2 83.161 112.9 83.0262 112.715 82.8616L111.386 84.3564C112.029 84.9278 112.848 85.161 113.729 85.161V83.161ZM112.73 82.8752C112.6 82.755 112.429 82.4728 112.429 81.792H110.429C110.429 82.7672 110.673 83.6963 111.371 84.3428L112.73 82.8752ZM112.429 81.792C112.429 81.6078 112.437 81.5102 112.442 81.4734L110.462 81.1906C110.437 81.3684 110.429 81.5775 110.429 81.792H112.429ZM112.431 81.538L113.167 78.042L111.21 77.63L110.474 81.126L112.431 81.538ZM113.17 78.0284C113.479 76.4513 113.671 75.5291 113.754 75.2134L111.819 74.7086C111.717 75.0982 111.511 76.0927 111.207 77.6436L113.17 78.0284ZM113.709 75.3456C113.703 75.3606 113.695 75.3755 113.686 75.3893C113.676 75.4031 113.667 75.4136 113.66 75.4209C113.646 75.4354 113.644 75.4318 113.67 75.4184L112.776 73.6296C112.393 73.8213 112.05 74.1277 111.863 74.5764L113.709 75.3456ZM113.719 75.3922C113.766 75.3656 113.837 75.34 113.959 75.34V73.34C113.53 73.34 113.11 73.437 112.727 73.6558L113.719 75.3922ZM113.959 75.34C114.01 75.34 114.032 75.3457 114.033 75.3459C114.033 75.3459 114.027 75.3444 114.018 75.3403C114.009 75.336 113.997 75.3295 113.984 75.3202L115.131 73.6818C114.764 73.4251 114.347 73.34 113.959 73.34V75.34ZM114.078 75.3789C114.092 75.3863 114.049 75.3662 113.993 75.3013C113.931 75.228 113.861 75.1072 113.841 74.947L115.826 74.699C115.752 74.1105 115.326 73.7813 115.036 73.6231L114.078 75.3789ZM113.858 74.6027C113.533 76.0422 113.094 78.1611 112.541 80.954L114.503 81.342C115.055 78.5536 115.49 76.4558 115.809 75.0433L113.858 74.6027ZM112.53 81.024C112.507 81.2049 112.499 81.412 112.499 81.631H114.499C114.499 81.4514 114.506 81.3365 114.515 81.272L112.53 81.024ZM112.499 81.631C112.499 82.1618 112.606 82.796 113.068 83.2581L114.482 81.8439C114.531 81.8929 114.535 81.9265 114.526 81.8957C114.516 81.8611 114.499 81.7792 114.499 81.631H112.499ZM113.068 83.2581C113.499 83.6885 114.059 83.827 114.58 83.827V81.827C114.489 81.827 114.447 81.8148 114.439 81.8121C114.436 81.8109 114.44 81.8122 114.45 81.8181C114.46 81.8241 114.471 81.8328 114.482 81.8439L113.068 83.2581ZM114.58 83.827C115.43 83.827 116.269 83.5299 117.078 83.0372L116.038 81.3288C115.437 81.6947 114.957 81.827 114.58 81.827V83.827ZM117.092 83.0289C117.874 82.5356 118.592 81.9346 119.246 81.2305L117.78 79.8695C117.238 80.4534 116.653 80.9411 116.025 81.3371L117.092 83.0289ZM119.245 81.2311C119.906 80.5214 120.438 79.798 120.825 79.059L119.053 78.131C118.766 78.68 118.348 79.2599 117.781 79.8689L119.245 81.2311ZM119.568 79.5235C119.561 79.5209 119.478 79.4861 119.398 79.379C119.31 79.262 119.284 79.1368 119.284 79.055H121.284C121.284 78.7586 121.201 78.4494 120.998 78.179C120.803 77.9185 120.547 77.7611 120.311 77.6665L119.568 79.5235ZM119.284 79.055C119.284 79.0738 119.281 79.1188 119.252 79.1963L121.132 79.8797C121.227 79.6198 121.284 79.3429 121.284 79.055H119.284ZM119.264 79.1666C119.205 79.3128 119.155 79.4414 119.129 79.5208L121.026 80.1532C121.026 80.1534 121.032 80.135 121.051 80.0867C121.068 80.0426 121.091 79.9839 121.121 79.9094L119.264 79.1666ZM119.156 79.448C118.934 79.9748 118.525 80.5461 117.876 81.154L119.243 82.614C120.035 81.8726 120.638 81.0792 120.998 80.226L119.156 79.448ZM117.868 81.1614C117.239 81.7628 116.529 82.2551 115.732 82.6394L116.602 84.4406C117.584 83.9662 118.469 83.3545 119.25 82.6066L117.868 81.1614ZM115.739 82.6363C114.962 83.0044 114.296 83.161 113.729 83.161V85.161C114.665 85.161 115.625 84.9036 116.595 84.4437L115.739 82.6363ZM114.235 70.948C114.147 70.948 114.108 70.935 114.1 70.9322C114.097 70.9309 114.099 70.9314 114.104 70.9348C114.11 70.9384 114.114 70.9424 114.117 70.9455L112.651 72.3064C113.086 72.7746 113.665 72.948 114.235 72.948V70.948ZM114.143 70.9752C114.143 70.9752 114.143 70.9752 114.143 70.9751C114.143 70.9751 114.143 70.975 114.143 70.9748C114.143 70.9745 114.142 70.9735 114.141 70.9718C114.14 70.9685 114.136 70.9603 114.131 70.9454C114.121 70.9147 114.108 70.854 114.108 70.752H112.108C112.108 71.2854 112.244 71.832 112.625 72.2768L114.143 70.9752ZM114.108 70.752C114.108 70.4846 114.18 70.3255 114.281 70.2068L112.763 68.9052C112.313 69.4305 112.108 70.0688 112.108 70.752H114.108ZM114.281 70.2068C114.343 70.1348 114.426 70.073 114.649 70.073V68.073C113.922 68.073 113.253 68.3332 112.763 68.9052L114.281 70.2068ZM114.649 70.073C114.745 70.073 114.792 70.0861 114.806 70.0912C114.817 70.0948 114.806 70.0923 114.793 70.0791L116.207 68.6649C115.768 68.2258 115.198 68.073 114.649 68.073V70.073ZM114.793 70.0791C114.78 70.0659 114.777 70.0556 114.781 70.0657C114.786 70.0802 114.799 70.1275 114.799 70.223H116.799C116.799 69.6741 116.646 69.104 116.207 68.6649L114.793 70.0791ZM114.799 70.223C114.799 70.4756 114.729 70.6454 114.605 70.7884L116.119 72.0956C116.578 71.564 116.799 70.921 116.799 70.223H114.799ZM114.605 70.7884C114.511 70.8978 114.415 70.948 114.235 70.948V72.948C114.975 72.948 115.631 72.6608 116.119 72.0956L114.605 70.7884ZM136.258 75.145L136.609 74.2087L135.889 73.9385L135.443 74.5658L136.258 75.145ZM135.867 76.801L135.175 76.0796L135.167 76.0867L135.16 76.0939L135.867 76.801ZM134.418 77.675L134.742 78.6212L134.749 78.6187L134.756 78.6162L134.418 77.675ZM130.393 77.238L131.009 76.4497L128.659 74.616L129.427 77.4957L130.393 77.238ZM129.979 81.378L130.877 81.8184L130.88 81.8118L129.979 81.378ZM128.392 83.333L128.977 84.1442L128.983 84.1398L128.989 84.1352L128.392 83.333ZM123.838 82.275L124.77 81.912L124.062 80.0954L123 81.73L123.838 82.275ZM122.343 83.678L121.869 82.7975L121.86 82.8028L122.343 83.678ZM119.468 83.793L120.007 82.9507L120.007 82.9507L119.468 83.793ZM118.548 82.85L117.682 83.3497L117.686 83.3571L117.691 83.3645L118.548 82.85ZM118.203 81.654L117.221 81.4686L117.203 81.5605V81.654H118.203ZM118.847 78.848L117.883 78.5825L117.88 78.5956L118.847 78.848ZM119.652 76.042L118.696 75.7508L118.695 75.753L119.652 76.042ZM119.813 75.513L120.77 75.8042L120.773 75.7952L119.813 75.513ZM122.159 74.547L123.093 74.906L123.419 74.0586L122.606 73.6526L122.159 74.547ZM120.986 78.158L120.024 77.886L120.024 77.886L120.986 78.158ZM120.227 81.516L119.236 81.3874L119.229 81.4349L119.228 81.4827L120.227 81.516ZM120.411 82.574L119.54 83.0643L119.54 83.0643L120.411 82.574ZM122.481 82.252L123.262 82.8767L123.262 82.8767L122.481 82.252ZM123.424 80.09L122.461 79.8203L122.458 79.8333L123.424 80.09ZM124.298 75.927V74.927H123.465L123.315 75.7468L124.298 75.927ZM126.253 76.778L127.242 76.9301L127.243 76.921L127.244 76.9119L126.253 76.778ZM126 77.813L126.961 78.0899L126.963 78.0837L126 77.813ZM125.448 80.044L126.424 80.2609L126.428 80.2431L126.432 80.2252L125.448 80.044ZM125.287 81.033L126.28 81.157L126.28 81.1521L125.287 81.033ZM125.218 81.884H124.218V82.0401L124.266 82.1888L125.218 81.884ZM125.655 82.712L126.362 82.0049L126.362 82.0049L125.655 82.712ZM127.564 82.229L128.376 82.8126L128.381 82.8067L128.385 82.8008L127.564 82.229ZM128.369 80.366L127.403 80.1096L127.401 80.1165L127.399 80.1235L128.369 80.366ZM128.484 76.801L127.528 77.0951L127.532 77.1058L128.484 76.801ZM127.84 75.214L126.87 74.9715L126.784 75.3148L126.934 75.6357L127.84 75.214ZM128.438 74.593L128.007 73.6909L127.999 73.6946L127.991 73.6986L128.438 74.593ZM129.519 74.501L128.76 75.1518L128.785 75.181L128.812 75.2081L129.519 74.501ZM129.864 74.938L130.693 74.3777L130.686 74.3688L129.864 74.938ZM131.037 76.226L130.419 77.0123L130.428 77.0193L130.437 77.026L131.037 76.226ZM134.671 76.364L134.335 75.4223L134.335 75.4223L134.671 76.364ZM135.907 76.0813C135.805 76.0431 135.71 75.9825 135.632 75.9039C135.555 75.8273 135.509 75.749 135.482 75.6891C135.434 75.5812 135.442 75.5178 135.442 75.559H137.442C137.442 75.2562 137.367 74.4929 136.609 74.2087L135.907 76.0813ZM135.442 75.559C135.442 75.7038 135.395 75.8683 135.175 76.0796L136.56 77.5224C137.106 76.9977 137.442 76.3342 137.442 75.559H135.442ZM135.16 76.0939C134.917 76.3371 134.57 76.5582 134.08 76.7338L134.756 78.6162C135.463 78.3625 136.082 78.0009 136.574 77.5081L135.16 76.0939ZM134.095 76.7288C133.613 76.8936 133.132 76.974 132.647 76.974V78.974C133.359 78.974 134.058 78.8551 134.742 78.6212L134.095 76.7288ZM132.647 76.974C131.974 76.974 131.444 76.7898 131.009 76.4497L129.778 78.0263C130.6 78.6675 131.573 78.974 132.647 78.974V76.974ZM129.427 77.4957C129.525 77.8641 129.577 78.2675 129.577 78.71H131.577C131.577 78.1099 131.507 77.5319 131.36 76.9803L129.427 77.4957ZM129.577 78.71C129.577 79.5158 129.41 80.2562 129.078 80.9442L130.88 81.8118C131.346 80.8438 131.577 79.8055 131.577 78.71H129.577ZM129.081 80.9376C128.746 81.6222 128.314 82.1444 127.795 82.5308L128.989 84.1352C129.789 83.5403 130.416 82.7592 130.877 81.8184L129.081 80.9376ZM127.807 82.5218C127.304 82.885 126.8 83.046 126.276 83.046V85.046C127.255 85.046 128.162 84.7317 128.977 84.1442L127.807 82.5218ZM126.276 83.046C125.87 83.046 125.59 82.9461 125.38 82.7942C125.165 82.6378 124.949 82.3702 124.77 81.912L122.906 82.638C123.188 83.3605 123.608 83.9784 124.205 84.4123C124.809 84.8507 125.517 85.046 126.276 85.046V83.046ZM123 81.73C122.685 82.2139 122.308 82.5611 121.869 82.7975L122.817 84.5585C123.574 84.1509 124.194 83.5628 124.677 82.82L123 81.73ZM121.86 82.8028C121.38 83.0679 121.002 83.161 120.71 83.161V85.161C121.431 85.161 122.141 84.9321 122.827 84.5532L121.86 82.8028ZM120.71 83.161C120.461 83.161 120.234 83.0956 120.007 82.9507L118.929 84.6353C119.469 84.981 120.07 85.161 120.71 85.161V83.161ZM120.007 82.9507C119.752 82.7871 119.555 82.584 119.406 82.3355L117.691 83.3645C118.002 83.8827 118.418 84.3083 118.929 84.6353L120.007 82.9507ZM119.414 82.3503C119.258 82.0798 119.203 81.8517 119.203 81.654H117.203C117.203 82.2536 117.378 82.8229 117.682 83.3497L119.414 82.3503ZM119.186 81.8394C119.334 81.0551 119.543 80.1428 119.815 79.1004L117.88 78.5956C117.6 79.6692 117.379 80.6276 117.221 81.4686L119.186 81.8394ZM119.811 79.1135C120.101 78.0612 120.367 77.134 120.61 76.331L118.695 75.753C118.447 76.5753 118.176 77.5188 117.883 78.5825L119.811 79.1135ZM120.609 76.3332L120.77 75.8042L118.857 75.2218L118.696 75.7508L120.609 76.3332ZM120.773 75.7952C120.848 75.5388 120.936 75.4439 120.977 75.4105C121.009 75.3846 121.079 75.34 121.262 75.34V73.34C120.709 73.34 120.17 73.4909 119.719 73.856C119.277 74.2136 119.009 74.7052 118.854 75.2308L120.773 75.7952ZM121.262 75.34C121.436 75.34 121.581 75.3759 121.712 75.4414L122.606 73.6526C122.186 73.4421 121.733 73.34 121.262 73.34V75.34ZM121.226 74.188C120.828 75.2215 120.428 76.4559 120.024 77.886L121.949 78.43C122.342 77.0387 122.723 75.8658 123.093 74.906L121.226 74.188ZM120.024 77.886C119.62 79.3143 119.352 80.488 119.236 81.3874L121.219 81.6446C121.317 80.888 121.555 79.823 121.949 78.43L120.024 77.886ZM119.228 81.4827C119.21 82.0213 119.272 82.588 119.54 83.0643L121.283 82.0837C121.283 82.084 121.278 82.0751 121.271 82.0536C121.264 82.0321 121.255 81.9997 121.247 81.9542C121.231 81.8613 121.221 81.7291 121.227 81.5493L119.228 81.4827ZM119.54 83.0643C119.917 83.7354 120.597 83.942 121.193 83.942V81.942C121.102 81.942 121.097 81.9267 121.136 81.9452C121.158 81.9553 121.186 81.9728 121.216 82.0002C121.246 82.0277 121.268 82.0574 121.283 82.0837L119.54 83.0643ZM121.193 83.942C122.05 83.942 122.747 83.521 123.262 82.8767L121.7 81.6273C121.48 81.903 121.318 81.942 121.193 81.942V83.942ZM123.262 82.8767C123.758 82.2567 124.117 81.3789 124.391 80.3467L122.458 79.8333C122.211 80.7637 121.94 81.3273 121.7 81.6273L123.262 82.8767ZM124.387 80.3596C124.616 79.5433 124.914 78.1137 125.282 76.1072L123.315 75.7468C122.946 77.7576 122.662 79.1034 122.461 79.8204L124.387 80.3596ZM124.298 76.927C124.612 76.927 124.863 76.9433 125.058 76.9706C125.259 76.9985 125.371 77.0341 125.423 77.0566C125.476 77.0798 125.414 77.0661 125.346 76.9655C125.264 76.8446 125.253 76.7155 125.262 76.6441L127.244 76.9119C127.292 76.5568 127.228 76.1795 127.003 75.8458C126.791 75.5326 126.494 75.3416 126.221 75.2229C125.7 74.9958 125.021 74.927 124.298 74.927V76.927ZM125.265 76.6259C125.245 76.758 125.176 77.0494 125.038 77.5423L126.963 78.0837C127.1 77.5953 127.201 77.1967 127.242 76.9301L125.265 76.6259ZM125.039 77.5361C124.774 78.4563 124.58 79.2349 124.465 79.8628L126.432 80.2252C126.531 79.6878 126.705 78.979 126.961 78.0899L125.039 77.5361ZM124.472 79.8271C124.402 80.1446 124.343 80.5086 124.294 80.9139L126.28 81.1521C126.324 80.7907 126.372 80.4954 126.424 80.2609L124.472 79.8271ZM124.295 80.909C124.247 81.2896 124.218 81.6219 124.218 81.884H126.218C126.218 81.7474 126.235 81.5124 126.28 81.157L124.295 80.909ZM124.266 82.1888C124.408 82.6326 124.614 83.0854 124.948 83.4191L126.362 82.0049C126.367 82.0093 126.344 81.9869 126.304 81.9117C126.265 81.838 126.219 81.7301 126.171 81.5792L124.266 82.1888ZM124.948 83.4191C125.323 83.7936 125.8 83.965 126.299 83.965V81.965C126.278 81.965 126.285 81.9618 126.308 81.971C126.319 81.9753 126.331 81.9811 126.341 81.9881C126.352 81.995 126.359 82.0012 126.362 82.0049L124.948 83.4191ZM126.299 83.965C127.187 83.965 127.885 83.4967 128.376 82.8126L126.752 81.6454C126.539 81.9426 126.393 81.965 126.299 81.965V83.965ZM128.385 82.8008C128.821 82.175 129.132 81.4362 129.339 80.6085L127.399 80.1235C127.238 80.7678 127.013 81.2709 126.744 81.6572L128.385 82.8008ZM129.336 80.6224C129.555 79.7959 129.668 78.9812 129.668 78.181H127.668C127.668 78.7915 127.582 79.4335 127.403 80.1096L129.336 80.6224ZM129.668 78.181C129.668 77.5731 129.599 77.0047 129.437 76.4962L127.532 77.1058C127.614 77.364 127.668 77.7155 127.668 78.181H129.668ZM129.44 76.5069C129.298 76.0441 129.061 75.4674 128.747 74.7923L126.934 75.6357C127.233 76.2792 127.426 76.7605 127.528 77.0951L129.44 76.5069ZM128.81 75.4565C128.803 75.4881 128.791 75.5153 128.779 75.5365C128.767 75.5571 128.757 75.5674 128.756 75.5684C128.755 75.5691 128.763 75.5609 128.785 75.5459C128.806 75.5309 128.839 75.5109 128.885 75.4874L127.991 73.6986C127.523 73.9327 127.031 74.3269 126.87 74.9715L128.81 75.4565ZM128.87 75.4951C129.019 75.424 129.128 75.381 129.204 75.3572C129.287 75.3312 129.292 75.34 129.243 75.34V73.34C128.819 73.34 128.376 73.5144 128.007 73.6909L128.87 75.4951ZM129.243 75.34C129.086 75.34 128.96 75.2922 128.877 75.244C128.801 75.1996 128.764 75.1568 128.76 75.1518L130.279 73.8502C130.099 73.6405 129.754 73.34 129.243 73.34V75.34ZM128.812 75.2081C128.84 75.2358 128.914 75.3228 129.042 75.5072L130.686 74.3688C130.538 74.1546 130.383 73.9502 130.226 73.7939L128.812 75.2081ZM129.036 75.4983C129.438 76.0926 129.897 76.6021 130.419 77.0123L131.655 75.4397C131.319 75.1752 130.996 74.8261 130.693 74.3777L129.036 75.4983ZM130.437 77.026C131.1 77.523 131.938 77.709 132.831 77.709V75.709C132.191 75.709 131.833 75.573 131.637 75.426L130.437 77.026ZM132.831 77.709C133.547 77.709 134.274 77.5677 135.008 77.3057L134.335 75.4223C133.781 75.6203 133.281 75.709 132.831 75.709V77.709ZM135.008 77.3057C135.854 77.0036 136.546 76.4659 137.073 75.7242L135.443 74.5658C135.142 74.9894 134.777 75.2644 134.335 75.4223L135.008 77.3057ZM146.417 78.618L146.66 77.6479L145.909 77.4602L145.539 78.1398L146.417 78.618ZM145.934 80.849L145.104 80.2908L145.104 80.2908L145.934 80.849ZM143.841 83.126L144.471 83.9026L144.473 83.9012L143.841 83.126ZM139.839 83.54L139.159 84.2728L139.166 84.2794L139.173 84.2859L139.839 83.54ZM139.172 82.022L140.172 81.997L140.098 79.0564L138.364 81.4325L139.172 82.022ZM137.746 83.494L138.357 84.2858L138.357 84.2858L137.746 83.494ZM134.733 83.54L135.325 82.7343L135.325 82.7343L134.733 83.54ZM133.859 82.344L132.875 82.1648L132.846 82.3273L132.87 82.4905L133.859 82.344ZM135.216 74.892L134.238 74.686L134.235 74.6994L134.232 74.7128L135.216 74.892ZM136.504 74.662L136.225 75.6223L136.243 75.6276L136.262 75.6321L136.504 74.662ZM137.033 75.927L136.063 75.6844L136.06 75.6954L137.033 75.927ZM136.389 78.894L135.41 78.6914L135.408 78.7022L136.389 78.894ZM135.86 81.769L134.872 81.613L134.849 81.7616L134.87 81.9104L135.86 81.769ZM136.182 82.367L135.475 83.0741L135.504 83.1035L135.536 83.1304L136.182 82.367ZM138.252 81.838L137.514 81.1632L137.513 81.1642L138.252 81.838ZM139.471 79.354L138.512 79.071L138.51 79.0775L139.471 79.354ZM140.529 74.708L141.51 74.9028L141.512 74.8948L141.513 74.8869L140.529 74.708ZM141.725 74.662L141.419 75.614L141.439 75.6204L141.459 75.626L141.725 74.662ZM142.392 75.076L143.355 75.3446L143.392 75.2128V75.076H142.392ZM141.265 79.4L142.238 79.6316L141.265 79.4ZM141.058 82.666L140.295 83.3119L140.309 83.3284L140.323 83.3443L141.058 82.666ZM144.048 81.838L144.72 82.5786L144.727 82.5718L144.048 81.838ZM146.175 79.5881C146.172 79.5876 146.059 79.5595 145.946 79.4319C145.818 79.2885 145.785 79.1273 145.785 79.032H147.785C147.785 78.7221 147.691 78.3845 147.44 78.1031C147.204 77.8375 146.907 77.7098 146.66 77.6479L146.175 79.5881ZM145.785 79.032C145.785 78.9941 145.789 79.0768 145.667 79.3381C145.555 79.5771 145.372 79.8923 145.104 80.2908L146.764 81.4072C147.063 80.9623 147.306 80.5531 147.478 80.1864C147.639 79.8421 147.785 79.4379 147.785 79.032H145.785ZM145.104 80.2908C144.595 81.0484 143.965 81.7351 143.209 82.3508L144.473 83.9012C145.373 83.1675 146.139 82.3363 146.764 81.4072L145.104 80.2908ZM143.211 82.3494C142.525 82.9064 141.927 83.115 141.403 83.115V85.115C142.504 85.115 143.532 84.6642 144.471 83.9026L143.211 82.3494ZM141.403 83.115C141.018 83.115 140.738 83.0024 140.505 82.7941L139.173 84.2859C139.798 84.8442 140.562 85.115 141.403 85.115V83.115ZM140.52 82.8072C140.298 82.6013 140.181 82.3552 140.172 81.997L138.172 82.047C138.194 82.9154 138.522 83.6814 139.159 84.2728L140.52 82.8072ZM138.364 81.4325C138.004 81.9262 137.594 82.3481 137.135 82.7022L138.357 84.2858C138.971 83.8119 139.512 83.2524 139.98 82.6115L138.364 81.4325ZM137.135 82.7022C136.701 83.0371 136.406 83.115 136.228 83.115V85.115C137.001 85.115 137.718 84.7789 138.357 84.2858L137.135 82.7022ZM136.228 83.115C136.031 83.115 135.736 83.0363 135.325 82.7343L134.141 84.3457C134.773 84.8104 135.475 85.115 136.228 85.115V83.115ZM135.325 82.7343C134.904 82.4247 134.854 82.234 134.848 82.1975L132.87 82.4905C132.987 83.282 133.519 83.8887 134.141 84.3457L135.325 82.7343ZM134.843 82.5232L136.2 75.0712L134.232 74.7128L132.875 82.1648L134.843 82.5232ZM136.195 75.098C136.214 75.0046 136.22 75.0437 136.162 75.1289C136.128 75.1788 136.059 75.2627 135.941 75.3349C135.815 75.4121 135.667 75.455 135.515 75.455V73.455C135.025 73.455 134.69 73.7394 134.512 73.9996C134.354 74.2304 134.279 74.488 134.238 74.686L136.195 75.098ZM135.515 75.455C135.504 75.455 135.552 75.4556 135.695 75.4855C135.827 75.513 136.002 75.5575 136.225 75.6223L136.783 73.7017C136.32 73.5673 135.861 73.455 135.515 73.455V75.455ZM136.262 75.6321C136.485 75.6879 136.585 75.7284 136.609 75.7404C136.623 75.7476 136.563 75.7214 136.487 75.6451C136.409 75.5668 136.24 75.3581 136.24 75.03H138.24C138.24 74.6406 138.041 74.3706 137.901 74.2309C137.764 74.0933 137.612 74.0058 137.503 73.9516C137.282 73.841 137.014 73.7587 136.747 73.6919L136.262 75.6321ZM136.24 75.03C136.24 74.9793 136.244 74.9415 136.245 74.9312C136.247 74.916 136.249 74.9058 136.249 74.9031C136.25 74.8979 136.25 74.9008 136.247 74.9158C136.241 74.9448 136.23 74.9928 136.214 75.0639C136.182 75.2045 136.131 75.4103 136.063 75.6845L138.003 76.1695C138.073 75.8917 138.126 75.672 138.163 75.5136C138.181 75.4352 138.196 75.3653 138.208 75.3081C138.21 75.2986 138.24 75.1622 138.24 75.03H136.24ZM136.06 75.6954C135.903 76.3545 135.686 77.3556 135.41 78.6914L137.368 79.0966C137.644 77.7644 137.856 76.7875 138.006 76.1586L136.06 75.6954ZM135.408 78.7022C135.147 80.0369 134.967 81.0108 134.872 81.613L136.848 81.925C136.937 81.3619 137.11 80.4191 137.371 79.0858L135.408 78.7022ZM134.87 81.9104C134.937 82.3795 135.169 82.7686 135.475 83.0741L136.889 81.6599C136.856 81.6267 136.845 81.6077 136.844 81.6054C136.843 81.6042 136.845 81.6062 136.846 81.6109C136.848 81.6157 136.849 81.6215 136.85 81.6276L134.87 81.9104ZM135.536 83.1304C135.916 83.4515 136.374 83.62 136.872 83.62V81.62C136.861 81.62 136.855 81.6191 136.852 81.6186C136.85 81.6184 136.849 81.6182 136.849 81.6181C136.849 81.618 136.848 81.6179 136.848 81.6179C136.848 81.6179 136.848 81.6178 136.848 81.6176C136.847 81.6174 136.846 81.617 136.845 81.6161C136.842 81.6146 136.837 81.611 136.828 81.6036L135.536 83.1304ZM136.872 83.62C137.727 83.62 138.435 83.1215 138.991 82.5118L137.513 81.1642C137.118 81.5972 136.907 81.62 136.872 81.62V83.62ZM138.99 82.5128C139.629 81.8139 140.09 80.8185 140.432 79.6305L138.51 79.0775C138.208 80.1282 137.856 80.7888 137.514 81.1632L138.99 82.5128ZM140.43 79.637C140.72 78.6545 141.08 77.067 141.51 74.9028L139.548 74.5132C139.119 76.673 138.774 78.1829 138.512 79.071L140.43 79.637ZM141.513 74.8869C141.507 74.9189 141.474 75.0734 141.322 75.2254C141.147 75.4004 140.933 75.455 140.782 75.455V73.455C140.493 73.455 140.168 73.5518 139.908 73.8111C139.672 74.0475 139.582 74.3285 139.545 74.5291L141.513 74.8869ZM140.782 75.455C140.779 75.455 140.829 75.4563 140.953 75.4835C141.07 75.5091 141.224 75.5512 141.419 75.614L142.031 73.71C141.596 73.57 141.151 73.455 140.782 73.455V75.455ZM141.459 75.626C141.648 75.6781 141.707 75.7129 141.698 75.7071C141.691 75.7028 141.626 75.6625 141.555 75.5705C141.477 75.4678 141.392 75.2973 141.392 75.076H143.392C143.392 74.4626 142.947 74.1286 142.753 74.0079C142.521 73.8641 142.247 73.7686 141.991 73.698L141.459 75.626ZM141.429 74.8074C140.982 76.4115 140.603 77.8654 140.292 79.1684L142.238 79.6316C142.541 78.3586 142.913 76.9299 143.355 75.3446L141.429 74.8074ZM140.292 79.1684C139.992 80.428 139.805 81.3915 139.805 81.93H141.805C141.805 81.6712 141.924 80.948 142.238 79.6316L140.292 79.1684ZM139.805 81.93C139.805 82.4286 139.955 82.9109 140.295 83.3119L141.821 82.0201C141.817 82.0145 141.816 82.012 141.814 82.0074C141.812 82.0014 141.805 81.9785 141.805 81.93H139.805ZM140.323 83.3443C140.741 83.7967 141.296 83.965 141.84 83.965V81.965C141.769 81.965 141.744 81.9544 141.749 81.9562C141.751 81.9572 141.759 81.9604 141.768 81.967C141.778 81.9736 141.787 81.981 141.793 81.9877L140.323 83.3443ZM141.84 83.965C142.86 83.965 143.832 83.3843 144.72 82.5786L143.376 81.0974C142.608 81.7944 142.108 81.965 141.84 81.965V83.965ZM144.727 82.5718C145.66 81.7086 146.511 80.5371 147.295 79.0962L145.539 78.1398C144.821 79.4589 144.092 80.4341 143.369 81.1042L144.727 82.5718Z" fill="#FFB3B3"/>
</svg>
